<?xml version="1.0" encoding="UTF-8" standalone="no"?>
<!-- Created with Inkscape (http://www.inkscape.org/) -->

<svg
   width="220mm"
   height="296mm"
   viewBox="0 0 220 296"
   version="1.1"
   id="svg1"
   inkscape:version="1.4.2 (ebf0e940d0, 2025-05-08)"
   sodipodi:docname="hop.svg"
   inkscape:export-filename="hop.png"
   inkscape:export-xdpi="96"
   inkscape:export-ydpi="96"
   xml:space="preserve"
   xmlns:inkscape="http://www.inkscape.org/namespaces/inkscape"
   xmlns:sodipodi="http://sodipodi.sourceforge.net/DTD/sodipodi-0.dtd"
   xmlns="http://www.w3.org/2000/svg"
   xmlns:svg="http://www.w3.org/2000/svg"><sodipodi:namedview
     id="namedview1"
     pagecolor="#505050"
     bordercolor="#eeeeee"
     borderopacity="1"
     inkscape:showpageshadow="0"
     inkscape:pageopacity="0"
     inkscape:pagecheckerboard="0"
     inkscape:deskcolor="#505050"
     inkscape:document-units="mm"
     inkscape:zoom="0.50898197"
     inkscape:cx="931.27071"
     inkscape:cy="477.42359"
     inkscape:window-width="1844"
     inkscape:window-height="1011"
     inkscape:window-x="1080"
     inkscape:window-y="438"
     inkscape:window-maximized="1"
     inkscape:current-layer="layer1"><inkscape:page
       x="0"
       y="1.2929476e-08"
       width="220.39658"
       height="296.48016"
       id="page1"
       margin="0 0 0 0"
       bleed="0" /><inkscape:page
       x="232.88316"
       y="0.5198285"
       width="220.40001"
       height="296.48001"
       id="page2"
       margin="0"
       bleed="0"
       inkscape:export-filename="hop.png"
       inkscape:export-xdpi="96"
       inkscape:export-ydpi="96" /></sodipodi:namedview><defs
     id="defs1" /><g
     inkscape:label="Layer 1"
     inkscape:groupmode="layer"
     id="layer1"
     transform="translate(0,-0.51982848)"><g
       id="g1"
       transform="translate(5.1982826,12.177635)"><path
         style="color:#000000;fill:#eceff4;fill-opacity:1;stroke:#2e3440;stroke-width:5;stroke-miterlimit:10;stroke-dasharray:none;stroke-opacity:1"
         d="m 141.07929,82.46765 c 15.03643,8.687383 32.6218,8.936735 47.31247,2.252338 -1.55188,-16.07162 -10.55766,-31.177872 -25.60213,-39.865187 -15.04446,-8.679276 -32.62179,-8.936677 -47.31246,-2.244221 1.55188,16.071542 10.55766,31.177852 25.60212,39.865138 z"
         id="path18-6-4" /><path
         style="color:#000000;fill:#eceff4;fill-opacity:1;stroke:#2e3440;stroke-width:5;stroke-miterlimit:10;stroke-dasharray:none;stroke-opacity:1"
         d="m 139.3363,32.056922 c -9.37849,-0.365133 -18.7098,1.485626 -27.19132,5.349453 l -5.22342,2.380145 0.55129,5.713934 c 1.79176,18.555813 12.24977,36.04779 29.5863,46.058735 l 12.06131,6.964469 v -1.751787 c 14.24908,4.455979 29.4452,3.373399 42.60089,-2.612611 l 5.22657,-2.378619 -0.55285,-5.717026 C 194.6033,67.507802 184.1453,50.015757 166.80876,40.0049 l -0.002,-0.0016 c -8.6664,-4.999669 -18.09236,-7.581172 -27.47086,-7.946345 z m -0.67218,16.056202 c 6.84394,0.260241 13.73041,2.147514 20.10845,5.827053 10.84615,6.264172 17.88663,16.416174 20.5686,27.667853 -11.08553,3.298842 -23.40163,2.273726 -34.24122,-3.988862 l -0.0865,-0.04861 c -10.79781,-6.268321 -17.81237,-16.39212 -20.48694,-27.6145 4.56904,-1.361445 9.33697,-2.023819 14.13749,-1.841281 z"
         id="path19-4-3" /><path
         style="color:#000000;fill:#eceff4;fill-opacity:1;stroke:#2e3440;stroke-width:5;stroke-miterlimit:10;stroke-dasharray:none;stroke-opacity:1"
         d="M 47.202158,44.854801 C 32.165731,53.542116 23.151921,68.648368 21.600029,84.719988 36.282651,91.412357 53.868034,91.155033 68.912498,82.46765 83.948925,73.780363 92.962744,58.674073 94.514626,42.602531 79.832004,35.918124 62.246621,36.175525 47.202158,44.854801 Z"
         id="path20-0" /><path
         style="color:#000000;fill:#eceff4;fill-opacity:1;stroke:#2e3440;stroke-width:5;stroke-miterlimit:10;stroke-dasharray:none;stroke-opacity:1"
         d="m 70.655985,32.055347 c -9.378713,0.366301 -18.803915,2.94794 -27.470868,7.947978 l -0.0016,0.0015 -0.0032,0.0016 c -17.326998,10.0108 -27.792635,27.498752 -29.584663,46.05719 l -0.551192,5.71236 5.221852,2.380174 C 35.224122,101.8856 55.597158,101.561 72.931657,91.551314 l 0.0016,-0.0017 C 90.260306,81.539009 100.72593,64.051057 102.51796,45.4926 l 0.55285,-5.7155 -5.224995,-2.37859 C 89.367523,33.538689 80.034766,31.689037 70.656053,32.055347 Z m 0.675289,16.056212 c 4.799974,-0.183053 9.566606,0.478193 14.13276,1.836567 -2.683809,11.251777 -9.731167,21.406996 -20.57331,27.671042 -10.849189,6.264046 -23.164373,7.29237 -34.241221,3.99207 2.682955,-11.251679 9.729214,-21.406257 20.570172,-27.671061 6.377501,-3.679228 13.265866,-5.567512 20.111599,-5.828618 z"
         id="path21-3" /><path
         style="color:#000000;fill:#eceff4;fill-opacity:1;stroke:#2e3440;stroke-width:5;stroke-miterlimit:10;stroke-dasharray:none;stroke-opacity:1"
         d="m 83.289573,215.06991 c 0,17.37467 8.571563,32.73032 21.710347,42.10937 13.13877,-9.37905 21.71034,-24.7347 21.71034,-42.10937 0,-17.37457 -8.57157,-32.73021 -21.71034,-42.10937 -13.138784,9.37916 -21.710347,24.7348 -21.710347,42.10937 z"
         id="path22-0" /><path
         style="color:#000000;fill:#eceff4;fill-opacity:1;stroke:#2e3440;stroke-width:5;stroke-miterlimit:10;stroke-dasharray:none;stroke-opacity:1"
         d="m 104.99929,163.07948 -4.67061,3.33384 c -15.170649,10.82948 -25.080604,28.63607 -25.080604,48.65718 0,20.02111 9.909955,37.8277 25.080604,48.65728 l 4.67061,3.33374 4.67061,-3.33374 c 15.17065,-10.82958 25.08061,-28.63617 25.08061,-48.65728 0,-20.02111 -9.90996,-37.8277 -25.08061,-48.65718 z m 0,20.33268 c 8.40221,7.94924 13.66948,19.12811 13.66948,31.65834 0,12.53023 -5.26736,23.70754 -13.66948,31.65678 -8.401657,-7.94914 -13.669474,-19.12694 -13.669474,-31.65678 0,-12.52984 5.26773,-23.7091 13.669474,-31.65834 z"
         id="path23-9" /><path
         style="color:#000000;fill:#eceff4;fill-opacity:1;stroke:#2e3440;stroke-width:5;stroke-miterlimit:10;stroke-dasharray:none;stroke-opacity:1"
         d="m 108.52986,188.61386 c 4.49484,16.77943 16.74913,29.40016 31.86596,35.05497 10.26014,-12.45994 14.57005,-29.51284 10.07521,-46.29217 -4.49485,-16.77943 -16.74913,-29.40017 -31.86596,-35.05498 -10.26015,12.45985 -14.57006,29.51274 -10.07521,46.29218 z"
         id="path24-2" /><path
         style="color:#000000;fill:#eceff4;fill-opacity:1;stroke:#2e3440;stroke-width:5;stroke-miterlimit:10;stroke-dasharray:none;stroke-opacity:1"
         d="m 116.04763,132.77697 -3.64824,4.43041 c -11.84672,14.38652 -16.815749,34.15089 -11.63569,53.4882 5.1797,19.33596 19.35736,33.97757 36.81523,40.50807 l 5.37419,2.00941 3.64824,-4.43031 c 11.84672,-14.38662 16.81733,-34.1509 11.63727,-53.4883 -5.17971,-19.33596 -19.35893,-33.97601 -36.81681,-40.50652 z m 5.26268,19.6413 c 10.17012,5.50267 18.15188,14.94152 21.39311,27.04109 3.24091,12.09841 1.04373,24.26049 -5.01297,34.11395 -10.17019,-5.50267 -18.15187,-14.94141 -21.39312,-27.04109 -3.24087,-12.09821 -1.04362,-24.26049 5.01298,-34.11395 z"
         id="path25-5" /><path
         style="color:#000000;fill:#eceff4;fill-opacity:1;stroke:#2e3440;stroke-width:5;stroke-miterlimit:10;stroke-dasharray:none;stroke-opacity:1"
         d="m 129.87032,162.09334 c 8.68414,15.04194 23.78488,24.05907 39.85055,25.61157 6.69,-14.68798 6.43269,-32.27983 -2.25145,-47.32983 -8.68414,-15.04193 -23.78489,-24.05907 -39.85054,-25.61147 -6.69001,14.68798 -6.4327,32.27983 2.25144,47.32973 z"
         id="path26-4" /><path
         style="color:#000000;fill:#eceff4;fill-opacity:1;stroke:#2e3440;stroke-width:5;stroke-miterlimit:10;stroke-dasharray:none;stroke-opacity:1"
         d="m 117.85682,106.20562 -2.37928,5.22221 c -7.72667,16.96404 -7.40215,37.3461 2.60386,54.68694 h 0.002 v 0.002 c 10.00709,17.33345 27.4886,27.80285 46.04026,29.59556 l 5.71183,0.5512 2.37771,-5.22376 c 7.72667,-16.96404 7.40216,-37.34455 -2.60385,-54.68539 v -0.002 h -0.002 C 159.60027,119.01894 142.11876,108.54953 123.5671,106.75682 Z m 10.16102,17.61158 c 11.24887,2.68426 21.4017,9.73379 27.66405,20.58086 6.2618,10.85321 7.28972,23.17287 3.99059,34.25375 -11.2482,-2.68406 -21.40005,-9.73321 -27.66247,-20.57921 -6.26275,-10.85369 -7.29149,-23.17385 -3.99217,-34.2554 z"
         id="path27-33-0" /><path
         style="color:#000000;fill:#eceff4;fill-opacity:1;stroke:#2e3440;stroke-width:5;stroke-miterlimit:10;stroke-dasharray:none;stroke-opacity:1"
         d="m 62.31899,177.36859 c -4.494846,16.77943 -0.18493,33.8403 10.075206,46.29217 15.116831,-5.6548 27.371115,-18.27554 31.865964,-35.05497 4.49484,-16.77943 0.18493,-33.8403 -10.07521,-46.29218 -15.116832,5.65481 -27.371125,18.27555 -31.86596,35.05498 z"
         id="path28-5" /><path
         style="color:#000000;fill:#eceff4;fill-opacity:1;stroke:#2e3440;stroke-width:5;stroke-miterlimit:10;stroke-dasharray:none;stroke-opacity:1"
         d="m 96.741699,132.7691 -5.372623,2.01096 c -17.457886,6.53051 -31.637107,21.17056 -36.816813,40.50661 -5.180231,19.33789 -0.212819,39.10839 11.637272,53.48976 l 3.648222,4.42875 5.372633,-2.01096 c 17.457876,-6.5305 31.6371,-21.17046 36.8168,-40.50651 5.18023,-19.33799 0.21282,-39.10839 -11.63726,-53.48976 z m -5.261121,19.6414 c 6.054268,9.8485 8.253568,22.0167 5.012978,34.11395 -3.241222,12.09957 -11.224558,21.53676 -21.394677,27.03943 -6.054336,-9.84859 -8.253588,-22.01671 -5.012978,-34.11395 3.241231,-12.09957 11.224557,-21.53686 21.394677,-27.03943 z"
         id="path29-9" /><path
         style="color:#000000;fill:#eceff4;fill-opacity:1;stroke:#2e3440;stroke-width:5;stroke-miterlimit:10;stroke-dasharray:none;stroke-opacity:1"
         d="m 46.759911,140.37508 c -8.684144,15.04194 -8.933405,32.63378 -2.251446,47.32983 16.065657,-1.5525 31.166397,-10.56156 39.85054,-25.61157 8.684144,-15.04193 8.933405,-32.63368 2.251446,-47.32973 -16.065657,1.5524 -31.166406,10.56147 -39.85054,25.61147 z"
         id="path30-4" /><path
         style="color:#000000;fill:#eceff4;fill-opacity:1;stroke:#2e3440;stroke-width:5;stroke-miterlimit:10;stroke-dasharray:none;stroke-opacity:1"
         d="m 91.55282,106.20406 -5.714991,0.55315 c -18.549008,1.79242 -36.034628,12.25424 -46.041819,29.59712 -10.007658,17.33588 -10.321144,37.71445 -2.607,54.68063 l 2.377709,5.22853 5.71499,-0.55121 c 18.548328,-1.79242 36.032879,-12.25385 46.040245,-29.59566 l 0.0016,-0.002 c 10.007656,-17.33588 10.321146,-37.71609 2.60699,-54.68227 z M 81.383954,123.8172 c 3.297575,11.08962 2.272834,23.41026 -3.98746,34.25374 h -0.0016 v 0.002 c -6.261733,10.85184 -16.410678,17.89612 -27.659335,20.57931 -3.298129,-11.09002 -2.273117,-23.40978 3.98746,-34.25375 v -0.002 h 0.0016 c 6.261956,-10.85222 16.410211,-17.89631 27.659335,-20.5793 z"
         id="path31-6" /><path
         style="color:#000000;fill:#eceff4;fill-opacity:1;stroke:#2e3440;stroke-width:5;stroke-miterlimit:10;stroke-dasharray:none;stroke-opacity:1"
         d="m 83.241324,162.84947 c 0,17.37467 8.571563,32.73031 21.710346,42.10937 13.13878,-9.37906 21.71034,-24.7347 21.71034,-42.10937 0,-17.37457 -8.57156,-32.73021 -21.71034,-42.10937 -13.138783,9.37916 -21.710346,24.7348 -21.710346,42.10937 z"
         id="path32-9" /><path
         style="color:#000000;fill:#eceff4;fill-opacity:1;stroke:#2e3440;stroke-width:5;stroke-miterlimit:10;stroke-dasharray:none;stroke-opacity:1"
         d="m 104.95218,110.85758 -4.67062,3.33529 c -15.170651,10.82958 -25.080606,28.63617 -25.080606,48.65728 0,20.02111 9.909955,37.82615 25.080606,48.65563 l 4.67062,3.33539 4.67061,-3.33539 c 15.17065,-10.82948 25.08058,-28.63452 25.08058,-48.65563 0,-20.02111 -9.90993,-37.8277 -25.08058,-48.65728 z m 0,20.33413 c 8.40174,7.94925 13.66946,19.1285 13.66946,31.65844 0,12.52984 -5.26781,23.70754 -13.66946,31.65679 -8.402125,-7.94925 -13.669486,-19.12656 -13.669476,-31.65679 -10e-6,-12.53033 5.267254,-23.7091 13.669476,-31.65844 z"
         id="path33-2" /><path
         style="color:#000000;fill:#eceff4;fill-opacity:1;stroke:#2e3440;stroke-width:5;stroke-miterlimit:10;stroke-dasharray:none;stroke-opacity:1"
         d="m 154.8131,104.75704 c 12.2784,12.28292 29.19638,17.08507 45.11731,14.42259 2.66152,-15.9187 -2.13887,-32.850954 -14.41728,-45.133874 -12.27841,-12.282862 -29.19639,-17.085012 -45.11731,-14.42251 -2.66153,15.918723 2.13886,32.850973 14.41728,45.133794 z"
         id="path34-2" /><path
         style="color:#000000;fill:#eceff4;fill-opacity:1;stroke:#2e3440;stroke-width:5;stroke-miterlimit:10;stroke-dasharray:none;stroke-opacity:1"
         d="m 146.00772,50.942142 c -2.32297,0.11374 -4.64022,0.363481 -6.9384,0.747863 l -5.65844,0.94579 -0.94544,5.660516 c -3.07407,18.386166 2.51119,37.992953 16.66124,52.148209 14.14883,14.15398 33.74359,19.74356 52.12902,16.6689 l 5.65844,-0.94589 0.947,-5.66055 C 210.93522,102.12081 205.34839,82.512562 191.19832,68.357311 178.81811,55.972521 162.26848,50.145614 146.00771,50.942094 Z m 1.77779,16.073526 c 11.55939,-0.320804 23.1883,3.860152 32.04255,12.717659 8.85237,8.855659 13.03208,20.495613 12.71304,32.054293 -11.5594,0.3208 -23.18832,-3.86025 -32.04254,-12.717662 -8.85238,-8.85566 -13.0321,-20.49561 -12.71305,-32.05429 z"
         id="path35-38-4" /><path
         style="color:#000000;fill:#eceff4;fill-opacity:1;stroke:#2e3440;stroke-width:5;stroke-miterlimit:10;stroke-dasharray:none;stroke-opacity:1"
         d="M 55.186903,104.75831 C 42.9085,117.04123 25.990515,121.84338 10.069595,119.18089 7.4080682,103.26219 12.20846,86.32994 24.486872,74.04702 36.765275,61.764148 53.68326,56.961988 69.60418,59.62449 72.265707,75.543232 67.465315,92.475386 55.186903,104.75831 Z"
         id="path34-1-7" /><path
         style="color:#000000;fill:#eceff4;fill-opacity:1;stroke:#2e3440;stroke-width:5;stroke-miterlimit:10;stroke-dasharray:none;stroke-opacity:1"
         d="m 63.992285,50.943396 c 2.322969,0.11374 4.640214,0.363482 6.938393,0.747864 l 5.658443,0.945789 0.945443,5.660526 C 80.60863,76.683741 75.023372,96.290431 60.873323,110.44568 46.724499,124.59967 27.129731,130.18925 8.7443026,127.11468 L 3.0858595,126.16879 2.1388613,120.50825 C -0.93520473,102.12207 4.6516183,82.513826 18.801686,68.358575 31.181902,55.973775 47.731534,50.146878 63.992305,50.943358 Z M 62.214494,67.016834 C 50.655101,66.69603 39.026186,70.877084 30.171952,79.73459 c -8.852368,8.85566 -13.032095,20.49561 -12.71305,32.05429 11.559393,0.3208 23.188308,-3.86025 32.042542,-12.717755 8.852378,-8.855563 13.032095,-20.495611 12.71305,-32.054291 z"
         id="path35-3-7" /><path
         style="color:#000000;fill:#eceff4;fill-opacity:1;stroke:#2e3440;stroke-width:5;stroke-miterlimit:10;stroke-dasharray:none;stroke-opacity:1"
         d="m 120.07654,84.888848 c 12.2784,12.28292 29.1964,17.085072 45.11732,14.422588 2.66153,-15.918703 -2.13888,-32.850954 -14.41728,-45.133855 -12.27841,-12.282901 -29.1964,-17.077011 -45.10928,-14.41451 -2.66152,15.918704 2.13888,32.850925 14.41729,45.133846 z"
         id="path36-6-5" /><path
         style="color:#000000;fill:#eceff4;fill-opacity:1;stroke:#2e3440;stroke-width:5;stroke-miterlimit:10;stroke-dasharray:none;stroke-opacity:1"
         d="M 59.166968,54.177581 C 46.888555,66.460482 42.088163,83.384664 44.74969,99.311436 60.662564,101.97392 77.588595,97.171768 89.867007,84.888848 102.1454,72.605928 106.94581,55.681775 104.28428,39.755022 88.371401,37.09252 71.44537,41.89468 59.166968,54.177581 Z"
         id="path42-4" /><path
         id="path37-0-8"
         style="color:#000000;display:inline;fill:#eceff4;fill-opacity:1;stroke:#2e3440;stroke-width:5;stroke-miterlimit:10;stroke-dasharray:none;stroke-opacity:1"
         d="M 95.623503,37.881453 C 80.363421,37.910617 65.088656,43.75718 53.481188,55.3689 39.332384,69.522887 33.744861,89.124883 36.818373,107.51703 l 0.946998,5.66054 5.658444,0.94783 c 18.379403,3.07516 37.978962,-2.51365 52.129011,-16.668935 3.747654,-3.749039 6.876824,-7.888095 9.421324,-12.277866 2.5433,4.389581 5.67032,8.528827 9.41661,12.277866 0.002,0.003 0.005,0.005 0.008,0.008 14.14819,14.148195 33.7392,19.735155 52.12116,16.661065 l 5.65844,-0.94783 0.947,-5.66045 C 176.19909,89.130813 170.61245,69.524132 156.4624,55.3689 144.08112,42.983069 127.53129,37.163298 111.27649,37.961576 c -2.09798,0.103047 -4.18924,0.331401 -6.26779,0.655122 -2.10036,-0.329262 -4.21323,-0.558977 -6.333754,-0.662996 -1.016111,-0.04958 -2.034107,-0.07388 -3.051453,-0.07194 z m -0.895202,16.136335 c 0.722128,-0.01555 1.445083,-0.01167 2.16726,0.0079 0.320396,11.563618 -3.8604,23.196764 -12.714624,32.05427 C 75.328248,94.93591 63.69323,99.118716 52.138394,98.799269 51.817999,87.235636 55.998785,75.602393 64.853019,66.744955 73.152406,58.442488 83.896721,54.246502 94.728301,54.017788 Z m 20.494779,0.0079 c 10.83035,0.226507 21.56804,4.416845 29.86743,12.719272 8.85269,8.855971 13.03402,20.495241 12.71463,32.054309 -11.55592,0.320807 -23.18146,-3.859369 -32.03469,-12.711436 -0.002,-0.0014 -0.002,-0.0033 -0.003,-0.0048 -0.002,-0.0014 -0.003,-0.0018 -0.005,-0.0031 -8.84707,-8.854979 -13.02605,-20.490846 -12.70677,-32.046464 0.72213,-0.02041 1.44525,-0.02333 2.16726,-0.0079 z" /><path
         style="color:#000000;fill:#eceff4;fill-opacity:1;stroke:#2e3440;stroke-width:5;stroke-miterlimit:10;stroke-dasharray:none;stroke-opacity:1"
         d="m 144.62531,130.11926 c 12.27841,12.28292 29.1964,17.08507 45.11732,14.42249 2.66153,-15.91871 -2.13888,-32.85086 -14.41728,-45.133781 -12.27841,-12.28292 -29.1964,-17.08507 -45.11731,-14.422588 -2.66153,15.918699 2.13887,32.850959 14.41727,45.133879 z"
         id="path38-4-1" /><path
         style="color:#000000;fill:#eceff4;fill-opacity:1;stroke:#2e3440;stroke-width:5;stroke-miterlimit:10;stroke-dasharray:none;stroke-opacity:1"
         d="m 135.82001,76.305289 c -2.32298,0.113739 -4.64023,0.361634 -6.93841,0.746599 l -5.65844,0.945887 -0.94544,5.660545 c -3.07407,18.38618 2.51119,37.99442 16.66125,52.14967 14.14882,14.15399 33.74359,19.74201 52.12901,16.66735 l 5.65844,-0.94589 0.947,-5.66045 C 200.74751,127.48283 195.16067,107.87614 181.01061,93.720885 168.63039,81.336085 152.08075,75.509208 135.82,76.305677 Z m 1.77777,16.071911 c 11.5594,-0.320804 23.18831,3.861805 32.04255,12.71931 8.85269,8.85595 13.03243,20.49522 12.71305,32.05429 -11.55938,0.32081 -23.18832,-3.8618 -32.04254,-12.71931 -8.8527,-8.85595 -13.03244,-20.49522 -12.71306,-32.05429 z"
         id="path39-2" /><path
         style="color:#000000;fill:#eceff4;fill-opacity:1;stroke:#2e3440;stroke-width:5;stroke-miterlimit:10;stroke-dasharray:none;stroke-opacity:1"
         d="M 34.586033,99.407969 C 22.30763,111.69089 17.507228,128.61507 20.168755,144.54175 36.081629,147.20433 53.00766,142.40218 65.286063,130.11926 77.564475,117.83634 82.364867,100.91215 79.70335,84.985381 63.790466,82.322899 46.864435,87.125049 34.586033,99.407969 Z"
         id="path44-8" /><path
         style="color:#000000;fill:#eceff4;fill-opacity:1;stroke:#2e3440;stroke-width:5;stroke-miterlimit:10;stroke-dasharray:none;stroke-opacity:1"
         d="M 74.093768,76.303733 C 57.835971,75.506583 41.281305,81.334627 28.900011,93.720496 14.751187,107.87448 9.1636736,127.47641 12.237195,145.86861 l 0.946999,5.66045 5.658443,0.94589 C 37.22206,155.5502 56.82159,149.96285 70.971648,135.8076 85.120472,121.65362 90.707985,102.05169 87.634463,83.659487 L 86.687465,77.999039 81.029012,77.051207 C 78.731591,76.667214 76.416309,76.417376 74.093768,76.303636 Z M 72.314412,92.3772 c 0.320396,11.56364 -3.86039,23.19678 -12.714624,32.05429 -8.852699,8.85595 -20.487687,13.03876 -32.042542,12.71931 -0.320784,-11.56412 3.859982,-23.19639 12.714624,-32.05429 8.852699,-8.85595 20.487687,-13.038753 32.042542,-12.71931 z"
         id="path45-9" /><path
         style="color:#000000;fill:#eceff4;fill-opacity:1;stroke:#2e3440;stroke-width:5;stroke-miterlimit:10;stroke-dasharray:none;stroke-opacity:1"
         d="m 83.289573,102.52094 c 0,17.37457 8.571563,32.73021 21.710347,42.10937 13.13877,-9.37916 21.71034,-24.7348 21.71034,-42.10937 0,-17.374671 -8.57157,-32.730314 -21.71034,-42.1094 -13.138784,9.379086 -21.710347,24.734729 -21.710347,42.1094 z"
         id="path46-8-3" /><path
         style="color:#000000;fill:#eceff4;fill-opacity:1;stroke:#2e3440;stroke-width:5;stroke-miterlimit:10;stroke-dasharray:none;stroke-opacity:1"
         d="m 104.99929,50.528956 -4.67061,3.335355 C 85.158031,64.693822 75.248076,82.50041 75.248076,102.52152 c 0,20.02111 9.909955,37.82615 25.080604,48.65563 l 4.67061,3.33539 4.67061,-3.33539 c 15.17065,-10.82948 25.08061,-28.63452 25.08061,-48.65563 0,-20.02111 -9.90996,-37.827698 -25.08061,-48.657209 z m 0,20.334226 c 8.40221,7.949242 13.66948,19.128011 13.66948,31.658338 0,12.53023 -5.26736,23.70754 -13.66948,31.65679 -8.401657,-7.94925 -13.669474,-19.12695 -13.669474,-31.65679 0,-12.529841 5.26773,-23.709096 13.669474,-31.658338 z"
         id="path47-8-6" /><path
         style="fill:#eceff4;fill-opacity:1;stroke:#2e3440;stroke-width:4.99999"
         d="M 98.332493,37.620062 C 95.888568,27.324164 93.909673,11.790661 94.218915,8.5771702 c 0.639043,-6.6406418 11.496475,-0.592359 12.735795,1.5594858 1.23933,2.151844 8.35537,22.856196 5.19027,27.269719 -0.35239,0.491378 -13.68728,0.741165 -13.812487,0.213687 z"
         id="path1"
         sodipodi:nodetypes="sszss" /></g><path
       style="fill:#000000"
       d="m 340.9677,281.37983 c -6.21388,-4.54486 -8.26398,-6.19646 -11.06556,-8.91462 -6.75077,-6.54978 -11.84033,-14.26641 -15.01701,-22.76836 -0.62529,-1.67349 -1.17127,-3.08959 -1.2133,-3.1469 -0.042,-0.0573 -1.53161,0.44482 -3.3102,1.11584 -1.77858,0.67101 -3.24992,1.19415 -3.26964,1.16253 -0.0197,-0.0316 -1.15763,-1.42673 -2.52868,-3.10022 -4.07876,-4.9785 -4.3515,-5.339 -6.31943,-8.35302 -4.57595,-7.00837 -8.06962,-16.03875 -9.25653,-23.92615 -0.51021,-3.3905 -0.44971,-3.2591 -1.41204,-3.06655 -1.14756,0.2296 -11.33531,1.26726 -11.43018,1.16421 -0.0415,-0.0451 -0.99141,-2.10609 -2.11085,-4.57995 -4.68445,-10.35218 -6.49098,-18.14872 -6.48628,-27.99324 0.002,-4.07718 0.28226,-8.26174 0.66374,-9.90832 0.13393,-0.5781 0.0785,-0.59532 -1.91764,-0.59554 -3.04411,-3.2e-4 -7.30382,-0.45103 -12.47236,-1.31965 -2.52778,-0.42482 -4.6229,-0.80765 -4.65582,-0.85074 -0.11499,-0.15052 -1.45377,-8.56509 -1.73589,-10.9105 -0.15649,-1.30103 -0.26355,-4.75384 -0.23791,-7.67292 l 0.0466,-5.30742 -4.00597,-0.68782 c -2.20329,-0.3783 -4.06019,-0.74202 -4.12645,-0.80828 -0.30767,-0.30767 -1.73767,-10.17939 -1.98804,-13.72399 -1.11313,-15.75925 4.21424,-31.849674 14.62716,-44.178884 1.21416,-1.4376 2.19186,-3.04147 3.54832,-5.82083 2.03673,-4.17322 5.39122,-9.39986 8.10891,-12.63449 2.03572,-2.42296 6.22337,-6.56335 8.64107,-8.54357 6.70973,-5.49561 16.68287,-10.30139 25.46569,-12.27121 10.62642,-2.38332 22.50392,-1.82623 32.80879,1.53882 1.41883,0.46332 2.57918,0.71872 2.57856,0.56757 -6.1e-4,-0.15116 -0.30021,-1.94171 -0.66576,-3.979 -0.86919,-4.84417 -1.872,-12.34785 -2.23319,-16.71023 -0.29688,-3.58569 -0.14662,-5.16774 0.63316,-6.66626 1.19226,-2.29123 4.0834,-3.21014 7.50757,-2.3862 3.0618,0.73675 7.5526,3.38483 8.78136,5.1781 1.88572,2.75202 5.53186,15.47184 6.35355,22.1648 0.1603,1.30567 0.31877,2.40127 0.35216,2.43466 0.0334,0.0334 1.17483,-0.28858 2.53653,-0.7155 8.31698,-2.60751 17.57098,-3.49594 26.06483,-2.50236 21.18755,2.47844 39.34335,15.42067 48.75059,34.75151 1.22534,2.51793 2.22582,4.14047 3.47995,5.64362 10.50177,12.58711 15.70322,28.347544 14.58713,44.199124 -0.3049,4.33038 -1.71785,13.45202 -2.12247,13.70209 -0.14267,0.0882 -2.02679,0.43975 -4.18693,0.78129 l -3.92753,0.62098 0.13024,4.29406 c 0.0735,2.42284 -0.007,5.71884 -0.18439,7.56365 -0.41839,4.34763 -1.72672,11.87833 -2.10418,12.11162 -0.38947,0.24071 -8.68568,1.54224 -11.94107,1.87336 -1.38245,0.14061 -3.62534,0.25772 -4.9842,0.26024 l -2.47065,0.005 0.15632,0.99218 c 1.47671,9.37281 0.56805,19.97287 -2.50246,29.19287 -0.92903,2.78963 -5.00857,12.24701 -5.49098,12.72942 -0.1109,0.11089 -2.13905,0.0118 -4.507,-0.22023 -2.36796,-0.23201 -4.34841,-0.37837 -4.401,-0.32523 -0.0526,0.0531 -0.29631,1.28724 -0.54159,2.74245 -1.05574,6.26357 -2.74969,11.46371 -5.69452,17.4812 -2.25574,4.6094 -5.08276,8.86867 -9.24156,13.92358 l -3.19884,3.88812 -1.77895,-0.67138 c -5.34837,-2.01849 -7.28232,-2.73923 -7.35006,-2.73923 -0.0415,0 -0.15759,0.38695 -0.25807,0.85989 -0.31862,1.49972 -2.51005,6.83929 -4.03937,9.84218 -3.82463,7.50987 -10.02727,15.10077 -16.58978,20.30285 -2.49915,1.98106 -8.55514,6.30564 -8.79945,6.28367 -0.10801,-0.01 -1.02982,-0.62723 -2.04847,-1.37228 z m 5.68854,-7.17679 c 9.53531,-7.13775 16.24648,-16.00722 20.23836,-26.74698 0.53922,-1.45072 1.03672,-2.99853 1.10557,-3.43958 0.1171,-0.7502 0.0258,-0.85303 -1.41511,-1.59442 -1.71291,-0.88132 -5.77126,-3.48842 -7.28162,-4.67775 l -0.97885,-0.77079 -0.28498,1.13614 c -1.44227,5.74987 -4.27426,12.0481 -7.34477,16.33443 -0.9843,1.37405 -3.10121,3.8596 -4.70425,5.52345 l -2.91461,3.02516 -2.90622,-3.02753 c -1.59843,-1.66514 -3.7084,-4.15069 -4.68884,-5.52345 -2.37349,-3.32321 -4.91893,-8.38719 -6.17539,-12.28549 -0.56283,-1.74625 -1.04165,-3.2099 -1.06404,-3.25256 -0.0224,-0.0427 -1.11544,0.61747 -2.42901,1.46694 -1.31356,0.84947 -3.52947,2.13453 -4.92423,2.85568 -1.39477,0.72115 -2.5374,1.40568 -2.53918,1.52118 -0.002,0.11549 0.42622,1.36565 0.95111,2.77812 3.04317,8.18906 8.18559,15.9759 14.45867,21.89387 2.4175,2.28066 8.81322,7.25928 9.32552,7.25928 0.14552,0 1.75286,-1.11407 3.57187,-2.4757 z m -1.99645,-20.00827 c 2.99519,-3.50189 6.00575,-8.86882 7.50744,-13.38354 0.8107,-2.43732 1.63276,-5.9666 1.63276,-7.00982 0,-0.35615 -0.8521,-1.46733 -2.25858,-2.94531 -1.24223,-1.30537 -2.5121,-2.71628 -2.82194,-3.13536 l -0.56335,-0.76198 -1.74213,1.23164 c -0.95817,0.67741 -2.10806,1.50532 -2.55531,1.83982 l -0.81318,0.60818 -1.56807,-1.14458 -1.56806,-1.14459 -3.6647,3.66117 -3.66469,3.66118 0.32618,1.39024 c 1.03877,4.42748 3.21524,9.43913 5.7626,13.26925 1.90638,2.86636 4.06218,5.47725 4.4487,5.3878 0.16373,-0.0379 0.85777,-0.72374 1.54233,-1.5241 z m -31.27994,-12.92946 c 5.03619,-2.01745 11.10145,-5.55377 15.02014,-8.75742 2.18336,-1.78495 7.14375,-6.65885 7.14375,-7.01917 0,-0.15004 -0.67772,-0.8021 -1.50604,-1.44903 -0.82832,-0.64693 -2.64922,-2.27348 -4.04644,-3.61457 l -2.5404,-2.43834 -2.23741,2.25988 c -3.35922,3.39295 -6.67283,5.87984 -11.14003,8.36069 l -1.75887,0.97679 -1.59683,-2.70979 c -1.97137,-3.34536 -3.51665,-6.83931 -4.52287,-10.22637 -0.85663,-2.8835 -1.87194,-8.45488 -1.87194,-10.27197 0,-0.84933 -0.0938,-1.14476 -0.33073,-1.04121 -2.72668,1.19183 -6.73429,2.69444 -8.42697,3.15961 l -2.14296,0.5889 0.16379,1.85299 c 0.0901,1.01915 0.4583,3.16227 0.81826,4.7625 1.97279,8.77007 6.06863,17.20007 11.73916,24.16135 1.10875,1.36113 2.12584,2.62942 2.2602,2.81842 0.26917,0.37865 1.07277,0.15042 4.97619,-1.41326 z m 69.48232,-1.45066 c 6.4911,-8.13692 10.4944,-16.91369 12.20198,-26.75146 0.27678,-1.5946 0.45488,-2.97753 0.39578,-3.07316 -0.0591,-0.0956 -0.85451,-0.31997 -1.76756,-0.49851 -0.91304,-0.17855 -3.25783,-0.84946 -5.21064,-1.4909 -1.9528,-0.64145 -3.63234,-1.16627 -3.73231,-1.16627 -0.1,0 -0.26019,0.84379 -0.35604,1.8751 -0.54069,5.81755 -3.04573,13.09598 -6.43316,18.69166 l -1.31862,2.17821 -2.88799,-1.64912 c -1.5884,-0.90702 -3.84049,-2.36313 -5.00466,-3.23581 -2.08348,-1.5618 -6.51307,-5.76779 -7.89933,-7.50059 l -0.70829,-0.88535 -2.44307,2.50029 c -1.34368,1.37515 -3.14508,3.10734 -4.0031,3.84931 l -1.56003,1.34903 0.47422,0.72375 c 0.90675,1.38388 6.4023,6.61503 9.02444,8.59026 2.91221,2.19373 6.50192,4.47929 9.11684,5.80465 1.28574,0.65168 9.04934,3.89879 9.44013,3.94833 0.0356,0.005 1.23773,-1.46223 2.67141,-3.25942 z m -34.48614,-19.18149 c 11.67297,-9.209 19.52055,-22.94565 21.43,-37.51172 0.84547,-6.4496 0.40911,-14.80325 -1.09592,-20.98041 -1.03578,-4.25123 -3.78481,-11.70243 -4.29606,-11.64444 -0.0897,0.0102 -0.96614,1.11149 -1.94774,2.44739 -0.9816,1.3359 -2.73056,3.45217 -3.88659,4.70281 l -2.10186,2.2739 0.64705,2.09173 c 2.25982,7.30521 2.58207,16.26232 0.85582,23.78755 -2.0609,8.98403 -6.52871,16.74504 -13.39368,23.2661 l -1.65307,1.57026 -1.6027,-1.57026 c -5.69132,-5.57615 -9.7864,-12.10222 -12.14685,-19.35767 -1.59514,-4.90309 -2.15192,-8.54991 -2.15192,-14.09488 0,-5.15999 0.5021,-8.78908 1.83257,-13.24541 l 0.75529,-2.52978 -2.06926,-2.23272 c -1.1381,-1.228 -2.93073,-3.39293 -3.98363,-4.81097 l -1.91436,-2.57824 -0.88738,1.91678 c -0.48805,1.05424 -1.40542,3.46461 -2.0386,5.35638 -6.17457,18.44815 -2.56465,38.58443 9.67635,53.975 3.1674,3.98236 7.67054,8.14226 12.54644,11.59011 l 2.0989,1.48417 1.73756,-1.22227 c 0.95566,-0.67225 2.571,-1.87979 3.58964,-2.68341 z m 28.69659,-2.52707 c 1.47866,-3.7223 2.81812,-10.24653 2.60911,-12.70843 -0.0814,-0.95913 -0.18449,-1.05684 -2.54495,-2.41269 -1.35304,-0.7772 -3.33296,-2.00793 -4.39982,-2.73497 l -1.93974,-1.32188 -1.99796,4.01926 c -1.09888,2.21059 -2.77052,5.20591 -3.71475,6.65626 -1.20817,1.85573 -1.65211,2.75719 -1.49847,3.0427 0.12008,0.22315 1.1129,1.41775 2.20626,2.65468 2.09822,2.37372 4.73528,4.6937 7.42296,6.53043 l 1.61911,1.10648 0.72482,-1.42332 c 0.39865,-0.78282 1.0797,-2.31666 1.51343,-3.40852 z m -60.29501,2.97798 c 1.22632,-0.89391 3.40621,-2.79716 4.84421,-4.22946 2.56391,-2.55376 2.60615,-2.61578 2.18189,-3.20336 -2.43783,-3.37629 -5.03774,-7.6036 -6.54078,-10.63498 -1.00514,-2.02719 -1.82752,-3.85281 -1.82752,-4.05695 0,-0.47424 0.12172,-0.53838 -3.37344,1.77748 l -2.97656,1.97223 v 1.14705 c 0,3.30176 0.93675,8.73623 2.15522,12.50327 0.79841,2.46839 2.6296,6.35 2.99567,6.35 0.1714,0 1.31499,-0.73138 2.54131,-1.62528 z m -33.039,-15.1716 c 10.22537,-1.19613 19.90296,-4.93373 27.65266,-10.67978 l 2.15026,-1.59432 -0.39292,-1.27336 c -0.63511,-2.05827 -1.65666,-7.19092 -1.84511,-9.27057 -0.0959,-1.05857 -0.24729,-1.92375 -0.33636,-1.92261 -0.0891,0.001 -1.00804,0.75493 -2.04217,1.67509 -6.26511,5.57467 -12.62003,8.93146 -20.78127,10.97706 l -2.02401,0.50731 -0.67408,-2.41357 c -2.19243,-7.85007 -2.45846,-15.19597 -0.82893,-22.8895 0.35416,-1.67211 0.59823,-3.0859 0.54236,-3.14177 -0.0559,-0.0559 -1.51161,0.25328 -3.235,0.68697 -1.72338,0.4337 -4.30452,0.94569 -5.73585,1.13775 -1.78975,0.24016 -2.66894,0.47509 -2.81541,0.75234 -0.95885,1.81493 -1.23845,13.69675 -0.43908,18.65938 0.9795,6.08098 2.56421,11.29898 5.07328,16.70493 1.3264,2.85782 0.78995,2.6627 5.73163,2.08465 z m 123.96856,-2.38541 c 3.28053,-7.28994 4.78221,-13.15725 5.36536,-20.96343 0.29669,-3.97149 0.0218,-9.75589 -0.61282,-12.89345 l -0.31909,-1.5777 -2.91042,-0.47631 c -1.60073,-0.26196 -4.26427,-0.83736 -5.91899,-1.27865 -1.65471,-0.44129 -3.0424,-0.76714 -3.08375,-0.72412 -0.0414,0.043 0.14971,0.97121 0.42459,2.06262 1.03145,4.09531 1.37172,7.53058 1.23175,12.43541 -0.13735,4.81303 -0.50165,7.2956 -1.69864,11.57552 -0.45972,1.64377 -0.81018,2.4474 -1.0673,2.4474 -0.21056,0 -1.31707,-0.23853 -2.45891,-0.53007 -7.08931,-1.81006 -13.90612,-5.38216 -19.34463,-10.13684 l -2.28031,-1.99358 -0.43969,2.95681 c -0.24183,1.62624 -0.79859,4.41726 -1.23725,6.20226 -0.43866,1.78501 -0.72666,3.36017 -0.64002,3.50037 0.0867,0.1402 1.59447,1.21541 3.35072,2.38936 5.77609,3.86098 12.63155,6.80277 19.38015,8.31636 3.35003,0.75135 8.42153,1.44694 10.04419,1.37763 l 1.02441,-0.0438 z m -60.49474,-5.11949 c 6.73108,-10.01016 8.71203,-22.08655 5.5495,-33.83128 l -0.29718,-1.10365 -3.49957,2.53934 c -1.92476,1.39664 -4.03365,2.92725 -4.68643,3.40135 l -1.18686,0.862 -1.19439,-0.86087 c -0.65691,-0.47348 -2.77629,-2.00927 -4.70974,-3.41288 -2.12189,-1.54041 -3.55601,-2.42228 -3.61792,-2.22473 -1.25096,3.99165 -1.58675,6.5429 -1.57532,11.96896 0.0114,5.42675 0.39404,8.01262 1.8418,12.44771 1.74997,5.36089 4.91915,10.89682 8.29732,14.49376 l 0.95073,1.0123 1.1434,-1.27688 c 0.62887,-0.70229 1.97197,-2.5091 2.98466,-4.01513 z m -55.70201,-10.72321 c 5.79598,-1.99019 11.33477,-5.5567 15.7577,-10.14662 3.30122,-3.42587 3.57621,-3.92902 3.78545,-6.92623 0.52009,-7.45008 2.77687,-15.61759 6.24079,-22.58607 l 1.34889,-2.7136 -0.72081,-1.28966 -0.7208,-1.28967 -0.55239,0.76338 c -5.23863,7.23964 -13.73871,14.30123 -22.28158,18.51083 l -2.94377,1.45059 -0.57954,1.58944 c -2.46647,6.76453 -3.0465,14.76607 -1.58589,21.8777 0.15691,0.76399 0.31553,1.38907 0.35248,1.38907 0.037,0 0.89172,-0.28312 1.89947,-0.62916 z m 104.86813,-1.02449 c 1.31008,-7.17911 0.84917,-14.07237 -1.39256,-20.82718 l -0.83704,-2.52216 -3.36837,-1.77353 c -4.10696,-2.16242 -7.20306,-4.17988 -10.52184,-6.85616 -2.95089,-2.37962 -8.05837,-7.54736 -9.97554,-10.09324 l -1.34755,-1.78946 -0.68866,1.17511 c -0.37877,0.64632 -0.68866,1.24409 -0.68866,1.3284 0,0.0843 0.64338,1.49185 1.42973,3.12788 3.53564,7.35604 5.55285,15.02683 6.1387,23.34343 l 0.18609,2.64173 3.46493,3.46714 c 3.74567,3.74806 6.65305,5.8689 10.87326,7.93166 2.03841,0.99634 5.71159,2.45851 6.25558,2.49013 0.0936,0.005 0.30596,-0.73424 0.47193,-1.64375 z m -47.60564,-26.67581 c 2.551,-2.01904 7.75484,-7.2631 9.56433,-9.63825 6.2749,-8.23648 10.26982,-17.91323 11.63296,-28.17813 0.46936,-3.53439 0.39296,-11.37338 -0.14568,-14.94897 -1.95453,-12.974404 -7.99161,-24.655764 -17.34023,-33.552194 -2.36242,-2.24815 -8.87553,-7.32032 -9.39992,-7.32032 -0.7129,0 -7.49422,5.47549 -10.4608,8.44642 -8.95653,8.96969 -14.35275,19.71585 -16.28288,32.426094 -0.54126,3.5643 -0.61552,11.38159 -0.142,14.94897 2.19338,16.5245 10.64702,30.3956 24.63252,40.41811 l 2.24476,1.60868 1.72399,-1.21522 c 0.9482,-0.66836 2.73602,-2.0162 3.97295,-2.99519 z m -7.96255,-11.96877 c -7.22775,-7.07273 -11.89698,-16.21728 -13.35417,-26.15375 -0.6477,-4.41658 -0.41452,-11.94545 0.49858,-16.09804 1.9357,-8.803204 5.89045,-16.154294 12.21794,-22.710714 l 2.90918,-3.01443 2.91166,3.02211 c 6.35802,6.59921 10.29849,13.92258 12.21577,22.703034 0.91572,4.19373 1.1533,11.75339 0.50307,16.00786 -1.61941,10.59578 -6.70474,20.29512 -14.19787,27.07983 l -1.48026,1.34031 z m 5.96402,-9.18178 c 8.57964,-11.91606 9.88705,-28.29578 3.32066,-41.602404 -2.00938,-4.07196 -6.12367,-9.85615 -7.01067,-9.85615 -0.89118,0 -5.30973,6.21199 -7.13113,10.02558 -7.06728,14.797194 -4.79117,32.014984 5.894,44.585484 l 1.21535,1.42979 1.13471,-1.28951 c 0.62409,-0.70923 1.78378,-2.19099 2.57708,-3.29279 z m -70.10043,23.85124 c 10.86803,-2.08182 19.66831,-6.28501 27.70334,-13.23169 3.13188,-2.70766 7.23848,-7.24509 9.2919,-10.26669 l 1.22673,-1.80515 -1.03845,-3.22697 c -1.19505,-3.71361 -2.29482,-8.86734 -2.5531,-11.96435 -0.0981,-1.17639 -0.25095,-2.13889 -0.33965,-2.13889 -0.0887,0 -0.43867,0.80367 -0.77771,1.78594 -4.11164,11.91238 -14.07229,22.33007 -25.84014,27.02583 -5.696,2.27289 -10.06115,3.16508 -16.59175,3.39118 l -4.42091,0.15305 -0.077,-2.35352 c -0.63098,-19.28426 10.69602,-36.75563 28.57198,-44.07094 5.09745,-2.08601 11.83048,-3.39405 17.47057,-3.39405 h 2.83309 l 0.7519,-2.976567 c 0.41355,-1.637097 1.15,-4.044817 1.63657,-5.350467 0.48657,-1.30565 0.82208,-2.43675 0.74558,-2.51354 -0.29215,-0.2933 -9.84415,-0.30206 -12.38275,-0.0114 -17.79393,2.0376 -33.92503,12.460134 -42.93473,27.740784 -5.50394,9.3348 -8.3948,20.76066 -7.92282,31.31423 0.16532,3.69661 1.10268,10.75818 1.47958,11.14641 0.17995,0.18537 4.56797,0.97336 7.42506,1.33339 0.50933,0.0642 3.60495,0.0839 6.87917,0.0438 4.72851,-0.0579 6.55183,-0.1876 8.86354,-0.63042 z m 152.75628,-0.002 c 1.65116,-0.28929 3.07135,-0.59524 3.15599,-0.67988 0.28881,-0.28881 1.12032,-6.0936 1.37308,-9.58554 0.28075,-3.87847 -2.7e-4,-9.56006 -0.66131,-13.36998 -3.19015,-18.38673 -15.03636,-34.07461 -31.7407,-42.034034 -8.29422,-3.9521 -16.33138,-5.66682 -25.74714,-5.49311 -2.62308,0.0484 -4.8344,0.1534 -4.91406,0.23335 -0.0797,0.0799 0.25452,1.21105 0.7426,2.51354 0.48809,1.30249 1.22282,3.69069 1.63273,5.307097 l 0.74529,2.938927 4.113,0.15449 c 9.79425,0.36787 17.93237,3.08391 25.54424,8.52521 12.19049,8.71428 19.15466,22.38015 19.17713,37.63152 l 0.005,3.50573 -3.24114,-0.005 c -12.31484,-0.0196 -23.45429,-4.44699 -32.09935,-12.75786 -4.9525,-4.76105 -8.64427,-10.15342 -10.91591,-15.94427 -1.59878,-4.07559 -1.46327,-3.83413 -1.55909,-2.77813 -0.38698,4.26458 -1.57195,9.85622 -3.01405,14.2227 l -0.80874,2.44874 1.25637,1.76064 c 4.2282,5.92529 9.35302,10.87647 15.30489,14.7863 7.41343,4.86994 15.55769,7.8782 24.62598,9.09613 3.13724,0.42135 13.56678,0.1295 17.02503,-0.47641 z M 275.37419,146.49092 c 10.76806,-2.33299 20.39628,-8.96209 26.10464,-17.97324 3.2041,-5.05796 5.7171,-12.11663 6.14802,-17.26894 0.088,-1.05235 0.21947,-2.30032 0.29212,-2.77326 l 0.13208,-0.85989 h -1.2348 c -2.05702,0 -6.57504,0.76986 -9.44293,1.60905 -3.4343,1.00495 -8.89054,3.66675 -11.96812,5.83862 -1.30969,0.92425 -3.69645,2.99015 -5.30391,4.59088 -5.25863,5.2366 -8.89894,11.57935 -10.70229,18.64729 -0.53762,2.10713 -1.30738,7.0367 -1.31884,8.44597 l -0.005,0.63494 2.36831,-0.16811 c 1.30257,-0.0925 3.52147,-0.41795 4.93089,-0.72331 z m 142.41372,-1.57446 c -0.40636,-5.08601 -1.74139,-9.7567 -4.19571,-14.67899 -4.0113,-8.04489 -10.38622,-14.41551 -18.38491,-18.3725 -4.90687,-2.42746 -9.81305,-3.81382 -14.73235,-4.163 l -2.40334,-0.1706 0.18948,2.09264 c 1.51322,16.71201 12.44515,30.58291 28.1643,35.73606 3.16781,1.03849 7.57902,1.88983 9.95715,1.92166 l 1.59607,0.0214 z M 248.64105,134.73539 c 0.78003,-3.45169 2.04374,-7.3522 3.34312,-10.31875 0.8864,-2.0237 1.07939,-2.80515 1.28529,-5.20438 0.56349,-6.56581 2.61381,-13.15473 5.85751,-18.82369 4.1111,-7.184904 11.01186,-13.949804 17.97862,-17.624674 0.95712,-0.50487 1.40384,-0.98611 2.08765,-2.24896 2.07172,-3.82602 5.60851,-8.80919 8.36693,-11.78861 0.8189,-0.88451 1.43121,-1.66588 1.36069,-1.7364 -0.0705,-0.0705 -1.72382,0.2754 -3.67402,0.7687 -18.23882,4.61346 -32.69884,17.39557 -39.53619,34.948474 -3.78603,9.71955 -4.71346,19.84313 -2.86703,31.29582 0.43542,2.70077 0.43837,2.70745 1.25839,2.85402 0.45207,0.0808 1.35772,0.24979 2.01257,0.37553 0.65484,0.12575 1.35665,0.21066 1.55958,0.18869 0.24234,-0.0262 0.57418,-0.948 0.96689,-2.68577 z m 191.91463,2.38648 c 1.22173,-0.215 2.24911,-0.4232 2.28308,-0.46266 0.034,-0.0395 0.24938,-1.20283 0.47868,-2.58528 1.87569,-11.30838 0.92543,-21.65112 -2.88879,-31.44212 -6.80507,-17.468374 -21.30129,-30.268084 -39.49081,-34.869174 -1.94142,-0.49109 -3.64772,-0.89288 -3.79177,-0.89288 -0.14405,0 0.55627,0.92273 1.55626,2.05052 3.24878,3.66395 5.4876,6.79222 7.78499,10.87781 1.17326,2.08648 1.35643,2.27665 3.21102,3.33368 4.0385,2.30175 7.06627,4.67203 10.53759,8.2493 7.34015,7.564177 11.75938,17.304214 12.64796,27.876194 0.19617,2.33401 0.40551,3.19116 1.30948,5.36179 1.37334,3.29766 2.47253,6.7496 3.24238,10.18248 0.33449,1.49159 0.67352,2.71182 0.7534,2.71162 0.0799,-2e-4 1.14481,-0.17627 2.36653,-0.39128 z M 265.07325,104.96975 c 1.63816,-1.67349 4.04123,-3.87614 5.34017,-4.89479 l 2.3617,-1.852087 0.5892,-2.489817 c 0.32406,-1.36941 0.81466,-3.14512 1.09021,-3.94602 0.27555,-0.80091 0.44464,-1.51255 0.37577,-1.58142 -0.22374,-0.22374 -3.83665,2.89837 -5.80173,5.01359 -2.50212,2.69328 -4.61627,5.653514 -6.2388,8.735554 -1.17269,2.22753 -2.66076,5.73906 -2.6471,6.24656 0.003,0.10582 0.44324,-0.34338 0.97865,-0.99823 0.5354,-0.65485 2.31377,-2.55985 3.95193,-4.23334 z m 160.34364,3.40713 c -1.83986,-4.88763 -4.98773,-9.783397 -8.8789,-13.809004 -1.61272,-1.66845 -5.01322,-4.55085 -5.17317,-4.385 -0.0544,0.0564 0.29664,1.59078 0.78003,3.40979 0.48339,1.81901 0.94466,3.60495 1.02503,3.96875 0.0927,0.41964 0.92763,1.276727 2.28382,2.344437 2.92547,2.303187 6.19208,5.434247 8.47535,8.123657 1.04999,1.23676 1.95721,2.20052 2.01604,2.14168 0.0588,-0.0588 -0.17886,-0.86628 -0.5282,-1.79431 z m -136.02614,-18.630734 3.82002,-1.26264 0.95153,-1.7015 c 1.60867,-2.87657 4.66081,-6.67606 7.82394,-9.73972 8.62174,-8.3506 19.87013,-12.81837 32.27249,-12.81837 h 3.1858 l 2.75504,-1.98437 c 1.51527,-1.09141 2.81343,-1.98438 2.8848,-1.98438 0.0714,0 1.36953,0.89297 2.8848,1.98438 l 2.75503,1.98437 h 2.9452 c 16.86306,0 31.87139,8.3881 40.25373,22.49767 l 1.0634,1.78997 2.96246,0.95797 c 3.24282,1.04864 8.25522,3.15669 10.16005,4.273 l 1.21061,0.70946 -0.19027,-0.76039 c -0.42052,-1.68057 -2.13721,-5.95613 -3.53781,-8.81119 -8.57494,-17.47975 -25.6152,-29.34309 -45.26455,-31.51294 -2.07784,-0.22946 -4.54481,-0.26786 -8.18262,-0.12739 -6.40957,0.24751 -7.53693,0.24751 -14.34567,-8e-5 -3.73559,-0.13584 -6.29872,-0.0983 -8.20209,0.12007 -21.38307,2.45336 -39.51474,16.40743 -47.19106,36.31807 -0.6337,1.64367 -1.23001,3.34819 -1.32514,3.78782 l -0.17297,0.79932 3.33164,-1.62825 c 1.83239,-0.89554 5.05064,-2.19643 7.15164,-2.89088 z m 14.66758,-3.05546 c 3.13887,-0.29726 9.97787,-0.19448 12.60614,0.18943 0.94976,0.13874 1.11989,0.0874 1.26925,-0.38321 0.32757,-1.03209 3.46124,-6.0161 5.43873,-8.65016 1.09116,-1.45344 3.28006,-3.98207 4.86422,-5.61918 3.3081,-3.41866 3.38373,-3.29197 -1.46975,-2.46222 -10.15154,1.73549 -19.34916,7.30518 -25.70613,15.56653 -1.35583,1.76201 -1.46343,2.01391 -0.77278,1.80923 0.25466,-0.0755 1.95131,-0.27816 3.77032,-0.45042 z m 82.0483,0.089 c -0.68059,-1.23225 -3.98914,-5.02638 -5.87611,-6.73852 -6.6639,-6.04648 -14.75445,-9.7165 -23.52011,-10.66915 l -1.71979,-0.18691 2.91087,3.00953 c 1.60098,1.65524 3.77288,4.15795 4.82645,5.56159 1.92635,2.5664 5.18667,7.73119 5.49637,8.70699 0.15517,0.48888 0.31159,0.51044 2.32986,0.32105 2.89403,-0.27157 11.82091,-0.18252 13.8052,0.13771 0.87312,0.14091 1.68098,0.27072 1.79524,0.28846 0.11427,0.0177 0.0927,-0.17609 -0.048,-0.43075 z m -118.6869,-17.01907 c 6.96362,-4.24589 15.74015,-7.16144 24.99693,-8.30397 2.28651,-0.28221 3.51145,-0.55808 3.96875,-0.89381 7.83615,-5.75286 17.31655,-9.87516 26.32604,-11.44718 1.68305,-0.29367 1.77964,-0.34333 1.05833,-0.54409 -1.74411,-0.48545 -5.48187,-1.01899 -8.98518,-1.28259 -7.6409,-0.57491 -16.54778,0.74664 -23.87342,3.54221 -2.65131,1.01178 -7.12843,3.17488 -7.77577,3.75683 -0.22974,0.20653 -0.54189,0.37552 -0.69366,0.37552 -0.38289,0 -4.0059,2.38969 -6.5558,4.32414 -2.77721,2.10688 -7.81945,7.14982 -9.88024,9.88159 -0.89919,1.19196 -1.63488,2.24745 -1.63488,2.34553 0,0.0981 0.32742,-0.0378 0.7276,-0.30206 0.40018,-0.26423 1.44477,-0.91768 2.3213,-1.45212 z m 152.68644,-0.61571 c -8.73507,-11.18652 -21.42136,-18.76747 -35.45203,-21.18508 -6.01565,-1.03655 -13.26767,-1.03697 -19.21248,-10e-4 -4.09336,0.71326 -4.15388,0.76839 -1.3979,1.27337 7.96957,1.46029 15.82824,4.71974 23.12828,9.59267 l 3.34184,2.23075 3.17418,0.39297 c 9.80725,1.21416 18.31155,4.11374 25.86089,8.8174 1.16417,0.72534 2.16068,1.27557 2.21448,1.22272 0.0538,-0.0529 -0.69197,-1.10751 -1.65726,-2.34371 z m -72.42467,-21.22594 0.82683,-0.16536 v -1.78435 c 0,-3.53147 -1.32261,-9.4765 -3.75307,-16.86975 -1.44129,-4.38427 -1.67692,-4.90387 -2.55533,-5.63486 -1.84942,-1.53905 -5.97497,-3.14178 -7.03756,-2.73403 -0.57033,0.21886 -0.54026,2.29054 0.11669,8.03949 0.68466,5.99145 2.39883,16.49129 3.07759,18.85121 0.1196,0.41583 0.55945,0.46302 4.3156,0.46302 2.30034,0 4.5545,-0.0744 5.00925,-0.16537 z"
       id="path2" /></g></svg>
