<?xml version="1.0" encoding="UTF-8" standalone="no"?>
<!-- Created with Inkscape (http://www.inkscape.org/) -->

<svg
   width="250mm"
   height="100mm"
   viewBox="0 0 250 100"
   version="1.1"
   id="svg1538"
   xml:space="preserve"
   inkscape:version="1.2.2 (b0a8486541, 2022-12-01)"
   sodipodi:docname="logo.svg"
   inkscape:export-filename="logo.png"
   inkscape:export-xdpi="300"
   inkscape:export-ydpi="300"
   xmlns:inkscape="http://www.inkscape.org/namespaces/inkscape"
   xmlns:sodipodi="http://sodipodi.sourceforge.net/DTD/sodipodi-0.dtd"
   xmlns="http://www.w3.org/2000/svg"
   xmlns:svg="http://www.w3.org/2000/svg"><sodipodi:namedview
     id="namedview1540"
     pagecolor="#505050"
     bordercolor="#eeeeee"
     borderopacity="1"
     inkscape:showpageshadow="0"
     inkscape:pageopacity="0"
     inkscape:pagecheckerboard="0"
     inkscape:deskcolor="#505050"
     inkscape:document-units="mm"
     showgrid="false"
     inkscape:zoom="1.0267829"
     inkscape:cx="450.92298"
     inkscape:cy="227.89628"
     inkscape:window-width="1920"
     inkscape:window-height="1014"
     inkscape:window-x="0"
     inkscape:window-y="0"
     inkscape:window-maximized="1"
     inkscape:current-layer="layer1" /><defs
     id="defs1535"><style
       id="style1">.cls-1{fill:#fff;stroke:#194b24;stroke-miterlimit:10;stroke-width:20px;}</style></defs><g
     inkscape:label="Layer 1"
     inkscape:groupmode="layer"
     id="layer1"
     transform="translate(8.0420351,-80.255424)"><rect
       style="fill:#5e81ac;fill-opacity:1;stroke:#2e3440;stroke-width:0.674867;stroke-dasharray:none;stroke-opacity:1"
       id="rect5560"
       width="249.32513"
       height="99.325134"
       x="-7.7046013"
       y="80.592857" /><rect
       style="fill:#81a1c1;fill-opacity:1;stroke:#2e3440;stroke-width:0.654261;stroke-dasharray:none;stroke-opacity:1"
       id="rect7063"
       width="245"
       height="95"
       x="-5.5420351"
       y="82.755424" /><rect
       style="fill:#88c0d0;fill-opacity:1;stroke:#2e3440;stroke-width:0.630279;stroke-dasharray:none;stroke-opacity:1"
       id="rect7061"
       width="240"
       height="90"
       x="-3.0420351"
       y="85.255424" /><rect
       style="fill:#2e3440;fill-opacity:1;stroke:#2e3440;stroke-width:0.606;stroke-dasharray:none;stroke-opacity:1"
       id="rect8169"
       width="235"
       height="85"
       x="-0.5420351"
       y="87.755424" /><g
       id="g4399"
       transform="translate(0.2645895)"><path
         d="m 49.515333,141.37921 q 0,1.34359 -0.585667,2.32544 -0.568441,0.98185 -1.619196,1.73978 -1.050755,0.74069 -3.514,1.70532 l 7.269157,6.61459 q 1.670872,-3.41065 1.774225,-6.25285 l -2.446019,-0.46509 v -0.91295 h 7.872048 v 0.91295 l -2.394343,0.46509 q -1.309137,4.56475 -3.35897,7.59644 l 3.927411,3.5829 2.842206,0.43063 v 0.91296 h -5.925568 l -2.945559,-2.66996 q -1.791451,1.60198 -3.755156,2.30822 -1.946481,0.70625 -4.271922,0.70625 -4.271921,0 -6.425107,-1.65365 -2.135961,-1.67087 -2.135961,-4.82314 0,-1.67087 0.620118,-2.87666 0.620118,-1.20578 1.688098,-2.04983 1.06798,-0.86127 3.376196,-1.73977 -2.601049,-2.51492 -2.601049,-5.63274 0,-2.46324 1.653647,-3.73793 1.653647,-1.29191 4.788686,-1.29191 2.997235,0 4.58198,1.22301 1.584745,1.22301 1.584745,3.5829 z m -6.666264,17.51832 q 3.737931,0 6.37343,-2.6355 l -8.595519,-7.87204 q -1.808676,0.77514 -2.618274,2.1015 -0.809598,1.32637 -0.809598,3.22117 0,2.4977 1.446941,3.84129 1.464167,1.34358 4.20302,1.34358 z m -2.893883,-17.6389 q 0,2.80776 2.652726,4.80591 1.670872,-0.62011 2.394343,-1.20578 0.740696,-0.60289 1.102431,-1.46417 0.378961,-0.86127 0.378961,-2.13596 0,-3.30729 -3.135039,-3.30729 -1.808677,0 -2.601049,0.82682 -0.792373,0.82683 -0.792373,2.48047 z"
         style="font-style:normal;font-size:35.2778px;font-family:'Liberation Serif';-inkscape-font-specification:'Liberation Serif, Normal';text-align:center;text-anchor:middle;fill:#d8dee9;fill-opacity:1;stroke:#2e3440;stroke-width:0.662;stroke-dasharray:none;stroke-opacity:1"
         id="path1801" /><path
         d="m 80.562929,159.12146 v 0.91296 h -7.596441 v -0.91296 l 2.618274,-0.46508 7.872049,-21.91083 h 3.272843 l 8.182088,21.91083 2.928315,0.46508 v 0.91296 h -9.766815 v -0.91296 l 3.100588,-0.46508 -2.29099,-6.66627 h -9.095058 l -2.325441,6.66627 z m 3.70348,-19.89544 -3.961863,11.2138 h 8.044304 z"
         style="font-style:normal;font-size:35.2778px;font-family:'Liberation Serif';-inkscape-font-specification:'Liberation Serif, Normal';text-align:center;text-anchor:middle;fill:#d8dee9;fill-opacity:1;stroke:#2e3440;stroke-width:0.662;stroke-dasharray:none;stroke-opacity:1"
         id="path1803" /><g
         id="g4390"><path
           d="m 117.84611,138.29585 -2.96278,-0.44786 v -0.91296 h 8.88835 v 0.91296 l -2.61827,0.44786 V 152.593 q 0,2.30822 -0.70625,4.04799 -0.70624,1.72255 -2.15318,2.73886 -1.42972,0.99908 -3.20394,0.99908 -2.20487,0 -3.56568,-0.51677 v -4.20302 h 1.13688 l 0.51677,2.39434 q 0.32728,0.39619 0.93017,0.62012 0.6029,0.22393 1.32637,0.22393 2.41156,0 2.41156,-3.27284 z"
           style="font-style:normal;font-size:35.2778px;font-family:'Liberation Serif';-inkscape-font-specification:'Liberation Serif, Normal';text-align:center;text-anchor:middle;fill:#d8dee9;fill-opacity:1;stroke:#2e3440;stroke-width:0.662;stroke-dasharray:none;stroke-opacity:1"
           id="path1805" /><path
           d="m 144.47672,138.29585 -3.10059,-0.44786 v -0.91296 h 7.87205 v 0.91296 l -2.96278,0.44786 v 13.79762 q 0,4.15134 -2.29099,6.2184 -2.27377,2.06706 -6.61459,2.06706 -4.59921,0 -6.8902,-2.06706 -2.27376,-2.08429 -2.27376,-5.89112 v -14.1249 l -2.96279,-0.44786 v -0.91296 h 9.23287 v 0.91296 l -2.96279,0.44786 v 13.86652 q 0,6.2873 6.11505,6.2873 3.30729,0 5.06429,-1.56752 1.77423,-1.56752 1.77423,-4.65088 z"
           style="font-style:normal;font-size:35.2778px;font-family:'Liberation Serif';-inkscape-font-specification:'Liberation Serif, Normal';text-align:center;text-anchor:middle;fill:#d8dee9;fill-opacity:1;stroke:#2e3440;stroke-width:0.662;stroke-dasharray:none;stroke-opacity:1"
           id="path1807" /><path
           d="m 164.83725,160.03442 h -0.60289 l -8.45772,-19.86099 v 18.48295 l 3.10059,0.46508 v 0.91296 h -7.87205 v -0.91296 l 2.96279,-0.46508 v -20.36053 l -2.96279,-0.44786 v -0.91296 h 6.99355 l 7.51031,17.57 8.19934,-17.57 h 6.61459 v 0.91296 l -2.96279,0.44786 v 20.36053 l 2.96279,0.46508 v 0.91296 h -9.37067 v -0.91296 l 3.10059,-0.46508 v -18.48295 z"
           style="font-style:normal;font-size:35.2778px;font-family:'Liberation Serif';-inkscape-font-specification:'Liberation Serif, Normal';text-align:center;text-anchor:middle;fill:#d8dee9;fill-opacity:1;stroke:#2e3440;stroke-width:0.662;stroke-dasharray:none;stroke-opacity:1"
           id="path1809" /><path
           d="m 196.13596,143.77355 q 0,-2.8422 -1.32636,-4.06521 -1.32636,-1.22301 -4.4614,-1.22301 h -1.6881 v 10.93818 h 1.79145 q 2.91111,0 4.28915,-1.32636 1.39526,-1.32636 1.39526,-4.3236 z m -7.47586,7.20026 v 7.68257 l 3.66903,0.46508 v 0.91296 h -9.7324 v -0.91296 l 2.73885,-0.46508 v -20.36053 l -2.96278,-0.44786 v -0.91296 h 8.7161 q 8.47494,0 8.47494,6.80407 0,3.54845 -2.15319,5.39158 -2.13596,1.84313 -6.1495,1.84313 z"
           style="font-style:normal;font-size:35.2778px;font-family:'Liberation Serif';-inkscape-font-specification:'Liberation Serif, Normal';text-align:center;text-anchor:middle;fill:#d8dee9;fill-opacity:1;stroke:#2e3440;stroke-width:0.662;stroke-dasharray:none;stroke-opacity:1"
           id="path1811" /></g></g><g
       id="g4440"><path
         d="m 26.825592,122.96171 v 0.91295 h -7.596441 v -0.91295 l 2.618274,-0.46509 7.872049,-21.91082 h 3.272843 l 8.182107,21.91082 2.928333,0.46509 v 0.91295 h -9.766852 v -0.91295 l 3.100588,-0.46509 -2.29099,-6.66626 h -9.095058 l -2.325441,6.66626 z m 3.70348,-19.89544 -3.961863,11.2138 h 8.044304 z"
         style="font-style:normal;font-size:35.2778px;font-family:'Liberation Serif';-inkscape-font-specification:'Liberation Serif, Normal';text-align:center;text-anchor:middle;fill:#d8dee9;fill-opacity:1;stroke:#2e3440;stroke-width:0.662;stroke-dasharray:none;stroke-opacity:1"
         id="path1781" /><path
         d="m 52.250413,123.87466 v -0.91295 l 2.962784,-0.46509 V 102.1361 l -2.962784,-0.44787 v -0.91295 h 9.250088 v 0.91295 l -2.962784,0.44787 v 9.07783 H 69.407 v -9.07783 l -2.962784,-0.44787 v -0.91295 h 9.232862 v 0.91295 l -2.962784,0.44787 v 20.36052 l 2.962784,0.46509 v 0.91295 h -9.232862 v -0.91295 L 69.407,122.49662 v -9.7324 H 58.537717 v 9.7324 l 2.962784,0.46509 v 0.91295 z"
         style="font-style:normal;font-size:35.2778px;font-family:'Liberation Serif';-inkscape-font-specification:'Liberation Serif, Normal';text-align:center;text-anchor:middle;fill:#a3be8c;fill-opacity:1;stroke:#2e3440;stroke-width:0.662;stroke-dasharray:none;stroke-opacity:1"
         id="path1783" /><path
         d="m 116.96657,107.6138 q 0,-2.8422 -1.32636,-4.06521 -1.32636,-1.22301 -4.4614,-1.22301 h -1.6881 v 10.93818 h 1.79145 q 2.91111,0 4.28915,-1.32636 1.39526,-1.32636 1.39526,-4.3236 z m -7.47586,7.20026 v 7.68256 l 3.66903,0.46509 v 0.91295 h -9.7324 v -0.91295 l 2.73885,-0.46509 V 102.1361 l -2.96279,-0.44787 v -0.91295 h 8.7161 q 8.47494,0 8.47494,6.80407 0,3.54845 -2.15318,5.39158 -2.13596,1.84313 -6.1495,1.84313 z"
         style="font-style:normal;font-size:35.2778px;font-family:'Liberation Serif';-inkscape-font-specification:'Liberation Serif, Normal';text-align:center;text-anchor:middle;fill:#a3be8c;fill-opacity:1;stroke:#2e3440;stroke-width:0.662;stroke-dasharray:none;stroke-opacity:1"
         id="path1787" /><path
         d="m 124.49411,123.03061 q 0,2.3599 -1.37804,3.94464 -1.36081,1.60197 -3.87573,2.32544 v -1.32636 q 3.03168,-0.96463 3.03168,-2.89388 0,-0.34451 -0.25838,-0.62012 -0.25838,-0.27561 -0.89572,-0.60289 -1.17134,-0.60289 -1.17134,-1.70533 0,-0.93017 0.58567,-1.41249 0.58567,-0.49953 1.49862,-0.49953 1.10243,0 1.77422,0.79237 0.68902,0.79237 0.68902,1.99815 z"
         style="font-style:normal;font-size:35.2778px;font-family:'Liberation Serif';-inkscape-font-specification:'Liberation Serif, Normal';text-align:center;text-anchor:middle;fill:#d8dee9;fill-opacity:1;stroke:#2e3440;stroke-width:0.662;stroke-dasharray:none;stroke-opacity:1"
         id="path1789" /><path
         d="m 137.92999,117.65626 h 1.11966 l 0.60289,3.11782 q 0.63735,0.80959 2.18764,1.42971 1.56752,0.62012 3.08336,0.62012 2.41157,0 3.75516,-1.22301 1.36081,-1.24024 1.36081,-3.41065 0,-1.24023 -0.53399,-2.04983 -0.51676,-0.8096 -1.37804,-1.36081 -0.84405,-0.56845 -1.92925,-0.94741 -1.08521,-0.39618 -2.23932,-0.79237 -1.13688,-0.39619 -2.22208,-0.8785 -1.08521,-0.48231 -1.94648,-1.22301 -0.84405,-0.74069 -1.37804,-1.8259 -0.51677,-1.10243 -0.51677,-2.7044 0,-2.75608 2.06706,-4.3236 2.06706,-1.56752 5.73609,-1.56752 2.79053,0 6.06337,0.7407 v 4.80591 h -1.11966 l -0.60289,-2.82498 q -1.757,-1.27469 -4.34082,-1.27469 -2.30822,0 -3.61735,0.9474 -1.29192,0.93018 -1.29192,2.58383 0,1.11965 0.51677,1.86035 0.53399,0.7407 1.37804,1.27469 0.86127,0.51676 1.94648,0.89572 1.10243,0.37896 2.23931,0.79237 1.15411,0.39619 2.23932,0.91295 1.10243,0.49954 1.94648,1.29192 0.86127,0.77514 1.37804,1.91203 0.53399,1.11965 0.53399,2.7733 0,3.34174 -2.04984,5.18487 -2.04983,1.8259 -5.90834,1.8259 -1.86035,0 -3.73793,-0.32728 -1.87758,-0.32729 -3.34175,-0.89573 z"
         style="font-style:normal;font-size:35.2778px;font-family:'Liberation Serif';-inkscape-font-specification:'Liberation Serif, Normal';text-align:center;text-anchor:middle;fill:#d8dee9;fill-opacity:1;stroke:#2e3440;stroke-width:0.662;stroke-dasharray:none;stroke-opacity:1"
         id="path1791" /><path
         d="m 178.46157,100.77528 v 0.91295 l -2.66995,0.44787 -7.88927,7.71702 9.8702,12.6435 2.4977,0.46509 v 0.91295 h -5.64996 l -9.04338,-11.67888 -3.11782,2.4977 v 7.80314 l 3.3073,0.46509 v 0.91295 h -9.5946 v -0.91295 l 2.96278,-0.46509 V 102.1361 l -2.96278,-0.44787 v -0.91295 h 9.25009 v 0.91295 l -2.96279,0.44787 v 10.88651 l 11.05877,-10.88651 -2.29099,-0.44787 v -0.91295 z"
         style="font-style:normal;font-size:35.2778px;font-family:'Liberation Serif';-inkscape-font-specification:'Liberation Serif, Normal';text-align:center;text-anchor:middle;fill:#d8dee9;fill-opacity:1;stroke:#2e3440;stroke-width:0.662;stroke-dasharray:none;stroke-opacity:1"
         id="path1793" /><path
         d="m 188.17675,122.49662 2.96279,0.46509 v 0.91295 h -9.23287 v -0.91295 l 2.96279,-0.46509 V 102.1361 l -2.96279,-0.44787 v -0.91295 h 9.23287 v 0.91295 l -2.96279,0.44787 z"
         style="font-style:normal;font-size:35.2778px;font-family:'Liberation Serif';-inkscape-font-specification:'Liberation Serif, Normal';text-align:center;text-anchor:middle;fill:#d8dee9;fill-opacity:1;stroke:#2e3440;stroke-width:0.662;stroke-dasharray:none;stroke-opacity:1"
         id="path1795" /><path
         d="m 207.15923,107.6138 q 0,-2.8422 -1.32636,-4.06521 -1.32637,-1.22301 -4.46141,-1.22301 h -1.68809 v 10.93818 h 1.79145 q 2.91111,0 4.28914,-1.32636 1.39527,-1.32636 1.39527,-4.3236 z m -7.47586,7.20026 v 7.68256 l 3.66903,0.46509 v 0.91295 h -9.73241 v -0.91295 l 2.73886,-0.46509 V 102.1361 l -2.96279,-0.44787 v -0.91295 h 8.7161 q 8.47494,0 8.47494,6.80407 0,3.54845 -2.15318,5.39158 -2.13597,1.84313 -6.1495,1.84313 z"
         style="font-style:normal;font-size:35.2778px;font-family:'Liberation Serif';-inkscape-font-specification:'Liberation Serif, Normal';text-align:center;text-anchor:middle;fill:#d8dee9;fill-opacity:1;stroke:#2e3440;stroke-width:0.662;stroke-dasharray:none;stroke-opacity:1"
         id="path1797" /><path
         d="m 214.68678,123.03061 q 0,2.3599 -1.37804,3.94464 -1.36082,1.60197 -3.87574,2.32544 v -1.32636 q 3.03169,-0.96463 3.03169,-2.89388 0,-0.34451 -0.25838,-0.62012 -0.25839,-0.27561 -0.89573,-0.60289 -1.17133,-0.60289 -1.17133,-1.70533 0,-0.93017 0.58566,-1.41249 0.58567,-0.49953 1.49862,-0.49953 1.10243,0 1.77423,0.79237 0.68902,0.79237 0.68902,1.99815 z"
         style="font-style:normal;font-size:35.2778px;font-family:'Liberation Serif';-inkscape-font-specification:'Liberation Serif, Normal';text-align:center;text-anchor:middle;fill:#d8dee9;fill-opacity:1;stroke:#2e3440;stroke-width:0.662;stroke-dasharray:none;stroke-opacity:1"
         id="path1799" /><g
         id="g2412"
         transform="translate(5.4875189,3.669989)"><path
           style="color:#000000;fill:#eceff4;stroke:#2e3440;stroke-width:0.165488;stroke-miterlimit:10;stroke-dasharray:none;stroke-opacity:1"
           d="m 87.674044,101.87006 c 1.54731,0.89364 3.356917,0.91929 4.868647,0.23169 -0.159695,-1.65323 -1.086426,-3.207156 -2.634564,-4.100789 -1.548137,-0.892806 -3.356916,-0.919284 -4.868646,-0.230855 0.159695,1.653222 1.086426,3.207154 2.634563,4.100784 z"
           id="path18" /><path
           style="color:#000000;fill:#a3be8c;fill-opacity:1;stroke:#2e3440;stroke-width:0.661951;stroke-miterlimit:10;stroke-dasharray:none;stroke-opacity:1"
           d="m 87.494683,96.466755 c -0.965085,-0.03756 -1.925315,0.152821 -2.798098,0.550279 l -0.537512,0.244837 0.05673,0.587772 c 0.18438,1.90877 1.260552,3.708107 3.044552,4.737897 l 1.241158,0.71641 v -0.1802 c 1.466289,0.45837 3.030032,0.34701 4.383807,-0.26875 l 0.537835,-0.24468 -0.05689,-0.58809 c -0.184381,-1.90877 -1.260552,-3.708114 -3.044553,-4.737895 l -1.68e-4,-1.68e-4 C 89.429736,96.769869 88.459766,96.504319 87.49468,96.466755 Z m -0.06917,1.651644 c 0.70427,0.02677 1.412916,0.220907 2.069242,0.599408 1.116113,0.644373 1.840608,1.688673 2.116593,2.846093 -1.140746,0.33934 -2.408123,0.23389 -3.523562,-0.41032 l -0.0089,-0.005 c -1.11114,-0.6448 -1.832967,-1.686199 -2.108191,-2.840605 0.470173,-0.140047 0.960812,-0.208183 1.454806,-0.189406 z"
           id="path19" /><path
           style="color:#000000;fill:#eceff4;stroke:#2e3440;stroke-width:0.165488;stroke-miterlimit:10;stroke-dasharray:none;stroke-opacity:1"
           d="m 78.013702,98.000961 c -1.54731,0.893633 -2.474868,2.447559 -2.634564,4.100789 1.510902,0.68842 3.32051,0.66195 4.868647,-0.23169 1.54731,-0.89363 2.474869,-2.44756 2.634564,-4.100782 -1.510902,-0.687601 -3.32051,-0.661123 -4.868647,0.231683 z"
           id="path20" /><path
           style="color:#000000;fill:#a3be8c;fill-opacity:1;stroke:#2e3440;stroke-width:0.661951;stroke-miterlimit:10;stroke-dasharray:none;stroke-opacity:1"
           d="m 80.427197,96.466593 c -0.965108,0.03768 -1.935,0.303244 -2.826865,0.81758 l -1.68e-4,1.59e-4 -3.27e-4,1.68e-4 c -1.783018,1.029767 -2.859975,2.82869 -3.044382,4.73773 l -0.05672,0.58761 0.53735,0.24484 c 1.745028,0.7951 3.841497,0.76171 5.625288,-0.26795 l 1.67e-4,-1.7e-4 c 1.783022,-1.02976 2.859978,-2.828683 3.044385,-4.737725 l 0.05689,-0.587933 -0.537673,-0.244677 c -0.872451,-0.397046 -1.83283,-0.587313 -2.797938,-0.549632 z m 0.06949,1.651645 c 0.493937,-0.01883 0.984443,0.04919 1.454319,0.188921 -0.276175,1.15743 -1.001377,2.202061 -2.117078,2.846421 -1.116426,0.64436 -2.383709,0.75014 -3.523562,0.41065 0.276087,-1.15742 1.001176,-2.201985 2.116755,-2.846423 0.656271,-0.378469 1.365112,-0.57271 2.069566,-0.599569 z"
           id="path21" /><path
           style="color:#000000;fill:#eceff4;stroke:#2e3440;stroke-width:0.165488;stroke-miterlimit:10;stroke-dasharray:none;stroke-opacity:1"
           d="m 81.727245,115.51038 c 0,1.78727 0.882049,3.36685 2.234084,4.33164 1.352033,-0.96479 2.234083,-2.54437 2.234083,-4.33164 0,-1.78726 -0.88205,-3.36684 -2.234083,-4.33164 -1.352035,0.9648 -2.234084,2.54438 -2.234084,4.33164 z"
           id="path22" /><path
           style="color:#000000;fill:#a3be8c;fill-opacity:1;stroke:#2e3440;stroke-width:0.661951;stroke-miterlimit:10;stroke-dasharray:none;stroke-opacity:1"
           d="m 83.961264,110.16231 -0.480625,0.34294 c -1.561122,1.11399 -2.580897,2.94569 -2.580897,5.00519 0,2.0595 1.019775,3.8912 2.580897,5.0052 l 0.480625,0.34293 0.480625,-0.34293 c 1.561122,-1.114 2.580897,-2.9457 2.580897,-5.0052 0,-2.0595 -1.019775,-3.8912 -2.580897,-5.00519 z m 0,2.09155 c 0.864622,0.81771 1.406645,1.96764 1.406645,3.25658 0,1.28894 -0.542032,2.43871 -1.406645,3.25642 -0.864565,-0.8177 -1.406645,-1.96752 -1.406645,-3.25642 0,-1.2889 0.542071,-2.43887 1.406645,-3.25658 z"
           id="path23" /><path
           style="color:#000000;fill:#eceff4;stroke:#2e3440;stroke-width:0.165488;stroke-miterlimit:10;stroke-dasharray:none;stroke-opacity:1"
           d="m 84.324574,112.78894 c 0.462538,1.72604 1.723554,3.02429 3.279138,3.60598 1.055811,-1.28171 1.499318,-3.03588 1.03678,-4.76191 -0.462538,-1.72604 -1.723554,-3.02429 -3.279138,-3.60598 -1.055811,1.2817 -1.499318,3.03587 -1.03678,4.76191 z"
           id="path24" /><path
           style="color:#000000;fill:#a3be8c;fill-opacity:1;stroke:#2e3440;stroke-width:0.661951;stroke-miterlimit:10;stroke-dasharray:none;stroke-opacity:1"
           d="m 85.098183,107.0452 -0.375418,0.45574 c -1.219076,1.47989 -1.73041,3.51298 -1.197361,5.50214 0.533013,1.98902 1.991952,3.49515 3.788439,4.16692 l 0.553026,0.2067 0.375419,-0.45573 c 1.219076,-1.4799 1.730572,-3.51298 1.197522,-5.50215 -0.533013,-1.98902 -1.992113,-3.49499 -3.7886,-4.16676 z m 0.541552,2.02043 c 1.046547,0.56604 1.867903,1.53698 2.201439,2.78162 0.333502,1.24452 0.107404,2.49559 -0.515856,3.50918 -1.046554,-0.56604 -1.867902,-1.53697 -2.201439,-2.78162 -0.333499,-1.2445 -0.107393,-2.49559 0.515856,-3.50918 z"
           id="path25" /><path
           style="color:#000000;fill:#eceff4;stroke:#2e3440;stroke-width:0.165488;stroke-miterlimit:10;stroke-dasharray:none;stroke-opacity:1"
           d="m 86.520595,110.06087 c 0.893634,1.54731 2.447562,2.47487 4.100785,2.63457 0.688428,-1.5109 0.66195,-3.32051 -0.231684,-4.86865 -0.893633,-1.54731 -2.447562,-2.47487 -4.100784,-2.63456 -0.688429,1.5109 -0.661951,3.32051 0.231683,4.86864 z"
           id="path26" /><path
           style="color:#000000;fill:#a3be8c;fill-opacity:1;stroke:#2e3440;stroke-width:0.661951;stroke-miterlimit:10;stroke-dasharray:none;stroke-opacity:1"
           d="m 85.284357,104.3119 -0.244838,0.53719 c -0.795106,1.74503 -0.761712,3.84166 0.267948,5.62545 h 1.67e-4 v 1.7e-4 c 1.029771,1.78303 2.82869,2.85998 4.737732,3.04439 l 0.587771,0.0567 0.244676,-0.53735 c 0.795106,-1.74503 0.761712,-3.8415 -0.267947,-5.62529 v -1.7e-4 h -1.68e-4 c -1.029769,-1.78303 -2.828688,-2.85998 -4.73773,-3.04439 z m 1.04561,1.81164 c 1.157555,0.27612 2.202323,1.00128 2.846744,2.11708 0.644365,1.11643 0.750142,2.38371 0.410648,3.52356 -1.157486,-0.2761 -2.202152,-1.00122 -2.846581,-2.11691 -0.644463,-1.11648 -0.750324,-2.38381 -0.410811,-3.52373 z"
           id="path27" /><path
           style="color:#000000;fill:#eceff4;stroke:#2e3440;stroke-width:0.165488;stroke-miterlimit:10;stroke-dasharray:none;stroke-opacity:1"
           d="m 79.569286,111.63218 c -0.462538,1.72604 -0.01903,3.48103 1.03678,4.76191 1.555584,-0.58169 2.8166,-1.87994 3.279138,-3.60598 0.462538,-1.72604 0.01903,-3.48103 -1.03678,-4.76191 -1.555584,0.58169 -2.816601,1.87994 -3.279138,3.60598 z"
           id="path28" /><path
           style="color:#000000;fill:#a3be8c;fill-opacity:1;stroke:#2e3440;stroke-width:0.661951;stroke-miterlimit:10;stroke-dasharray:none;stroke-opacity:1"
           d="m 83.111524,107.04439 -0.552865,0.20686 c -1.796488,0.67177 -3.255588,2.17774 -3.788601,4.16677 -0.533067,1.98922 -0.0219,4.02294 1.197523,5.5023 l 0.375417,0.45557 0.552866,-0.20686 c 1.796487,-0.67177 3.255587,-2.17773 3.7886,-4.16676 0.533067,-1.98923 0.0219,-4.02294 -1.197522,-5.5023 z m -0.541391,2.02044 c 0.623009,1.01308 0.849326,2.26478 0.515856,3.50918 -0.333535,1.24464 -1.155053,2.21541 -2.2016,2.78145 -0.623016,-1.01309 -0.849328,-2.26478 -0.515856,-3.50918 0.333536,-1.24464 1.155053,-2.21542 2.2016,-2.78145 z"
           id="path29" /><path
           style="color:#000000;fill:#eceff4;stroke:#2e3440;stroke-width:0.165488;stroke-miterlimit:10;stroke-dasharray:none;stroke-opacity:1"
           d="m 77.968193,107.82679 c -0.893634,1.54731 -0.919284,3.35692 -0.231683,4.86865 1.653222,-0.1597 3.20715,-1.08643 4.100784,-2.63457 0.893634,-1.54731 0.919284,-3.35691 0.231683,-4.86864 -1.653222,0.15969 -3.207151,1.08642 -4.100784,2.63456 z"
           id="path30" /><path
           style="color:#000000;fill:#a3be8c;fill-opacity:1;stroke:#2e3440;stroke-width:0.661951;stroke-miterlimit:10;stroke-dasharray:none;stroke-opacity:1"
           d="m 82.577567,104.31174 -0.588096,0.0569 c -1.908769,0.18438 -3.708111,1.26055 -4.737892,3.04455 -1.029829,1.78328 -1.062088,3.87955 -0.268271,5.6248 l 0.244676,0.53784 0.588096,-0.0567 c 1.908699,-0.18438 3.707931,-1.26051 4.73773,-3.0444 l 1.68e-4,-1.6e-4 c 1.029829,-1.78328 1.062088,-3.87972 0.26827,-5.62497 z m -1.046418,1.8118 c 0.339334,1.14075 0.233884,2.40813 -0.410326,3.52356 h -1.67e-4 v 1.7e-4 c -0.644358,1.11629 -1.688726,1.84091 -2.846259,2.11692 -0.339391,-1.14079 -0.233913,-2.40808 0.410326,-3.52356 v -1.7e-4 h 1.67e-4 c 0.644381,-1.11633 1.688678,-1.84093 2.846259,-2.11692 z"
           id="path31" /><path
           style="color:#000000;fill:#eceff4;stroke:#2e3440;stroke-width:0.165488;stroke-miterlimit:10;stroke-dasharray:none;stroke-opacity:1"
           d="m 81.72228,110.13865 c 0,1.78727 0.882049,3.36685 2.234084,4.33164 1.352034,-0.96479 2.234083,-2.54437 2.234083,-4.33164 0,-1.78726 -0.882049,-3.36684 -2.234083,-4.33164 -1.352035,0.9648 -2.234084,2.54438 -2.234084,4.33164 z"
           id="path32" /><path
           style="color:#000000;fill:#a3be8c;fill-opacity:1;stroke:#2e3440;stroke-width:0.661951;stroke-miterlimit:10;stroke-dasharray:none;stroke-opacity:1"
           d="m 83.956416,104.79043 -0.480626,0.34309 c -1.561122,1.114 -2.580897,2.9457 -2.580897,5.0052 0,2.0595 1.019775,3.89104 2.580897,5.00503 l 0.480626,0.3431 0.480625,-0.3431 c 1.561122,-1.11399 2.580895,-2.94553 2.580895,-5.00503 0,-2.0595 -1.019773,-3.8912 -2.580895,-5.0052 z m 0,2.0917 c 0.864574,0.81771 1.406644,1.96768 1.406644,3.25659 0,1.2889 -0.54208,2.43871 -1.406644,3.25642 -0.864613,-0.81771 -1.406646,-1.96748 -1.406645,-3.25642 -1e-6,-1.28895 0.542022,-2.43887 1.406645,-3.25659 z"
           id="path33" /><path
           style="color:#000000;fill:#eceff4;stroke:#2e3440;stroke-width:0.165488;stroke-miterlimit:10;stroke-dasharray:none;stroke-opacity:1"
           d="m 89.087309,104.16289 c 1.263498,1.2635 3.004428,1.75748 4.642756,1.4836 0.273882,-1.6375 -0.220098,-3.37926 -1.483597,-4.64276 -1.263498,-1.263494 -3.004428,-1.757474 -4.642756,-1.483592 -0.273882,1.637502 0.220098,3.379262 1.483597,4.642752 z"
           id="path34" /><path
           style="color:#000000;fill:#a3be8c;fill-opacity:1;stroke:#2e3440;stroke-width:0.661951;stroke-miterlimit:10;stroke-dasharray:none;stroke-opacity:1"
           d="m 88.1812,98.627144 c -0.239044,0.0117 -0.477498,0.03739 -0.71399,0.07693 l -0.582277,0.09729 -0.09729,0.582277 c -0.316334,1.891319 0.258412,3.908199 1.71451,5.364299 1.455973,1.45597 3.472354,2.03095 5.36429,1.71467 l 0.582277,-0.0973 0.09745,-0.58228 c 0.316336,-1.89132 -0.258572,-3.90835 -1.714672,-5.36445 -1.273975,-1.273979 -2.977,-1.873372 -4.650299,-1.791441 z m 0.182941,1.653426 c 1.189509,-0.033 2.386172,0.39708 3.29731,1.30822 0.910945,0.91095 1.341055,2.10831 1.308224,3.29731 -1.189509,0.033 -2.386173,-0.39709 -3.297309,-1.30822 -0.910946,-0.91095 -1.341056,-2.10831 -1.308225,-3.29731 z"
           id="path35" /><path
           style="color:#000000;fill:#eceff4;stroke:#2e3440;stroke-width:0.165488;stroke-miterlimit:10;stroke-dasharray:none;stroke-opacity:1"
           d="m 78.835365,104.16302 c -1.263498,1.2635 -3.004428,1.75748 -4.642756,1.4836 -0.273882,-1.6375 0.220098,-3.37926 1.483597,-4.64276 1.263498,-1.263495 3.004428,-1.757476 4.642756,-1.483594 0.273882,1.637504 -0.220098,3.379254 -1.483597,4.642754 z"
           id="path34-1" /><path
           style="color:#000000;fill:#a3be8c;fill-opacity:1;stroke:#2e3440;stroke-width:0.661951;stroke-miterlimit:10;stroke-dasharray:none;stroke-opacity:1"
           d="m 79.741475,98.627273 c 0.239043,0.0117 0.477497,0.03739 0.713989,0.07693 l 0.582277,0.09729 0.09729,0.582278 c 0.316334,1.891319 -0.258412,3.908189 -1.71451,5.364289 -1.455972,1.45597 -3.472354,2.03095 -5.36429,1.71468 l -0.582277,-0.0973 -0.09745,-0.58228 c -0.316334,-1.89132 0.258573,-3.90835 1.714673,-5.36445 1.273975,-1.27398 2.977,-1.873372 4.6503,-1.791441 z m -0.182942,1.653417 c -1.189509,-0.033 -2.386172,0.39709 -3.297309,1.30823 -0.910945,0.91095 -1.341056,2.10831 -1.308225,3.29731 1.189509,0.033 2.386172,-0.39709 3.297309,-1.30823 0.910946,-0.91094 1.341056,-2.10831 1.308225,-3.29731 z"
           id="path35-3" /><path
           style="color:#000000;fill:#eceff4;stroke:#2e3440;stroke-width:0.165488;stroke-miterlimit:10;stroke-dasharray:none;stroke-opacity:1"
           d="m 85.512775,102.11912 c 1.263498,1.2635 3.004429,1.75748 4.642757,1.4836 0.273882,-1.6375 -0.220099,-3.37926 -1.483597,-4.642758 -1.263499,-1.263498 -3.004429,-1.756651 -4.64193,-1.482769 -0.273881,1.6375 0.220099,3.379257 1.483598,4.642757 z"
           id="path36" /><path
           style="color:#000000;fill:#eceff4;stroke:#2e3440;stroke-width:0.165488;stroke-miterlimit:10;stroke-dasharray:none;stroke-opacity:1"
           d="m 79.24493,98.959962 c -1.263499,1.263498 -1.757479,3.004428 -1.483597,4.642758 1.6375,0.27388 3.379258,-0.2201 4.642757,-1.4836 1.263497,-1.2635 1.757479,-3.004427 1.483596,-4.642755 -1.6375,-0.273882 -3.379258,0.220099 -4.642756,1.483597 z"
           id="path42" /><path
           id="path37"
           style="color:#000000;display:inline;fill:#a3be8c;fill-opacity:1;stroke:#2e3440;stroke-width:0.661951;stroke-miterlimit:10;stroke-dasharray:none;stroke-opacity:1"
           d="m 82.996457,96.576002 c -1.570325,0.003 -3.142161,0.604415 -4.336617,1.798871 -1.45597,1.45597 -2.030949,3.472357 -1.714672,5.364287 l 0.09745,0.58228 0.582277,0.0975 c 1.891316,0.31633 3.908191,-0.25857 5.364289,-1.71467 0.385649,-0.38565 0.707653,-0.81142 0.969493,-1.26298 0.261716,0.45154 0.583499,0.87733 0.969008,1.26298 2.51e-4,2.7e-4 5.03e-4,5.3e-4 8.38e-4,8.1e-4 1.455907,1.45537 3.471902,2.03008 5.363481,1.71386 l 0.582277,-0.0975 0.09745,-0.58227 c 0.316284,-1.89133 -0.258604,-3.908199 -1.714702,-5.364297 -1.274085,-1.274086 -2.97713,-1.872745 -4.649815,-1.790629 -0.215891,0.0106 -0.43109,0.03409 -0.644982,0.06739 -0.216135,-0.03387 -0.433558,-0.0575 -0.651769,-0.0682 -0.104562,-0.0051 -0.209318,-0.0076 -0.314007,-0.0074 z m -0.09212,1.659887 c 0.07431,-0.0016 0.148705,-0.0012 0.22302,8.13e-4 0.03297,1.189508 -0.397251,2.386168 -1.308387,3.297308 -0.910978,0.91098 -2.108269,1.34125 -3.297309,1.30839 -0.03297,-1.18951 0.39725,-2.38618 1.308387,-3.297313 0.854041,-0.854045 1.959675,-1.285671 3.074289,-1.309198 z m 2.108997,8.13e-4 c 1.114487,0.0233 2.21944,0.454345 3.073481,1.308386 0.910978,0.910982 1.341254,2.108272 1.308387,3.297312 -1.189151,0.033 -2.385467,-0.397 -3.296501,-1.30758 -1.68e-4,-1.4e-4 -1.68e-4,-3.4e-4 -3.35e-4,-4.9e-4 -1.68e-4,-1.4e-4 -3.35e-4,-1.8e-4 -5.03e-4,-3.2e-4 -0.9104,-0.91088 -1.340434,-2.10782 -1.307579,-3.296505 0.07431,-0.0021 0.148722,-0.0024 0.22302,-8.13e-4 z" /><path
           style="color:#000000;fill:#eceff4;stroke:#2e3440;stroke-width:0.165488;stroke-miterlimit:10;stroke-dasharray:none;stroke-opacity:1"
           d="m 88.038944,106.77181 c 1.263499,1.2635 3.004429,1.75748 4.642757,1.48359 0.273882,-1.6375 -0.220099,-3.37925 -1.483597,-4.64275 -1.263499,-1.2635 -3.004429,-1.75748 -4.642756,-1.4836 -0.273883,1.6375 0.220098,3.37926 1.483596,4.64276 z"
           id="path38" /><path
           style="color:#000000;fill:#a3be8c;fill-opacity:1;stroke:#2e3440;stroke-width:0.661951;stroke-miterlimit:10;stroke-dasharray:none;stroke-opacity:1"
           d="m 87.132842,101.23616 c -0.239044,0.0117 -0.477498,0.0372 -0.71399,0.0768 l -0.582277,0.0973 -0.09729,0.58228 c -0.316334,1.89132 0.258412,3.90835 1.714511,5.36445 1.455972,1.45597 3.472354,2.03079 5.364289,1.71451 l 0.582277,-0.0973 0.09745,-0.58227 c 0.316336,-1.89132 -0.258572,-3.90819 -1.714672,-5.36429 -1.273975,-1.27398 -2.977001,-1.87337 -4.650299,-1.79144 z m 0.18294,1.65326 c 1.18951,-0.033 2.386172,0.39725 3.29731,1.30839 0.910978,0.91098 1.341091,2.10827 1.308225,3.29731 -1.189508,0.033 -2.386173,-0.39725 -3.297309,-1.30839 -0.910979,-0.91098 -1.341091,-2.10827 -1.308226,-3.29731 z"
           id="path39" /><path
           style="color:#000000;fill:#eceff4;stroke:#2e3440;stroke-width:0.165488;stroke-miterlimit:10;stroke-dasharray:none;stroke-opacity:1"
           d="m 76.715451,103.61265 c -1.263498,1.2635 -1.757479,3.00443 -1.483597,4.64275 1.6375,0.27389 3.379258,-0.22009 4.642756,-1.48359 1.263499,-1.2635 1.757479,-3.00443 1.483598,-4.64276 -1.637501,-0.27388 -3.379259,0.2201 -4.642757,1.4836 z"
           id="path44" /><path
           style="color:#000000;fill:#a3be8c;fill-opacity:1;stroke:#2e3440;stroke-width:0.661951;stroke-miterlimit:10;stroke-dasharray:none;stroke-opacity:1"
           d="m 80.780959,101.236 c -1.672994,-0.082 -3.376537,0.51751 -4.650623,1.7916 -1.455972,1.45597 -2.03095,3.47235 -1.714672,5.36429 l 0.09745,0.58227 0.582277,0.0973 c 1.891318,0.31634 3.90819,-0.25841 5.364289,-1.71451 1.455972,-1.45597 2.03095,-3.47235 1.714672,-5.36429 l -0.09745,-0.58227 -0.582278,-0.0975 c -0.236414,-0.0395 -0.474666,-0.0652 -0.713665,-0.0769 z m -0.183103,1.65342 c 0.03297,1.18951 -0.39725,2.38617 -1.308387,3.29731 -0.910979,0.91098 -2.108267,1.34125 -3.297309,1.30839 -0.03301,-1.18956 0.397208,-2.38613 1.308387,-3.29731 0.910979,-0.91098 2.108267,-1.34125 3.297309,-1.30839 z"
           id="path45" /><path
           style="color:#000000;fill:#eceff4;stroke:#2e3440;stroke-width:0.165488;stroke-miterlimit:10;stroke-dasharray:none;stroke-opacity:1"
           d="m 81.727245,103.93287 c 0,1.78726 0.882049,3.36684 2.234084,4.33164 1.352033,-0.9648 2.234083,-2.54438 2.234083,-4.33164 0,-1.78727 -0.88205,-3.36685 -2.234083,-4.331643 -1.352035,0.964793 -2.234084,2.544373 -2.234084,4.331643 z"
           id="path46" /><path
           style="color:#000000;fill:#a3be8c;fill-opacity:1;stroke:#2e3440;stroke-width:0.661951;stroke-miterlimit:10;stroke-dasharray:none;stroke-opacity:1"
           d="m 83.961264,98.584641 -0.480625,0.343096 c -1.561122,1.113993 -2.580897,2.945693 -2.580897,5.005193 0,2.0595 1.019775,3.89104 2.580897,5.00503 l 0.480625,0.3431 0.480625,-0.3431 c 1.561122,-1.11399 2.580897,-2.94553 2.580897,-5.00503 0,-2.0595 -1.019775,-3.8912 -2.580897,-5.005193 z m 0,2.091709 c 0.864622,0.81771 1.406645,1.96763 1.406645,3.25658 0,1.28894 -0.542032,2.43871 -1.406645,3.25642 -0.864565,-0.81771 -1.406645,-1.96752 -1.406645,-3.25642 0,-1.2889 0.542071,-2.43887 1.406645,-3.25658 z"
           id="path47" /></g></g></g></svg>
