<?xml version="1.0" encoding="UTF-8" standalone="no"?>
<!-- Created with Inkscape (http://www.inkscape.org/) -->

<svg
   width="140.78372mm"
   height="140.50317mm"
   viewBox="0 0 140.78372 140.50317"
   version="1.1"
   id="svg5"
   xml:space="preserve"
   sodipodi:docname="qr_code.svg"
   inkscape:version="1.2.2 (b0a8486541, 2022-12-01)"
   inkscape:export-filename="qr_code.png"
   inkscape:export-xdpi="96"
   inkscape:export-ydpi="96"
   xmlns:inkscape="http://www.inkscape.org/namespaces/inkscape"
   xmlns:sodipodi="http://sodipodi.sourceforge.net/DTD/sodipodi-0.dtd"
   xmlns="http://www.w3.org/2000/svg"
   xmlns:svg="http://www.w3.org/2000/svg"><sodipodi:namedview
     id="namedview7"
     pagecolor="#505050"
     bordercolor="#eeeeee"
     borderopacity="1"
     inkscape:showpageshadow="0"
     inkscape:pageopacity="0"
     inkscape:pagecheckerboard="0"
     inkscape:deskcolor="#505050"
     inkscape:document-units="mm"
     showgrid="false"
     inkscape:zoom="0.99402667"
     inkscape:cx="181.58467"
     inkscape:cy="326.953"
     inkscape:window-width="1920"
     inkscape:window-height="1014"
     inkscape:window-x="0"
     inkscape:window-y="0"
     inkscape:window-maximized="1"
     inkscape:current-layer="layer1" /><defs
     id="defs2" /><g
     inkscape:label="Layer 1"
     inkscape:groupmode="layer"
     id="layer1"
     transform="translate(-33.157602,-73.45611)"><path
       style="fill:#a3be8c;fill-opacity:1;stroke-width:0.264583"
       d="m 39.753477,213.60513 c -2.798611,-0.77917 -5.703901,-3.96096 -6.31806,-6.91935 -0.190148,-0.91594 -0.271982,-3.47049 -0.218444,-6.81903 0.08461,-5.29178 0.09458,-5.37269 0.852236,-6.91576 0.960931,-1.95707 2.606961,-3.59728 4.583633,-4.56743 l 1.528907,-0.7504 h 6.217709 6.217708 l 1.5875,0.83729 c 1.773558,0.93543 3.508465,2.60528 4.330478,4.16809 0.937564,1.7825 1.146085,3.58947 1.05092,9.10693 -0.08685,5.03514 -0.112818,5.24929 -0.808371,6.66553 -1.090015,2.21943 -2.38347,3.56188 -4.379037,4.5449 l -1.768171,0.87101 -5.827493,0.0592 c -4.103404,0.0417 -6.189033,-0.0414 -7.049515,-0.28101 z m 12.863689,-3.85171 c 0.582084,-0.26949 1.37944,-0.83243 1.771902,-1.25096 1.378619,-1.47019 1.535906,-2.27536 1.52958,-7.83007 -0.0065,-5.73598 -0.206941,-6.59083 -1.874769,-7.99704 -1.617059,-1.3634 -2.181842,-1.47079 -7.702069,-1.4645 -5.624672,0.006 -6.47576,0.19383 -7.931963,1.74676 -1.374056,1.46533 -1.53539,2.28203 -1.53539,7.77243 0,5.49039 0.161334,6.3071 1.53539,7.77242 1.46103,1.55808 2.300273,1.74096 7.989611,1.74096 4.464509,0 5.301911,-0.066 6.217708,-0.49 z m -8.305438,-3.80767 c -0.493408,-0.15759 -1.339668,-0.7471 -1.880578,-1.31002 -2.743419,-2.85509 -1.759705,-7.51841 1.909289,-9.05103 3.494049,-1.45955 7.58953,1.26485 7.609459,5.06197 0.02072,3.94715 -3.728045,6.5479 -7.63817,5.29908 z m 24.108726,7.83637 c -0.572291,-0.23026 -1.074917,-1.49042 -0.841475,-2.10971 0.411424,-1.09145 1.265473,-1.41737 3.714104,-1.41737 2.117477,0 2.337806,0.0515 2.983839,0.69753 0.869413,0.86942 0.882742,1.52256 0.0481,2.3572 -0.60012,0.60012 -0.836171,0.64785 -3.108855,0.62855 -1.352682,-0.0115 -2.610755,-0.0818 -2.795717,-0.1562 z m 11.051922,-0.35208 c -1.280965,-1.28097 -0.104368,-3.175 1.972349,-3.175 h 1.202651 v -3.175 c 0,-3.83545 0.223811,-4.23334 2.38125,-4.23334 h 1.322917 v -0.90881 c 0,-1.09252 0.329475,-2.0287 0.922782,-2.622 0.345903,-0.34591 0.964824,-0.43794 2.945209,-0.43794 2.371466,0 2.542421,0.0379 3.156101,0.7001 1.290926,1.39293 0.47924,2.76826 -1.766824,2.99373 l -1.42081,0.14263 -0.139025,1.38257 c -0.07646,0.76041 -0.287745,1.53129 -0.469517,1.71306 -0.181771,0.18177 -0.952648,0.39305 -1.713058,0.46951 l -1.382567,0.13903 -0.07774,1.91823 -0.07774,1.91823 h 1.995966 1.995967 v -1.07573 c 0,-1.08602 0.364326,-2.0686 0.899504,-2.42595 0.160118,-0.10691 1.422215,-0.19439 2.804663,-0.19439 1.382448,0 2.644545,0.0875 2.804662,0.19439 0.535178,0.35735 0.899504,1.33993 0.899504,2.42595 v 1.07573 h 3.13636 c 2.96245,0 3.17518,0.036 3.83646,0.64882 0.84268,0.78098 0.88424,1.42696 0.15172,2.3582 l -0.54837,0.69714 H 92.153173 c -11.798854,0 -12.166992,-0.0154 -12.680797,-0.52916 z m 30.427084,0 c -0.38806,-0.38806 -0.52917,-0.88195 -0.52917,-1.85209 v -1.32291 l -1.25677,-0.004 c -1.39115,-0.004 -1.62285,-0.10934 -2.2414,-1.01433 -0.50413,-0.73757 -0.19199,-2.00389 0.59819,-2.42679 0.26617,-0.14245 1.86099,-0.259 3.54405,-0.259 h 3.0601 v -1.15494 c 0,-1.74116 0.71772,-2.50152 2.45596,-2.60184 l 1.3805,-0.0797 v -3.83646 -3.83645 l -1.42081,-0.14263 c -1.77693,-0.17838 -2.41565,-0.848 -2.41565,-2.53252 v -1.16131 h -3.02107 c -3.45482,0 -3.744,-0.0702 -4.24003,-1.02944 -0.29989,-0.57992 -0.30328,-0.84128 -0.0196,-1.51584 0.1885,-0.44831 0.5443,-0.89246 0.79067,-0.987 0.24636,-0.0945 2.34861,-0.17189 4.67165,-0.17189 4.13167,0 4.23788,0.0142 4.87316,0.64943 0.49902,0.49902 0.64943,0.92797 0.64943,1.85209 v 1.20265 h 1.98437 1.98438 v -1.20265 c -1e-5,-1.34781 0.85419,-2.50152 1.85208,-2.50152 0.9856,0 1.85208,1.15456 1.85208,2.46785 v 1.16899 l 1.37224,0.13186 c 0.99802,0.0959 1.50311,0.29346 1.85209,0.72443 0.62863,0.77633 0.60896,1.72775 -0.0493,2.38604 -0.47037,0.47037 -0.88194,0.52916 -3.70417,0.52916 h -3.175 v 1.98438 1.98437 h 1.20265 c 1.34781,0 2.50152,0.8542 2.50152,1.85209 0,0.9856 -1.15456,1.85208 -2.46785,1.85208 h -1.16899 l -0.12737,1.3256 c -0.17169,1.78676 -0.71459,2.33306 -2.41677,2.43191 l -1.35964,0.079 -0.0777,1.91823 -0.0777,1.91823 h 3.14796 c 2.97476,0 3.18647,0.0357 3.84805,0.64882 0.84268,0.78098 0.88424,1.42696 0.15172,2.3582 l -0.54837,0.69714 h -6.46309 c -6.11031,0 -6.49197,-0.0289 -6.99225,-0.52916 z m 19.05,0 c -0.38806,-0.38806 -0.52917,-0.88195 -0.52917,-1.85209 v -1.32291 l -1.25677,-0.004 c -1.39115,-0.004 -1.62285,-0.10934 -2.2414,-1.01433 -0.33222,-0.48605 -0.36606,-0.78998 -0.15527,-1.39464 0.34193,-0.98089 0.92957,-1.29115 2.44542,-1.29115 h 1.20802 v -3.18702 c 0,-3.03098 0.0318,-3.21883 0.64943,-3.83646 0.83866,-0.83866 1.59651,-0.82271 2.40591,0.0507 0.50345,0.54322 0.64883,0.98786 0.64883,1.98437 v 1.28428 h 1.32291 c 1.51372,0 2.38126,0.62656 2.38126,1.7198 0,1.09323 -0.86754,1.71979 -2.38126,1.71979 h -1.32291 v 1.98437 1.98438 h 1.20265 c 2.07672,0 3.25331,1.89403 1.97235,3.175 -0.45861,0.45861 -0.88195,0.52916 -3.175,0.52916 -2.29306,0 -2.71639,-0.0705 -3.175,-0.52916 z m 15.67099,0.35208 c -0.57229,-0.23026 -1.07491,-1.49042 -0.84147,-2.10971 0.4395,-1.16594 1.22209,-1.41737 4.41164,-1.41737 h 2.98384 v -1.20265 c 0,-0.92412 0.15041,-1.35307 0.64943,-1.85209 0.61763,-0.61763 0.80548,-0.64943 3.83646,-0.64943 h 3.18703 v -3.83646 -3.83646 h -1.98438 -1.98437 v 1.07573 c 0,1.08602 -0.36433,2.0686 -0.89951,2.42595 -0.16012,0.10692 -0.85667,0.19621 -1.54789,0.19844 l -1.25677,0.004 v 1.15494 c 0,1.48691 -0.77981,2.54923 -1.87129,2.54923 -1.20168,0 -1.83288,-0.82005 -1.83288,-2.38125 v -1.32292 h -1.16898 c -0.64295,0 -1.36172,-0.074 -1.59729,-0.16435 -0.61455,-0.23583 -1.20248,-1.50735 -1.20248,-2.60064 0,-0.9381 -0.001,-0.93918 -1.20265,-0.93918 -0.92411,0 -1.35306,-0.15041 -1.85208,-0.64943 -0.61764,-0.61763 -0.64943,-0.80548 -0.64943,-3.83646 v -3.18702 h -1.98438 -1.98437 v 3.18702 c 0,3.03098 -0.0318,3.21883 -0.64944,3.83646 -0.83463,0.83464 -1.48778,0.82131 -2.35719,-0.0481 l -0.69754,-0.69754 v -6.19366 -6.19365 l 0.64943,-0.64943 c 0.61763,-0.61764 0.80548,-0.64944 3.83646,-0.64944 h 3.18703 v -3.18702 c 0,-3.03098 0.0318,-3.21883 0.64943,-3.83646 0.35719,-0.35719 0.89838,-0.64943 1.20265,-0.64943 0.99789,0 1.85208,1.15371 1.85208,2.50151 v 1.20265 h 3.83646 3.83646 v -1.98437 -1.98438 h -3.26629 c -4.29358,0 -4.24172,0.0506 -4.36264,-4.26028 l -0.0883,-3.14805 h -7.65075 -7.65076 v 1.32292 c 0,2.06834 -0.47095,2.38125 -3.5839,2.38125 -2.32869,0 -2.5762,-0.0506 -3.175,-0.64944 -0.82408,-0.82407 -0.82408,-1.58122 0,-2.4053 0.49544,-0.49544 0.92934,-0.64943 1.82992,-0.64943 h 1.18049 l 0.0883,-3.19851 c 0.0864,-3.1288 0.10448,-3.21242 0.83066,-3.83646 0.69099,-0.5938 0.9519,-0.63795 3.77031,-0.63795 h 3.02796 v -1.85208 -1.85208 h -0.93918 c -2.2929,0 -3.58127,-1.82956 -2.23582,-3.175 0.38805,-0.38806 0.88194,-0.52917 1.85208,-0.52917 h 1.32292 v -1.28684 c 0,-1.0376 0.1351,-1.42193 0.69754,-1.98437 0.67526,-0.67527 0.79776,-0.69754 3.83645,-0.69754 h 3.13893 v -1.20265 c 0,-0.92411 0.15041,-1.35306 0.64943,-1.85208 0.63733,-0.63733 0.73124,-0.64944 5.03911,-0.64944 4.30787,0 4.40178,0.0121 5.03911,0.64944 0.82148,0.82148 0.82165,1.46872 5.3e-4,2.35464 -0.53652,0.57891 -0.88,0.70009 -1.98438,0.70009 h -1.33547 v 1.32292 c 0,0.97014 -0.14111,1.46402 -0.52917,1.85208 -0.49298,0.49299 -0.88194,0.52917 -5.68854,0.52917 h -5.15937 v 1.98437 1.98438 h 1.20801 c 2.33778,0 2.76074,0.75594 2.76074,4.93427 v 2.73864 h 1.85208 1.85208 v -2.73864 c 0,-4.17833 0.42295,-4.93427 2.76073,-4.93427 h 1.20802 v -1.32292 c 0,-0.97014 0.14111,-1.46403 0.52917,-1.85208 1.28096,-1.28097 3.175,-0.10437 3.175,1.97235 v 1.20265 h 1.98437 1.98438 v -5.15938 c 0,-4.8066 0.0362,-5.19555 0.52917,-5.68854 1.37909,-1.37909 3.175,-0.01 3.175,2.42073 v 0.75427 h 3.84805 3.84805 l -0.0777,-1.91823 -0.0777,-1.91823 -3.39561,-0.13229 c -2.9664,-0.11557 -3.44297,-0.19721 -3.77031,-0.64588 -0.52813,-0.72388 -0.46531,-1.64476 0.15446,-2.26454 0.48868,-0.48868 0.88195,-0.52916 5.14017,-0.52916 h 4.61101 l 0.54837,0.69714 c 0.48171,0.61239 0.54837,1.06267 0.54837,3.70416 v 3.00703 h 1.20265 c 0.92411,0 1.35306,0.15041 1.85208,0.64943 0.59292,0.59292 0.64944,0.85581 0.64944,3.02107 0,2.80576 -0.0902,3.10491 -1.09279,3.62336 -1.3488,0.69749 -2.61138,-0.49651 -2.61138,-2.46953 v -1.14335 l -1.91823,0.0777 -1.91823,0.0777 -0.13229,5.24741 c -0.1211,4.80337 -0.17575,5.27913 -0.64588,5.62239 -1.44926,1.05815 -3.05829,-0.19927 -3.05829,-2.39 v -0.93918 h -1.85208 -1.85208 v 0.93918 c 0,1.09329 -0.58793,2.36481 -1.20248,2.60064 -0.23557,0.0904 -1.78778,0.16435 -3.44937,0.16435 h -3.02107 v 3.96875 3.96875 h 1.32292 c 0.97014,0 1.46402,0.14111 1.85208,0.52917 0.38806,0.38805 0.52917,0.88194 0.52917,1.85208 v 1.32292 h 5.82083 5.82083 v -1.32292 c 0,-0.97014 0.14111,-1.46403 0.52917,-1.85208 0.76134,-0.76135 1.95571,-0.68497 2.62663,0.16797 0.48171,0.6124 0.54837,1.06267 0.54837,3.70417 v 3.00702 h 1.20265 c 2.07672,0 3.25331,1.89404 1.97235,3.175 -0.45861,0.45861 -0.88194,0.52917 -3.175,0.52917 -3.2464,0 -3.70417,-0.29428 -3.70417,-2.38125 v -1.32292 h -3.83646 -3.83645 v 7.67292 7.67292 h 3.175 c 3.83545,0 4.23333,0.22381 4.23333,2.38125 v 1.32291 h 1.98437 1.98438 v -1.20265 c 0,-1.98091 1.66926,-3.14138 3.05828,-2.12612 0.42952,0.31393 0.52881,0.7708 0.60654,2.79091 0.10352,2.69006 -0.22768,3.90812 -1.11863,4.114 -0.309,0.0714 -1.8715,0.15919 -3.47223,0.19508 l -2.91042,0.0652 -0.13229,5.24741 c -0.1211,4.80338 -0.17575,5.27914 -0.64588,5.6224 -0.42313,0.30894 -2.28724,0.3713 -10.58334,0.3541 -5.53836,-0.0115 -10.22107,-0.0818 -10.40604,-0.1562 z m 10.39047,-24.42917 v -5.68854 l -5.75469,-0.0713 -5.75469,-0.0713 v 5.83115 5.83116 l 5.75469,-0.0713 5.75469,-0.0713 z m -6.89119,1.20265 c -0.35719,-0.35718 -0.64944,-0.89838 -0.64944,-1.20265 0,-0.30427 0.29225,-0.84546 0.64944,-1.20265 0.35718,-0.35718 0.89837,-0.64943 1.20265,-0.64943 0.30427,0 0.84546,0.29225 1.20265,0.64943 0.35718,0.35719 0.64943,0.89838 0.64943,1.20265 0,0.71385 -1.13824,1.85209 -1.85208,1.85209 -0.30428,0 -0.84547,-0.29225 -1.20265,-0.64944 z m 14.43181,-35.46619 v -1.98437 h -1.85208 -1.85208 v 1.98437 1.98438 h 1.85208 1.85208 z m 8.32235,58.22036 c -0.83464,-0.83464 -0.82131,-1.48778 0.0481,-2.3572 0.86941,-0.86941 1.52256,-0.88274 2.35719,-0.0481 0.78661,0.78661 0.83537,1.81047 0.12027,2.52557 -0.7151,0.71509 -1.73896,0.66634 -2.52557,-0.12027 z m -34.2054,-3.6671 c -0.71889,-0.76523 -0.73877,-1.86998 -0.0461,-2.56263 0.45525,-0.45525 0.88194,-0.52917 3.05473,-0.52917 2.32869,0 2.57619,0.0506 3.175,0.64943 0.35719,0.35719 0.64943,0.89838 0.64943,1.20265 0,0.30427 -0.29224,0.84547 -0.64943,1.20265 -0.59712,0.59712 -0.84916,0.64944 -3.12888,0.64944 -2.24964,0 -2.53277,-0.0568 -3.05474,-0.61237 z m -64.869031,-3.88555 c -1.090092,-1.09009 -0.27468,-2.91042 1.303713,-2.91042 0.775793,0 1.871287,1.00681 1.871287,1.7198 0,0.17903 -0.246767,0.63922 -0.54837,1.02265 -0.67092,0.85293 -1.865286,0.92931 -2.62663,0.16797 z m 30.427081,0 c -1.09755,-1.09755 -0.27352,-2.91042 1.32292,-2.91042 0.96719,0 1.85208,0.82169 1.85208,1.7198 0,0.89811 -0.88489,1.71979 -1.85208,1.71979 -0.44098,0 -1.02894,-0.23519 -1.32292,-0.52917 z m -37.979732,-3.82443 c -0.357187,-0.35719 -0.649433,-0.89838 -0.649433,-1.20265 0,-0.30427 0.292246,-0.84547 0.649433,-1.20265 0.598109,-0.59811 0.847495,-0.64944 3.155797,-0.64944 2.392526,0 2.531269,0.0317 3.054733,0.69714 0.692235,0.88004 0.699347,1.79772 0.01921,2.47786 -0.45525,0.45525 -0.881943,0.52917 -3.054734,0.52917 -2.32869,0 -2.576195,-0.0506 -3.175,-0.64943 z m 11.377084,0 c -0.635812,-0.63581 -0.649433,-0.7389 -0.649433,-4.91515 v -4.26571 l 0.773398,-0.77339 c 0.629505,-0.62951 0.998704,-0.7734 1.984375,-0.7734 h 1.210977 v -1.27303 c 0,-1.76661 0.644758,-2.43114 2.358795,-2.43114 h 1.279845 l 0.123965,-1.49486 c 0.168442,-2.03119 0.466442,-2.20931 3.696298,-2.20931 3.19027,0 3.653597,0.30198 3.653597,2.38125 v 1.32292 h 5.044478 c 2.784491,0 5.261283,0.11604 5.528423,0.259 1.52161,0.81434 1.41487,6.39073 -0.13371,6.98498 -1.488067,0.57102 -2.50169,-0.32722 -2.50169,-2.2169 v -1.32291 h -3.96875 -3.968751 v 1.32291 c 0,0.97014 -0.14111,1.46403 -0.529166,1.85209 -1.345444,1.34544 -3.175,0.0571 -3.175,-2.23582 v -0.93918 h -1.852084 -1.852083 v 0.93918 c 0,1.94616 -0.733063,2.65792 -2.910417,2.82585 l -0.926042,0.0714 -0.07774,1.91822 -0.07774,1.91823 h 1.324202 c 1.541751,0 2.403147,0.68176 2.403147,1.90198 0,1.42452 -0.751043,1.80219 -3.5839,1.80219 -2.328691,0 -2.576195,-0.0506 -3.175,-0.64943 z m 22.898481,0.12026 c -0.68014,-0.68014 -0.673028,-1.59782 0.0192,-2.47786 0.67229,-0.85467 1.621107,-0.90232 2.351737,-0.11808 1.07315,1.1519 0.32789,3.12511 -1.180317,3.12511 -0.3638,0 -0.89958,-0.23812 -1.19063,-0.52917 z m 7.998077,0.35209 c -0.18496,-0.0744 -0.50537,-0.46228 -0.71203,-0.8619 -0.32685,-0.63207 -0.32411,-0.82609 0.0211,-1.49141 0.21824,-0.42065 0.53865,-0.85501 0.71203,-0.96525 0.17338,-0.11023 1.42225,-0.20225 2.77527,-0.20448 2.32285,-0.004 2.49621,0.035 3.10885,0.69605 0.82104,0.88592 0.82088,1.53316 -5.3e-4,2.35464 -0.60012,0.60012 -0.83617,0.64785 -3.10885,0.62854 -1.35268,-0.0115 -2.61076,-0.0818 -2.79572,-0.15619 z m 30.10193,-0.35209 c -0.68015,-0.68014 -0.67304,-1.59782 0.0192,-2.47786 0.67229,-0.85467 1.62112,-0.90232 2.35174,-0.11808 1.07315,1.1519 0.3279,3.12511 -1.18032,3.12511 -0.3638,0 -0.89958,-0.23812 -1.19062,-0.52917 z m -34.27557,-3.82443 c -0.35719,-0.35719 -0.64944,-0.89838 -0.64944,-1.20265 0,-0.30427 0.29225,-0.84546 0.64944,-1.20265 0.35718,-0.35719 0.89838,-0.64943 1.20265,-0.64943 0.30427,0 0.84546,0.29224 1.20265,0.64943 0.35718,0.35719 0.64943,0.89838 0.64943,1.20265 0,0.71385 -1.13824,1.85208 -1.85208,1.85208 -0.30427,0 -0.84547,-0.29224 -1.20265,-0.64943 z m -38.103553,-3.6945 c -0.437171,-0.31936 -0.527063,-0.77026 -0.604144,-3.03033 -0.08696,-2.54986 -0.06383,-2.68186 0.583287,-3.32898 0.37061,-0.37061 0.922788,-0.67384 1.227058,-0.67384 0.304271,0 0.856449,0.30323 1.227059,0.67384 0.64712,0.64712 0.670247,0.77912 0.583287,3.32898 -0.09905,2.90425 -0.365514,3.40551 -1.810346,3.40551 -0.380936,0 -0.923726,-0.16883 -1.206201,-0.37518 z m 102.806203,-0.15398 c -0.90452,-0.90452 -0.64972,-2.1685 0.56362,-2.79594 0.86949,-0.44963 1.52103,-0.23052 2.20094,0.74019 0.56359,0.80464 0.51734,1.17915 -0.23899,1.93548 -0.78661,0.78661 -1.81047,0.83536 -2.52557,0.12027 z M 71.919725,190.5556 c -0.617635,-0.61763 -0.649433,-0.80547 -0.649433,-3.83645 v -3.18703 H 60.576307 c -5.881693,0 -10.886722,-0.074 -11.122287,-0.16435 -0.647436,-0.24845 -1.175087,-1.45911 -0.925042,-2.12244 0.485305,-1.28745 1.072661,-1.41738 6.40761,-1.41738 h 4.979803 l -0.07774,-1.91823 -0.07774,-1.91822 -1.3805,-0.0797 c -1.115865,-0.0644 -1.483585,-0.21072 -1.918229,-0.76329 -0.67387,-0.85668 -0.673217,-1.16239 0.0043,-2.02373 0.524291,-0.66653 0.647785,-0.69153 3.770313,-0.76328 l 3.228271,-0.0742 0.07322,-3.90261 0.07322,-3.9026 h -1.329991 c -2.137717,0 -3.077417,-1.47077 -1.883043,-2.94725 0.495385,-0.61239 0.606809,-0.62623 5.688542,-0.70649 l 5.183262,-0.0819 v -1.18693 c 0,-0.90742 0.152934,-1.33986 0.649433,-1.83636 0.59427,-0.59427 0.853734,-0.64943 3.054734,-0.64943 2.201,0 2.460464,0.0552 3.054734,0.64943 0.721468,0.72147 0.790665,1.13237 0.352597,2.09382 -0.327055,0.7178 -0.917515,0.95185 -2.415144,0.9573 l -0.992187,0.004 v 1.20265 c 0,0.92412 -0.150411,1.35307 -0.649433,1.85209 -0.617633,0.61763 -0.805479,0.64943 -3.836459,0.64943 h -3.187025 v 1.98438 1.98437 h 1.303713 c 1.093285,0 1.392224,0.11252 1.852083,0.69714 0.466109,0.59256 0.548371,1.06885 0.548371,3.175 0,3.47359 -0.07495,3.53619 -4.233334,3.53619 h -3.175 v 1.98438 1.98437 h 5.688542 5.688542 v -3.00702 c 0,-2.6415 0.06666,-3.09177 0.54837,-3.70417 0.67092,-0.85294 1.865286,-0.92932 2.62663,-0.16797 0.470371,0.47037 0.529167,0.88194 0.529167,3.70416 v 3.175 h 1.154943 c 2.168239,0 3.345193,1.84987 2.020057,3.175 -0.470371,0.47037 -0.881944,0.52917 -3.704167,0.52917 h -3.175 v 3.18703 c 0,3.03098 -0.0318,3.21882 -0.649433,3.83645 -0.824074,0.82408 -1.581227,0.82408 -2.405301,0 z m -34.395836,-7.67291 c -0.834638,-0.83464 -0.821309,-1.48778 0.04811,-2.3572 0.869415,-0.86941 1.522559,-0.88274 2.357197,-0.0481 0.786608,0.7866 0.835364,1.81047 0.120265,2.52556 -0.715098,0.7151 -1.73896,0.66635 -2.525568,-0.12026 z m 53.32557,0.12026 c -0.388056,-0.38805 -0.529166,-0.88194 -0.529166,-1.85208 v -1.32292 h -3.187026 c -3.030979,0 -3.218825,-0.0318 -3.836458,-0.64943 -0.357188,-0.35719 -0.649433,-0.89838 -0.649433,-1.20265 0,-0.30427 0.292245,-0.84546 0.649433,-1.20265 0.617633,-0.61764 0.805479,-0.64943 3.836458,-0.64943 h 3.187026 v -1.32292 c 0,-0.97014 0.14111,-1.46403 0.529166,-1.85208 0.761344,-0.76135 1.955711,-0.68497 2.62663,0.16797 0.481711,0.6124 0.548371,1.06267 0.548371,3.70417 v 3.00702 h 1.984375 1.984375 v -1.32291 c 0,-0.97014 0.14111,-1.46403 0.529163,-1.85209 0.38806,-0.38805 0.88195,-0.52916 1.852087,-0.52916 h 1.32291 v -1.98438 -1.98437 h -1.32291 c -0.970137,0 -1.464027,-0.14111 -1.852087,-0.52917 -0.388053,-0.38806 -0.529163,-0.88194 -0.529163,-1.85208 v -1.32292 h -3.187026 c -3.030979,0 -3.218825,-0.0318 -3.836458,-0.64943 -1.412933,-1.41293 -0.482148,-3.05474 1.731817,-3.05474 h 1.322917 v -1.13175 c 0,-1.96192 1.266086,-3.15361 2.611382,-2.45794 0.911428,0.47132 1.092784,0.87306 1.092784,2.42071 v 1.16898 h 3.836454 3.83646 v -2.73864 c 0,-1.50625 0.13159,-3.11611 0.29241,-3.57746 0.49356,-1.41583 1.91839,-1.80164 2.87228,-0.77776 0.49868,0.53527 0.53948,0.91638 0.53948,5.03912 0,4.38258 -0.0113,4.47133 -0.64944,5.10948 -0.49902,0.49902 -0.92797,0.64943 -1.85208,0.64943 h -1.20265 v 3.83646 3.83646 h 8.87557 8.87557 l 0.64943,0.64943 c 0.35719,0.35719 0.64943,0.89838 0.64943,1.20265 0,0.99789 -1.15371,1.85208 -2.50152,1.85208 -1.20127,0 -1.20265,0.001 -1.20265,0.93918 0,2.29291 -1.82955,3.58127 -3.175,2.23582 -0.38805,-0.38805 -0.52916,-0.88194 -0.52916,-1.85208 v -1.32292 h -1.98438 -1.98437 v 1.20265 c 0,2.07672 -1.89404,3.25332 -3.175,1.97235 -0.38806,-0.38805 -0.52917,-0.88194 -0.52917,-1.85208 v -1.32292 h -1.98437 -1.98438 v 1.15495 c 0,0.76779 -0.18382,1.38863 -0.54837,1.85208 l -0.54837,0.69714 h -6.463085 c -6.110312,0 -6.491973,-0.0289 -6.992256,-0.52917 z m -49.457881,-3.87214 c -0.692236,-0.88003 -0.699348,-1.79771 -0.0192,-2.47786 1.633524,-1.63352 3.949189,0.9019 2.370943,2.59595 -0.730626,0.78423 -1.679451,0.73659 -2.351739,-0.11809 z m 91.381702,-0.003 c -0.58557,-0.63183 -0.64882,-0.92498 -0.64882,-3.00702 0,-1.93323 0.0888,-2.41986 0.54837,-3.00407 0.52883,-0.6723 0.64521,-0.69714 3.26628,-0.69714 3.04425,0 3.59368,0.26997 3.59368,1.76576 0,1.09696 -0.6891,1.62441 -2.25087,1.72285 l -1.321,0.0833 -0.14263,1.42081 c -0.22789,2.27011 -1.741,3.12259 -3.04501,1.71555 z m -99.073823,-3.79777 c -0.291042,-0.29104 -0.529167,-0.82683 -0.529167,-1.19063 0,-1.09323 0.86754,-1.71979 2.38125,-1.71979 h 1.322917 v -1.98437 -1.98438 h -1.202651 c -0.924112,0 -1.353064,-0.15041 -1.852084,-0.64943 -0.592918,-0.59292 -0.649432,-0.85581 -0.649432,-3.02107 0,-2.80576 0.09022,-3.10491 1.092786,-3.62336 1.348798,-0.69749 2.611381,0.49651 2.611381,2.46953 v 1.14335 l 1.918229,-0.0777 1.91823,-0.0777 0.132291,-5.2474 c 0.151228,-5.99852 0.150771,-5.99739 2.43182,-5.99739 h 1.272347 v -1.98437 -1.98438 h -1.281909 c -1.643857,0 -2.228618,-0.59743 -2.416982,-2.46934 l -0.137567,-1.36712 -1.380502,-0.0797 c -1.738232,-0.10033 -2.455957,-0.86068 -2.455957,-2.60184 V 141.728 l -1.256771,-0.004 c -1.407881,-0.005 -1.705616,-0.1394 -2.143203,-0.97075 -0.455534,-0.86544 -0.373194,-1.36151 0.345239,-2.07994 0.49902,-0.49902 0.927972,-0.64943 1.852084,-0.64943 h 1.202651 v -1.20265 c 0,-2.07672 1.894035,-3.25332 3.175,-1.97235 0.388056,0.38805 0.529167,0.88194 0.529167,1.85208 v 1.32292 h 5.140172 5.140172 l 0.54837,0.69714 c 0.464261,0.59021 0.54837,1.06943 0.54837,3.12443 0,3.02087 -0.217673,3.38229 -2.154137,3.57671 l -1.417738,0.14234 -0.07774,1.91823 -0.07774,1.91823 h 5.0507 c 5.009698,0 5.055977,0.005 5.700134,0.64943 1.412933,1.41293 0.482147,3.05474 -1.731817,3.05474 h -1.322917 v 1.98437 1.98438 h 1.20265 c 0.924113,0 1.353064,0.15041 1.852084,0.64943 0.721468,0.72147 0.790665,1.13237 0.352597,2.09382 -0.372512,0.81758 -0.88355,0.9528 -3.617794,0.9573 -1.980086,0.003 -2.258385,-0.0599 -2.844271,-0.64582 -0.617635,-0.61763 -0.649433,-0.80548 -0.649433,-3.83646 v -3.18702 h -1.984375 -1.984375 v 3.18702 c 0,3.03098 -0.0318,3.21883 -0.649432,3.83646 -0.49902,0.49902 -0.927972,0.64943 -1.852083,0.64943 h -1.202652 v 4.59073 c 0,6.18862 -0.243162,6.78636 -2.760731,6.78636 h -1.208019 v 1.32291 c 0,2.08698 -0.457764,2.38125 -3.704167,2.38125 -2.293056,0 -2.716389,-0.0705 -3.175,-0.52916 z m 11.377084,0 c -0.291042,-0.29104 -0.529167,-0.82683 -0.529167,-1.19063 0,-1.09323 0.86754,-1.71979 2.38125,-1.71979 h 1.322917 v -0.90882 c 0,-2.5776 1.879759,-3.98501 3.155797,-2.36279 0.466108,0.59256 0.54837,1.06885 0.54837,3.175 0,3.39469 -0.148228,3.53619 -3.704167,3.53619 -2.293056,0 -2.716389,-0.0705 -3.175,-0.52916 z m 38.220268,-3.82444 c -0.637186,-0.63718 -0.649433,-0.73198 -0.649433,-5.02708 0,-4.00607 0.04434,-4.42199 0.522435,-4.90009 0.717532,-0.71753 1.524535,-0.87519 3.872686,-0.75662 1.721204,0.0869 2.084705,0.19103 2.512761,0.71965 1.187974,1.46709 0.245502,2.94066 -1.880799,2.94066 h -1.322916 v 1.98438 1.98437 h 1.303713 c 1.093285,0 1.392224,0.11252 1.852083,0.69714 0.692235,0.88003 0.699347,1.79772 0.01921,2.47786 -0.45525,0.45525 -0.881944,0.52917 -3.054734,0.52917 -2.32869,0 -2.576195,-0.0506 -3.175,-0.64944 z m 30.427081,0 c -0.59261,-0.5926 -0.64943,-0.85628 -0.64943,-3.01339 0,-3.00238 0.3391,-3.52671 2.41565,-3.73517 l 1.42081,-0.14263 0.13941,-1.38674 c 0.21652,-2.15361 1.47596,-2.96932 2.81123,-1.82077 0.73001,0.62793 0.75352,0.72664 0.75352,3.16329 0,2.29772 -0.0554,2.57415 -0.64143,3.19791 -0.51767,0.55103 -0.88778,0.68277 -1.91823,0.68277 h -1.2768 v 1.07573 c 0,2.40043 -1.59803,3.43571 -3.05473,1.979 z m 45.77292,0 c -0.35719,-0.35718 -0.64943,-0.89838 -0.64943,-1.20265 0,-0.71384 1.13823,-1.85208 1.85208,-1.85208 0.71385,0 1.85208,1.13824 1.85208,1.85208 0,0.30427 -0.29224,0.84547 -0.64943,1.20265 -0.82407,0.82408 -1.58123,0.82408 -2.4053,0 z M 52.869724,167.80144 c -0.786609,-0.78661 -0.835363,-1.81047 -0.120266,-2.52557 0.45861,-0.45861 0.881943,-0.52917 3.175,-0.52917 2.293057,0 2.71639,0.0706 3.175,0.52917 0.715097,0.7151 0.666343,1.73896 -0.120266,2.52557 -0.59427,0.59427 -0.853734,0.64943 -3.054734,0.64943 -2.201,0 -2.460464,-0.0552 -3.054734,-0.64943 z m 118.004166,-3.96875 c -0.75633,-0.75633 -0.80258,-1.13085 -0.23899,-1.93549 0.67991,-0.9707 1.33145,-1.18982 2.20094,-0.74019 1.21334,0.62744 1.46814,1.89143 0.56362,2.79594 -0.7151,0.7151 -1.73896,0.66635 -2.52557,-0.12026 z m -57.15,-3.70417 c -0.35719,-0.35719 -0.64943,-0.89838 -0.64943,-1.20265 0,-0.30427 0.29224,-0.84546 0.64943,-1.20265 0.35719,-0.35719 0.89838,-0.64943 1.20265,-0.64943 0.63859,0 1.85208,1.11077 1.85208,1.69531 0,0.74889 -0.59425,1.69958 -1.15673,1.85052 -0.9479,0.25438 -1.22394,0.18296 -1.898,-0.4911 z m 7.67292,0 c -0.35719,-0.35719 -0.64944,-0.89838 -0.64944,-1.20265 0,-0.30427 0.29225,-0.84546 0.64944,-1.20265 0.35718,-0.35719 0.89838,-0.64943 1.20265,-0.64943 0.30427,0 0.84546,0.29224 1.20265,0.64943 0.35719,0.35719 0.64943,0.89838 0.64943,1.20265 0,0.71385 -1.13824,1.85208 -1.85208,1.85208 -0.30427,0 -0.84547,-0.29224 -1.20265,-0.64943 z m -87.035895,-3.36025 c -1.270357,-0.69484 -1.563672,-1.96727 -0.661458,-2.86948 0.715098,-0.7151 1.73896,-0.66635 2.525568,0.12026 0.845933,0.84593 0.819185,1.33819 -0.123965,2.28134 -0.854733,0.85473 -0.974151,0.88684 -1.740145,0.46788 z m 33.847444,-0.30536 c -0.551222,-0.47414 -0.739733,-0.91833 -0.842166,-1.98438 l -0.131977,-1.37349 h -1.168987 c -1.313294,0 -2.467854,-0.86648 -2.467854,-1.85209 0,-0.99789 1.153713,-1.85208 2.501516,-1.85208 1.1459,0 1.202651,-0.0356 1.202651,-0.75427 0,-1.10171 0.513069,-2.3935 1.068768,-2.6909 0.266169,-0.14245 1.027552,-0.259 1.691963,-0.259 h 1.208019 v -3.18702 c 0,-3.03098 0.0318,-3.21883 0.649433,-3.83646 0.838658,-0.83866 1.596504,-0.8227 2.405909,0.0507 0.503444,0.54323 0.648825,0.98786 0.648825,1.98438 v 1.28428 h 1.322917 c 1.51371,0 2.38125,0.62655 2.38125,1.71979 0,1.09323 -0.86754,1.71979 -2.38125,1.71979 h -1.322917 v 1.28428 c 0,1.85305 -0.815539,2.68447 -2.6332,2.68447 h -1.33555 v 3.18703 c 0,3.03098 -0.0318,3.21882 -0.649433,3.83645 -0.807792,0.8078 -1.244511,0.81564 -2.147917,0.0386 z m 15.434567,0.19672 c -1.823201,-0.98926 -0.781897,-3.65056 1.270588,-3.2473 0.250748,0.0493 0.692393,0.40664 0.981432,0.79415 0.685387,0.91891 0.442317,1.93053 -0.592431,2.46562 -0.916853,0.47412 -0.760638,0.4753 -1.659589,-0.0125 z m 7.867992,0.10864 c -1.029878,-0.56331 -1.190625,-1.04847 -1.190625,-3.59354 0,-2.27499 0.05248,-2.52748 0.649433,-3.12443 0.617892,-0.61789 0.804762,-0.64943 3.84805,-0.64943 h 3.198617 l -0.07774,-1.91823 -0.07774,-1.91823 -1.380501,-0.0797 c -1.115864,-0.0644 -1.483585,-0.21073 -1.918229,-0.76329 -0.673068,-0.85567 -0.673068,-1.16258 0,-2.01824 0.434644,-0.55257 0.802365,-0.69889 1.918229,-0.76329 l 1.380501,-0.0797 0.08294,-1.32292 c 0.05627,-0.89759 0.262496,-1.51431 0.64143,-1.91823 0.51816,-0.55232 0.78449,-0.59531 3.687377,-0.59531 h 3.12888 v -7.67292 -7.67292 h -3.175 c -3.835447,0 -4.233331,-0.22381 -4.233331,-2.38125 v -1.32291 h -5.820833 -5.820833 v 1.20265 c 0,1.66787 -0.833642,2.50151 -2.501517,2.50151 h -1.20265 v 2.73865 c 0,2.94607 -0.301416,4.2646 -1.068769,4.67527 -0.266168,0.14245 -1.860989,0.259 -3.544046,0.259 h -3.060102 v 1.20265 c 0,2.07672 -1.894036,3.25331 -3.175,1.97235 -0.388057,-0.38806 -0.529167,-0.88194 -0.529167,-1.85208 v -1.32292 h -3.836459 -3.836458 v 0.93918 c 0,2.2929 -1.829557,3.58126 -3.175,2.23582 -0.388057,-0.38806 -0.529167,-0.88194 -0.529167,-1.85208 v -1.32292 h -1.984375 -1.984375 v 1.20265 c 0,0.92411 -0.15041,1.35306 -0.649433,1.85208 l -0.64943,0.64944 h -6.362027 c -6.00925,0 -6.39137,-0.0293 -6.891194,-0.52917 -1.280965,-1.28096 -0.104367,-3.175 1.972348,-3.175 h 1.202652 v -5.03911 c 0,-4.99739 0.0054,-5.04449 0.649432,-5.68854 0.357187,-0.35719 0.898381,-0.64943 1.202652,-0.64943 0.30427,0 0.845464,0.29224 1.202651,0.64943 0.517899,0.5179 0.649432,0.91981 0.649432,1.98438 v 1.33494 h 1.322917 c 1.791512,0 2.38125,0.58974 2.38125,2.38125 v 1.32291 h 3.980341 3.980342 l -0.07774,-1.91823 -0.07774,-1.91822 -3.395609,-0.1323 c -4.171091,-0.1625 -4.145016,-0.14044 -4.145016,-3.50754 0,-2.97247 0.422225,-3.88756 1.797963,-3.89674 1.045006,-0.007 1.906204,1.12135 1.906204,2.49747 v 1.20265 h 3.128881 c 3.02029,0 3.15114,0.0237 3.770312,0.68198 0.592082,0.62951 0.648227,0.92468 0.729737,3.83646 l 0.0883,3.15447 h 1.796261 1.796262 l 0.129013,-1.34267 c 0.211064,-2.19657 0.245756,-2.20972 6.230885,-2.36149 l 5.216803,-0.13229 v -3.83646 -3.83646 l -1.3805,-0.0797 c -1.742509,-0.10057 -2.455958,-0.85976 -2.455958,-2.61343 v -1.16653 l -1.918229,0.0777 -1.91823,0.0777 v 1.85209 1.85208 l 1.42081,0.14263 c 2.246064,0.22547 3.05775,1.6008 1.766824,2.99373 -0.612645,0.66106 -0.786,0.69987 -3.108854,0.69605 -2.637885,-0.004 -2.784263,-0.0485 -3.467553,-1.04701 -0.355388,-0.51931 -0.447685,-1.26935 -0.447685,-3.63802 v -2.98384 h -1.202651 c -1.347803,0 -2.501516,-0.85419 -2.501516,-1.85208 0,-0.99789 1.153713,-1.85209 2.501516,-1.85209 1.201275,0 1.202651,-10e-4 1.202651,-0.93918 0,-2.29289 1.829557,-3.58125 3.175,-2.23581 0.388056,0.38805 0.529167,0.88194 0.529167,1.85208 v 1.32291 h 1.984375 1.984375 v -1.16131 c 0,-1.68452 0.63872,-2.35413 2.415648,-2.53251 l 1.42081,-0.14262 v -9.525003 -9.525 l -1.3805,-0.0797 c -1.115865,-0.0644 -1.483585,-0.21073 -1.91823,-0.76329 -0.673068,-0.85567 -0.673068,-1.16258 0,-2.01824 0.434645,-0.55257 0.802365,-0.69889 1.91823,-0.76329 l 1.3805,-0.0797 0.132292,-3.39561 c 0.11557,-2.9664 0.19721,-3.44297 0.645882,-3.77031 0.971693,-0.70892 2.093926,-0.41376 2.671197,0.70255 0.323463,0.62552 0.387088,2.77289 0.387088,13.06481 v 12.316274 h 0.939181 c 1.093285,0 2.364806,0.587919 2.600632,1.202479 0.0904,0.23556 0.164354,1.49553 0.164354,2.79993 0,2.16525 -0.05652,2.42814 -0.649433,3.02106 -0.499021,0.49902 -0.927971,0.64943 -1.852084,0.64943 h -1.20265 v 3.83646 3.83646 h 8.748644 c 5.200684,0 8.9449,0.10503 9.23259,0.259 0.55569,0.2974 1.06876,1.58918 1.06876,2.6909 v 0.75427 h 1.85209 1.85208 v -0.75427 c 0,-1.10172 0.51307,-2.3935 1.06877,-2.6909 0.26617,-0.14245 1.02755,-0.259 1.69196,-0.259 h 1.20802 v -3.18702 c 0,-3.03098 0.0318,-3.21883 0.64943,-3.83646 0.83866,-0.83866 1.59651,-0.82271 2.40591,0.0507 0.50345,0.54322 0.64883,0.98786 0.64883,1.98437 v 1.28428 h 3.26628 c 3.6432,0 4.14205,0.21267 4.14205,1.76577 0,1.09695 -0.6891,1.6244 -2.25087,1.72284 l -1.321,0.0833 -0.14263,1.42081 c -0.17838,1.77693 -0.848,2.41565 -2.53252,2.41565 h -1.16131 v 1.16131 c 0,1.68452 -0.63872,2.35414 -2.41565,2.53252 l -1.42081,0.14263 v 9.525 9.525 l 3.39561,0.13229 c 2.9664,0.11557 3.44297,0.19721 3.77031,0.64588 1.02304,1.40223 0.0236,2.7937 -2.00655,2.7937 h -1.32291 v 1.98438 1.98437 h 1.20265 c 2.07672,0 3.25331,1.89404 1.97235,3.175 -0.45724,0.45724 -0.88195,0.52917 -3.12443,0.52917 -3.64918,0 -3.59074,0.0645 -3.75474,-4.14502 l -0.13229,-3.39561 h -1.85208 -1.85209 l -0.14646,5.29167 c -0.0806,2.91042 -0.16985,5.31837 -0.19844,5.35102 -0.0286,0.0326 -0.40916,0.24406 -0.84572,0.46981 -0.70635,0.36527 -0.87763,0.36709 -1.55544,0.0166 -0.909,-0.47007 -1.0904,-0.87257 -1.0904,-2.41948 v -1.16898 h -1.984367 -1.984377 v 1.16898 c 0,1.54276 -0.18162,1.94953 -1.077256,2.41268 -0.886571,0.45846 -4.350872,0.51343 -5.140452,0.0816 z M 37.523889,152.4556 c -0.834638,-0.83463 -0.821309,-1.48778 0.04811,-2.35719 0.869415,-0.86942 1.522559,-0.88275 2.357197,-0.0481 0.786608,0.78661 0.835364,1.81047 0.120265,2.52557 -0.715098,0.7151 -1.73896,0.66634 -2.525568,-0.12027 z m 41.948487,0.12027 c -0.715098,-0.7151 -0.666343,-1.73896 0.120266,-2.52557 0.792348,-0.79235 1.189786,-0.81154 2.09301,-0.10106 1.285733,1.01136 0.590818,3.1558 -1.022651,3.1558 -0.363802,0 -0.899584,-0.23813 -1.190625,-0.52917 z m 41.924434,-0.12027 c -0.35719,-0.35718 -0.64944,-0.89838 -0.64944,-1.20265 0,-0.99789 1.15372,-1.85208 2.50152,-1.85208 h 1.20265 v -3.83646 -3.83646 h -3.175 c -2.82222,0 -3.23379,-0.0588 -3.70417,-0.52916 -1.32176,-1.32177 -0.19215,-3.175 1.93529,-3.175 h 1.23971 v -1.98438 -1.98437 h -1.32291 c -2.21397,0 -3.14475,-1.64181 -1.73182,-3.05474 0.61452,-0.61452 0.81364,-0.64943 3.70417,-0.64943 h 3.05473 v -5.68854 -5.68854 h -1.20265 c -0.92411,0 -1.35306,-0.15041 -1.85208,-0.64944 -0.82408,-0.82407 -0.82408,-1.58122 0,-2.4053 0.5988,-0.5988 0.84631,-0.64943 3.175,-0.64943 3.11295,0 3.5839,0.31291 3.5839,2.38125 v 1.32292 h 1.98437 1.98438 v -1.98438 -1.98437 h -1.32292 c -1.79151,0 -2.38125,-0.58974 -2.38125,-2.38125 v -1.32292 h -1.16898 c -1.53289,0 -1.94978,-0.18211 -2.3971,-1.04714 -0.32169,-0.62207 -0.3183,-0.82102 0.0253,-1.48325 0.21824,-0.42065 0.53865,-0.85501 0.71203,-0.96525 0.17338,-0.11023 1.42225,-0.20225 2.77527,-0.20448 2.32285,-0.004 2.49621,0.035 3.10885,0.69605 0.50345,0.54322 0.64883,0.98786 0.64883,1.98437 v 1.28428 h 3.26628 c 3.64321,0 4.14206,0.21267 4.14206,1.76577 0,1.09695 -0.6891,1.6244 -2.25087,1.72284 l -1.321,0.0833 -0.13229,3.36134 c -0.0883,2.2434 -0.24632,3.47535 -0.47513,3.70416 -0.22881,0.22881 -1.46076,0.38683 -3.70416,0.47512 l -3.36134,0.1323 v 5.68854 5.68854 l 1.91823,0.0777 1.91823,0.0777 v -1.22256 c 0,-0.99849 0.14175,-1.36433 0.7734,-1.99597 0.73379,-0.73379 0.88885,-0.7734 3.02795,-0.7734 1.97363,0 2.34305,0.0761 2.96475,0.61088 0.55122,0.47414 0.73973,0.91833 0.84216,1.98438 l 0.13198,1.37349 h 3.8028 3.80279 v -1.98437 -1.98438 h -1.16898 c -1.52684,0 -1.94993,-0.18239 -2.38795,-1.02944 -0.29989,-0.57992 -0.30328,-0.84127 -0.0196,-1.51584 0.40197,-0.95602 0.82343,-1.15889 2.40758,-1.15889 h 1.16899 v -1.32291 c 0,-2.21397 1.6418,-3.14475 3.05473,-1.73182 0.61452,0.61452 0.64943,0.81364 0.64943,3.70417 v 3.05473 h 0.93918 c 2.2929,0 3.58126,1.82956 2.23582,3.175 -0.38806,0.38806 -0.88194,0.52917 -1.85208,0.52917 h -1.32292 v 1.28684 c 0,1.03759 -0.1351,1.42193 -0.69754,1.98437 -0.56244,0.56244 -0.94678,0.69754 -1.98437,0.69754 h -1.28684 v 1.32291 c 0,0.97014 -0.14111,1.46403 -0.52917,1.85209 -1.34544,1.34544 -3.175,0.0571 -3.175,-2.23582 v -0.93918 h -7.68451 -7.6845 l 0.0777,1.91823 0.0777,1.91823 1.3805,0.0797 c 1.11586,0.0644 1.48359,0.21072 1.91823,0.76329 0.29575,0.37598 0.53773,0.83009 0.53773,1.00912 0,0.17903 -0.24198,0.63314 -0.53773,1.00912 -0.43464,0.55256 -0.80237,0.69888 -1.91823,0.76329 l -1.3805,0.0797 -0.13229,3.39561 c -0.1633,4.19148 -0.12256,4.14502 -3.63447,4.14502 -2.275,0 -2.52748,-0.0525 -3.12443,-0.64944 z m -38.100001,-3.70416 c -0.598808,-0.59881 -0.649433,-0.84631 -0.649433,-3.175 0,-2.85776 0.375256,-3.5839 1.852083,-3.5839 1.476828,0 1.852084,0.72614 1.852084,3.5839 0,2.32869 -0.05063,2.57619 -0.649433,3.175 -0.824074,0.82407 -1.581227,0.82407 -2.405301,0 z m -26.823981,-4.01646 c -0.301604,-0.38343 -0.54837,-0.84362 -0.54837,-1.02265 0,-0.17903 0.246766,-0.63923 0.54837,-1.02265 1.011357,-1.28573 3.155797,-0.59082 3.155797,1.02265 0,1.61347 -2.14444,2.30838 -3.155797,1.02265 z m 80.149552,0.16797 c -1.08212,-1.08211 -0.27683,-2.91041 1.2819,-2.91041 0.95085,0 1.62851,0.73478 1.62851,1.76576 0,1.52431 -1.81638,2.23869 -2.91041,1.14465 z m 15.10045,-0.16797 c -0.45954,-0.58421 -0.54837,-1.07084 -0.54837,-3.00407 0,-2.08204 0.0633,-2.37519 0.64882,-3.00703 0.80941,-0.87336 1.56726,-0.88932 2.40591,-0.0507 0.59881,0.59881 0.64944,0.84631 0.64944,3.175 0,2.17279 -0.0739,2.59948 -0.52917,3.05473 -0.76134,0.76135 -1.95571,0.68497 -2.62663,-0.16797 z m -87.476022,-3.65646 c -0.357187,-0.35719 -0.649433,-0.89838 -0.649433,-1.20265 0,-0.71385 1.138238,-1.85208 1.852083,-1.85208 0.713846,0 1.852084,1.13823 1.852084,1.85208 0,0.71385 -1.138238,1.85208 -1.852084,1.85208 -0.30427,0 -0.845462,-0.29224 -1.20265,-0.64943 z m 23.223647,0.47235 c -0.535231,-0.21535 -1.118912,-1.56533 -1.118912,-2.5879 v -0.93918 h -4.991005 -4.991003 l -0.697539,-0.69754 c -0.869413,-0.86942 -0.882743,-1.52256 -0.0481,-2.3572 l 0.64943,-0.64943 h 8.226137 8.226137 l 0.649431,0.64943 c 0.594272,0.59427 0.649433,0.85374 0.649433,3.05474 0,2.201 -0.05516,2.46046 -0.649433,3.05473 -0.60012,0.60012 -0.836171,0.64785 -3.108855,0.62855 -1.352682,-0.0115 -2.610755,-0.0818 -2.795717,-0.1562 z m -30.84846,-4.22462 c -0.869413,-0.86942 -0.882743,-1.52256 -0.0481,-2.3572 0.786606,-0.78661 1.81047,-0.83536 2.525567,-0.12026 0.715097,0.71509 0.666343,1.73896 -0.120266,2.52556 -0.834636,0.83464 -1.487781,0.82131 -2.357197,-0.0481 z m 99.170645,0.0481 c -0.78661,-0.7866 -0.83536,-1.81047 -0.12026,-2.52556 1.09009,-1.09009 2.91041,-0.27468 2.91041,1.30371 0,0.52162 -0.22765,0.95362 -0.69714,1.32292 -0.90322,0.71047 -1.30066,0.69128 -2.09301,-0.10107 z m 7.72063,0.10107 c -1.28574,-1.01136 -0.59082,-3.1558 1.02265,-3.1558 0.85372,0 1.71979,0.87213 1.71979,1.73182 0,0.7232 -1.05898,1.97235 -1.67209,1.97235 -0.20526,0 -0.68693,-0.24677 -1.07035,-0.54837 z M 33.699457,133.52587 c -0.904515,-0.90451 -0.649715,-2.1685 0.563619,-2.79594 0.869489,-0.44963 1.521029,-0.23051 2.200937,0.74019 0.563591,0.80464 0.517347,1.17915 -0.238988,1.93548 -0.786608,0.78661 -1.81047,0.83537 -2.525568,0.12027 z m 64.822916,0 c -0.715094,-0.7151 -0.666339,-1.73896 0.12027,-2.52557 0.79235,-0.79235 1.18979,-0.81154 2.093007,-0.10106 1.28573,1.01136 0.59082,3.1558 -1.022647,3.1558 -0.3638,0 -0.89958,-0.23813 -1.19063,-0.52917 z m 61.091107,0.18901 c -1.06534,-0.8114 -0.9048,-2.34813 0.31098,-2.97683 0.69224,-0.35797 0.85776,-0.35797 1.55,0 0.88593,0.45813 1.17455,1.11673 0.92505,2.11084 -0.28078,1.11871 -1.82429,1.59848 -2.78603,0.86599 z m 7.43598,-0.18901 c -1.34544,-1.34544 -0.0571,-3.175 2.23582,-3.175 0.93811,0 0.93918,-10e-4 0.93918,-1.20265 0,-1.3478 0.85419,-2.50152 1.85208,-2.50152 0.30427,0 0.84547,0.29225 1.20265,0.64944 0.59881,0.5988 0.64944,0.84631 0.64944,3.175 0,3.44898 -0.13944,3.5839 -3.70417,3.5839 -2.29306,0 -2.71639,-0.0706 -3.175,-0.52917 z m -79.688413,-3.50573 c -1.471038,-1.17359 -0.767114,-3.37344 1.07946,-3.37344 0.734547,0 1.615202,1.00981 1.615202,1.85209 0,1.40123 -1.666142,2.34191 -2.694662,1.52135 z m 7.312846,-0.3187 c -0.594273,-0.59427 -0.649433,-0.85374 -0.649433,-3.05474 0,-2.201 0.05516,-2.46046 0.649433,-3.05473 0.786606,-0.78661 1.810469,-0.83536 2.525567,-0.12027 0.45525,0.45525 0.529166,0.88195 0.529166,3.05474 0,2.32869 -0.05062,2.57619 -0.649433,3.175 -0.357187,0.35719 -0.898379,0.64943 -1.20265,0.64943 -0.304271,0 -0.845463,-0.29224 -1.20265,-0.64943 z m 68.996567,0.47235 c -0.53524,-0.21535 -1.11892,-1.56533 -1.11892,-2.58791 0,-0.89946 -0.0397,-0.93918 -0.93918,-0.93918 -1.15913,0 -2.40891,-0.61784 -2.62463,-1.29751 -0.23483,-0.73989 0.10978,-1.85113 0.66644,-2.14905 0.26473,-0.14168 1.62026,-0.2576 3.01227,-0.2576 3.44653,0 3.58927,0.14532 3.58927,3.65427 0,2.24676 -0.0726,2.67384 -0.53948,3.175 -0.51062,0.54809 -1.29806,0.70282 -2.04577,0.40198 z m -49.8226,-4.30048 c -0.94316,-0.94315 -0.9699,-1.43541 -0.12397,-2.28134 0.59881,-0.59881 0.84631,-0.64943 3.175,-0.64943 2.84738,0 3.5839,0.37667 3.5839,1.83288 0,1.35336 -1.00411,1.87128 -3.62791,1.87128 -2.11597,0 -2.27437,-0.0407 -3.00702,-0.77339 z m -76.323971,-3.84479 c -0.834638,-0.83464 -0.821309,-1.48778 0.04811,-2.3572 0.869415,-0.86941 1.522559,-0.88274 2.357197,-0.0481 0.786608,0.78661 0.835364,1.81047 0.120265,2.52557 -0.715098,0.71509 -1.73896,0.66634 -2.525568,-0.12027 z m 102.922921,0 c -0.59427,-0.59427 -0.64943,-0.85373 -0.64943,-3.05473 0,-2.201 0.0552,-2.46047 0.64943,-3.05474 0.35719,-0.35718 0.89838,-0.64943 1.20265,-0.64943 0.99789,0 1.85208,1.15371 1.85208,2.50152 v 1.20265 h 1.20265 c 2.07672,0 3.25332,1.89403 1.97235,3.175 -0.45525,0.45525 -0.88194,0.52916 -3.05473,0.52916 -2.32869,0 -2.5762,-0.0506 -3.175,-0.64943 z m 11.37708,0 c -0.83464,-0.83464 -0.82131,-1.48778 0.0481,-2.3572 0.86941,-0.86941 1.52256,-0.88274 2.35719,-0.0481 0.78661,0.78661 0.83537,1.81047 0.12027,2.52557 -0.7151,0.71509 -1.73896,0.66634 -2.52557,-0.12027 z M 41.391578,118.27665 c -0.692236,-0.88004 -0.699348,-1.79772 -0.0192,-2.47786 1.633524,-1.63353 3.949189,0.90189 2.370943,2.59594 -0.730626,0.78424 -1.679451,0.7366 -2.351739,-0.11808 z m 114.393232,0.14602 c -0.29418,-0.32506 -0.55519,-1.11187 -0.63633,-1.91823 l -0.13756,-1.36711 -1.3805,-0.0797 c -1.11587,-0.0644 -1.48359,-0.21072 -1.91823,-0.76328 -0.67503,-0.85816 -0.67344,-1.16211 0.0106,-2.03178 0.52883,-0.67229 0.64522,-0.69714 3.26629,-0.69714 2.40683,0 2.77428,0.0623 3.21035,0.54415 0.53945,0.59608 0.8382,3.25336 0.5428,4.82798 -0.33989,1.81175 -1.93634,2.61342 -2.95746,1.48509 z m 11.50274,0.0537 c -0.45756,-0.37051 -0.65068,-0.85993 -0.75692,-1.91823 l -0.14263,-1.42081 -1.35964,-0.079 c -1.70218,-0.0988 -2.24508,-0.64515 -2.41677,-2.43191 l -0.12737,-1.3256 h -1.16899 c -1.31329,0 -2.46785,-0.86648 -2.46785,-1.85208 0,-0.99789 1.15371,-1.85209 2.50151,-1.85209 1.20128,0 1.20265,-10e-4 1.20265,-0.93918 0,-1.09328 0.58793,-2.36479 1.20248,-2.60062 0.23557,-0.0904 1.49554,-0.16435 2.79994,-0.16435 2.16526,0 2.42815,0.0565 3.02107,0.64943 0.83464,0.83463 0.82131,1.48777 -0.0481,2.35719 -0.56414,0.56414 -0.94584,0.69753 -1.99596,0.69753 h -1.29843 l 0.0777,1.91823 0.0777,1.91823 1.3805,0.0797 c 1.73824,0.10032 2.45596,0.86068 2.45596,2.60184 v 1.15494 l 1.25677,0.004 c 1.40788,0.005 1.70562,0.13939 2.14321,0.97074 0.45553,0.86544 0.37319,1.36151 -0.34525,2.07994 -0.5926,0.59261 -0.85628,0.64944 -3.01339,0.64944 -1.91945,0 -2.47948,-0.0935 -2.97825,-0.49742 z m -133.588093,-4.0005 c -0.455251,-0.45525 -0.529167,-0.88194 -0.529167,-3.05473 0,-2.32869 0.05063,-2.5762 0.649432,-3.175 0.838661,-0.83866 1.596504,-0.82271 2.40591,0.0507 0.503445,0.54322 0.648825,0.98786 0.648825,1.98437 v 1.28428 h 1.322917 c 1.51371,0 2.38125,0.62656 2.38125,1.7198 0,0.3638 -0.238125,0.89958 -0.529167,1.19062 -0.458611,0.45861 -0.881944,0.52917 -3.175,0.52917 -2.293056,0 -2.716389,-0.0706 -3.175,-0.52917 z m 22.773371,-0.16797 c -0.301604,-0.38343 -0.54837,-0.84362 -0.54837,-1.02265 0,-0.17904 0.246766,-0.63923 0.54837,-1.02266 1.011357,-1.28573 3.155797,-0.59081 3.155797,1.02266 0,1.61346 -2.14444,2.30838 -3.155797,1.02265 z m 87.665032,0.14102 c -0.42361,-0.46738 -0.51812,-1.05838 -0.59233,-3.70416 l -0.0883,-3.14806 h -1.18049 c -0.90058,0 -1.33448,-0.15398 -1.82992,-0.64943 -0.64406,-0.64405 -0.64943,-0.69115 -0.64943,-5.68853 v -5.039113 h -1.98438 -1.98437 v 1.20265 c 0,1.347804 -0.8542,2.501524 -1.85209,2.501524 -0.99789,0 -1.85208,-1.15372 -1.85208,-2.501524 v -1.20265 h -1.98438 -1.98437 v 1.852084 1.85209 h 1.21097 c 0.98568,0 1.35488,0.143889 1.98438,0.773399 0.94315,0.94315 0.9699,1.4354 0.12397,2.28133 -0.59881,0.59881 -0.84631,0.64943 -3.175,0.64943 -3.80867,0 -3.93568,-0.20625 -3.80242,-6.174733 0.10064,-4.50761 0.1988,-4.70897 2.40365,-4.93064 l 1.38674,-0.13942 0.14263,-1.42081 c 0.10624,-1.05829 0.29936,-1.54772 0.75692,-1.91823 0.83591,-0.67688 1.41403,-0.62522 2.23937,0.20012 0.56414,0.56414 0.69754,0.94585 0.69754,1.99597 v 1.29843 l 1.91823,-0.0777 1.91823,-0.0777 0.13229,-3.39561 c 0.11557,-2.9664 0.19721,-3.44297 0.64588,-3.77031 1.48243,-1.08155 3.05829,0.24538 3.05829,2.57519 0,0.71868 0.0568,0.75427 1.20265,0.75427 0.92411,0 1.35306,0.15041 1.85208,0.64943 l 0.64943,0.64943 v 7.02348 7.023493 h 1.32292 c 0.97014,0 1.46403,0.14111 1.85208,0.52916 0.38806,0.38805 0.52917,0.88194 0.52917,1.85208 v 1.32291 h 1.33555 c 1.10438,0 1.44786,0.12118 1.98437,0.7001 1.29093,1.39294 0.47924,2.76826 -1.76682,2.99373 l -1.42081,0.14263 -0.14234,1.41774 c -0.15712,1.56493 -0.66357,2.15414 -1.8516,2.15414 -0.38619,0 -0.92898,-0.25025 -1.2062,-0.55612 z M 41.372374,110.7717 c -1.321769,-1.32176 -0.192155,-3.175 1.935282,-3.175 h 1.239718 v -1.15494 c 0,-1.47445 0.780855,-2.54921 1.852084,-2.54921 1.35363,0 1.852083,1.00973 1.852083,3.75186 0,2.15035 -0.05709,2.41469 -0.649432,3.00703 -0.598806,0.59881 -0.84631,0.64943 -3.175,0.64943 -2.172791,0 -2.599484,-0.0739 -3.054735,-0.52917 z m 49.847423,0.32668 c -0.651039,-0.43471 -0.899504,-1.47024 -0.899504,-3.74887 0,-2.04586 0.07783,-2.47647 0.529166,-2.9278 1.280965,-1.28096 3.175001,-0.10436 3.175001,1.97234 v 1.20265 h 3.164692 c 2.914858,0 3.207278,0.0457 3.704168,0.57906 0.68678,0.73717 0.69145,1.9148 0.0103,2.59594 -0.4874,0.48741 -0.87892,0.52885 -4.960931,0.52512 -2.437474,-0.002 -4.562774,-0.0915 -4.722892,-0.19844 z m -38.350073,-4.15111 c -0.786609,-0.78661 -0.835363,-1.81047 -0.120266,-2.52556 0.487664,-0.48766 0.881943,-0.52916 5.027083,-0.52916 4.14514,0 4.53942,0.0415 5.027084,0.52916 0.761344,0.76134 0.684964,1.9557 -0.167973,2.62662 -0.638932,0.50259 -1.048632,0.54837 -4.906818,0.54837 -4.116758,0 -4.224015,-0.0143 -4.85911,-0.64943 z m 53.493536,0.10106 c -1.28573,-1.01135 -0.59081,-3.15578 1.02266,-3.15578 0.85372,0 1.71979,0.87211 1.71979,1.7318 0,0.7232 -1.05899,1.97235 -1.67209,1.97235 -0.20527,0 -0.68693,-0.24676 -1.07036,-0.54837 z m 11.32938,-0.10106 c -0.63815,-0.63815 -0.64943,-0.7269 -0.64943,-5.10947 0,-4.122743 0.0408,-4.503853 0.53947,-5.039113 1.07974,-1.15896 2.70387,-0.43898 3.03895,1.347174 0.0926,0.49358 0.129,2.534879 0.0809,4.536229 -0.0868,3.6128 -0.0928,3.64335 -0.82981,4.2767 -0.93622,0.8045 -1.36635,0.80222 -2.18009,-0.0115 z m 15.12936,-0.0481 c -0.86942,-0.86942 -0.88275,-1.52256 -0.0481,-2.35719 0.78661,-0.78661 1.81047,-0.83536 2.52557,-0.12027 0.7151,0.71509 0.66634,1.73895 -0.12027,2.52556 -0.83463,0.83464 -1.48778,0.82131 -2.35719,-0.0481 z M 71.799459,103.0988 c -0.492985,-0.49299 -0.529167,-0.88195 -0.529167,-5.688543 v -5.15938 h -1.168985 c -1.542759,0 -1.949524,-0.18162 -2.412677,-1.07726 -0.459013,-0.88763 -0.513903,-3.77166 -0.09468,-4.97426 0.484367,-1.38946 1.911128,-1.79911 2.882588,-0.82765 0.388056,0.38806 0.529167,0.88195 0.529167,1.85209 v 1.32291 h 1.286838 c 1.037598,0 1.421937,0.13511 1.984375,0.69754 l 0.697537,0.69754 v 6.19366 6.193653 l -0.649433,0.64943 c -0.786607,0.78661 -1.81047,0.83536 -2.525567,0.12027 z m 26.722914,0 c -1.280961,-1.28097 -0.10436,-3.174999 1.972347,-3.174999 h 1.20265 v -1.20265 c 0,-0.924124 0.15041,-1.353074 0.64944,-1.852094 0.83074,-0.83074 1.5821,-0.82319 2.42971,0.0244 0.64712,0.64712 0.67024,0.77912 0.58328,3.328983 -0.11482,3.36663 -0.15722,3.40552 -3.713,3.40552 -2.242477,0 -2.667187,-0.0719 -3.124427,-0.52916 z m 11.377087,0 c -0.47037,-0.47037 -0.52917,-0.88195 -0.52917,-3.704169 v -3.175004 h -1.17587 c -1.71092,0 -2.55611,-0.804 -2.72823,-2.59526 l -0.13198,-1.37349 h -1.16898 c -1.3133,0 -2.46786,-0.86648 -2.46786,-1.85208 0,-0.99789 1.15372,-1.85209 2.50152,-1.85209 1.1459,0 1.20265,-0.0356 1.20265,-0.75426 0,-1.10172 0.51307,-2.3935 1.06877,-2.6909 1.4594,-0.78105 2.6354,0.16597 2.6354,2.12225 v 1.32291 h 1.28684 c 1.80802,0 2.68191,0.87389 2.68191,2.68192 v 1.28683 h 1.32291 c 0.97014,0 1.46403,0.14111 1.85209,0.52917 1.34544,1.34544 0.0571,3.175 -2.23582,3.175 h -0.93918 v 3.054734 c 0,2.890529 -0.0349,3.089649 -0.64944,3.704169 -0.7866,0.78661 -1.81047,0.83536 -2.52556,0.12027 z M 40.352872,99.652191 c -2.536615,-0.527 -4.905791,-2.482484 -6.25654,-5.164064 l -0.79375,-1.57579 v -6.21771 c 0,-5.87201 0.03279,-6.28875 0.58974,-7.49551 1.303412,-2.82414 3.408653,-4.65343 6.169387,-5.36069 1.297834,-0.33249 2.756192,-0.40017 7.100971,-0.32955 l 5.467705,0.0889 1.768223,0.87101 c 1.990204,0.98035 3.169127,2.20193 4.323242,4.47966 l 0.774483,1.5285 v 6.2177 c 0,6.06511 -0.01593,6.25018 -0.649208,7.54063 -0.912596,1.85963 -2.771106,3.748874 -4.638159,4.714834 l -1.5918,0.82356 -5.55625,0.0589 c -3.055938,0.0324 -6.074557,-0.0488 -6.708044,-0.18038 z m 11.942063,-3.789344 c 1.306116,-0.54733 2.595013,-1.75696 3.132196,-2.93957 0.416677,-0.91731 0.486532,-1.79434 0.491517,-6.171 0.0063,-5.55471 -0.150961,-6.35988 -1.52958,-7.83008 -1.46103,-1.55808 -2.300272,-1.74095 -7.98961,-1.74095 -5.689338,0 -6.528581,0.18287 -7.989611,1.74095 -1.374056,1.46533 -1.53539,2.28203 -1.53539,7.77243 0,5.4904 0.161334,6.3071 1.53539,7.77243 1.456203,1.55293 2.307291,1.74035 7.931963,1.74676 3.694067,0.004 5.336644,-0.0926 5.953125,-0.35097 z m -8.144436,-4.11358 c -4.325427,-2.00261 -4.411723,-8.21553 -0.139637,-10.05334 1.697465,-0.73023 3.253147,-0.7042 4.943181,0.0827 1.640253,0.76372 2.753099,2.42223 2.941596,4.38396 0.402958,4.19364 -3.95868,7.33976 -7.74514,5.58669 z m 20.096309,7.525094 c -0.357187,-0.35718 -0.649433,-0.89838 -0.649433,-1.20265 0,-0.713844 1.138238,-1.852084 1.852083,-1.852084 0.304271,0 0.845463,0.29225 1.202651,0.64943 0.357187,0.35719 0.649433,0.89838 0.649433,1.202654 0,0.71385 -1.138238,1.85209 -1.852084,1.85209 -0.30427,0 -0.845462,-0.29225 -1.20265,-0.64944 z m 22.905216,0.127 c -0.717532,-0.71753 -0.8752,-1.524534 -0.756624,-3.872684 0.08692,-1.72121 0.191024,-2.08471 0.719651,-2.51277 0.800012,-0.64781 1.746234,-0.63654 2.411492,0.0287 0.457255,0.45726 0.529166,0.88195 0.529166,3.12511 0,2.246764 -0.07257,2.673844 -0.539474,3.175004 -0.670603,0.719809 -1.676924,0.743909 -2.364211,0.0566 z m 7.521869,-0.127 c -0.592344,-0.59234 -0.649433,-0.85667 -0.649433,-3.007024 0,-1.98449 0.08678,-2.46793 0.54837,-3.05474 0.526621,-0.66949 0.652547,-0.69714 3.175,-0.69714 2.27385,0 2.6977,0.0711 3.15579,0.52917 1.32514,1.32514 0.14819,3.175 -2.020047,3.175 h -1.154947 v 1.20265 c 0,1.347804 -0.854191,2.501524 -1.852083,2.501524 -0.304271,0 -0.845463,-0.29225 -1.20265,-0.64944 z m 59.978987,0.37783 c -2.53662,-0.527 -4.9058,-2.482484 -6.25655,-5.164064 l -0.79375,-1.57579 v -6.21771 c 0,-5.87201 0.0328,-6.28875 0.58974,-7.49551 1.30342,-2.82414 3.40866,-4.65343 6.16939,-5.36069 1.29784,-0.33249 2.75619,-0.40017 7.10097,-0.32955 l 5.46771,0.0889 1.76822,0.87101 c 1.9902,0.98035 3.16913,2.20193 4.32324,4.47966 l 0.77448,1.5285 v 6.2177 c 0,6.06511 -0.0159,6.25018 -0.6492,7.54063 -0.9126,1.85963 -2.77111,3.748874 -4.63816,4.714834 l -1.5918,0.82356 -5.55625,0.0589 c -3.05594,0.0324 -6.07456,-0.0488 -6.70804,-0.18038 z m 11.94206,-3.789344 c 1.30611,-0.54733 2.59501,-1.75696 3.13219,-2.93957 0.41668,-0.91731 0.48653,-1.79434 0.49152,-6.171 0.006,-5.55471 -0.15096,-6.35988 -1.52958,-7.83008 -1.46103,-1.55808 -2.30027,-1.74095 -7.98961,-1.74095 -5.68934,0 -6.52858,0.18287 -7.98961,1.74095 -1.37406,1.46533 -1.53539,2.28203 -1.53539,7.77243 0,5.4904 0.16133,6.3071 1.53539,7.77243 1.4562,1.55293 2.30729,1.74035 7.93196,1.74676 3.69407,0.004 5.33665,-0.0926 5.95313,-0.35097 z m -8.14444,-4.11358 c -4.32543,-2.00261 -4.41172,-8.21553 -0.13964,-10.05334 1.69747,-0.73023 3.25315,-0.7042 4.94319,0.0827 1.64025,0.76372 2.75309,2.42223 2.94159,4.38396 0.40296,4.19364 -3.95868,7.33976 -7.74514,5.58669 z m -40.87813,-0.0276 c -1.28096,-1.28097 -0.10436,-3.175 1.97235,-3.175 h 1.20265 v -3.175 c 0,-2.82222 0.0588,-3.2338 0.52917,-3.70417 0.29398,-0.29398 0.88194,-0.52917 1.32292,-0.52917 1.2212,0 1.85208,0.81114 1.85208,2.38125 v 1.32292 h 1.32292 c 2.17046,0 3.05575,1.4524 1.83288,3.00703 -0.45986,0.58461 -0.7588,0.69714 -1.85209,0.69714 h -1.30371 v 1.20265 c 0,0.92411 -0.15041,1.35306 -0.64943,1.85208 -0.59881,0.59881 -0.84631,0.64943 -3.175,0.64943 -2.17279,0 -2.59949,-0.0739 -3.05474,-0.52916 z m -26.602644,-3.82444 c -0.718434,-0.71843 -0.800775,-1.2145 -0.345242,-2.07994 0.620348,-1.17856 1.762266,-1.31364 2.750543,-0.32536 0.821483,0.82148 0.82165,1.46872 5.29e-4,2.35464 -0.809406,0.87336 -1.567252,0.88932 -2.40591,0.0507 z m -26.843184,-3.84848 c -0.45525,-0.45525 -0.529167,-0.88195 -0.529167,-3.05474 0,-2.32869 0.05062,-2.57619 0.649433,-3.175 0.824074,-0.82407 1.581227,-0.82407 2.405301,0 0.598807,0.59881 0.649433,0.84631 0.649433,3.175 0,2.85776 -0.375256,3.5839 -1.852084,3.5839 -0.440973,0 -1.028935,-0.23518 -1.322916,-0.52916 z m 22.981915,0.024 c -0.597148,-0.48297 -0.628414,-0.6765 -0.71085,-4.3999 -0.132964,-6.00578 -0.0094,-6.20742 3.802419,-6.20742 2.328691,0 2.576196,0.0506 3.175001,0.64943 0.834638,0.83464 0.821309,1.48778 -0.0481,2.3572 -0.562438,0.56243 -0.946777,0.69754 -1.984375,0.69754 h -1.286839 v 3.175 c 0,2.82222 -0.0588,3.23379 -0.529166,3.70416 -0.666819,0.66682 -1.611675,0.67619 -2.418086,0.024 z m 7.464373,-0.19196 c -0.461587,-0.58681 -0.54837,-1.07025 -0.54837,-3.05474 0,-2.15034 0.05709,-2.41468 0.649433,-3.00702 1.337323,-1.33733 2.819143,-0.47765 3.044396,1.76621 l 0.142629,1.42081 1.321005,0.0833 c 1.594607,0.10052 2.250867,0.62381 2.250867,1.79483 0,1.37261 -0.70989,1.69378 -3.743833,1.69378 -2.458852,0 -2.591014,-0.0296 -3.116127,-0.69714 z m 15.32663,0.16797 c -0.29104,-0.29104 -0.52917,-0.82682 -0.52917,-1.19062 0,-0.36381 0.23813,-0.89959 0.52917,-1.19063 0.45861,-0.45861 0.88194,-0.52916 3.175,-0.52916 2.29305,0 2.71639,0.0705 3.175,0.52916 0.29104,0.29104 0.52916,0.82682 0.52916,1.19063 0,0.3638 -0.23812,0.89958 -0.52916,1.19062 -0.45861,0.45861 -0.88195,0.52917 -3.175,0.52917 -2.29306,0 -2.71639,-0.0706 -3.175,-0.52917 z m 22.77337,-0.16797 c -0.50259,-0.63893 -0.54837,-1.04863 -0.54837,-4.90682 0,-4.11676 0.0143,-4.22401 0.64943,-4.85911 0.78661,-0.78661 1.81047,-0.83536 2.52557,-0.12026 0.48766,0.48766 0.52917,0.88194 0.52917,5.02708 0,4.14514 -0.0415,4.53942 -0.52917,5.02708 -0.76135,0.76135 -1.95571,0.68497 -2.62663,-0.16797 z m 7.65371,0.16797 c -0.48605,-0.48605 -0.52916,-0.88194 -0.52916,-4.85911 0,-3.97985 0.0443,-4.38631 0.54837,-5.02708 0.73684,-0.93674 1.87058,-0.93674 2.60742,0 0.50404,0.64077 0.54837,1.04723 0.54837,5.02708 0,3.97717 -0.0431,4.37306 -0.52916,4.85911 -0.29399,0.29398 -0.88195,0.52917 -1.32292,0.52917 -0.44097,0 -1.02894,-0.23519 -1.32292,-0.52917 z m -33.9155,-3.50573 c -1.46684,-1.17025 -0.76765,-3.37343 1.07057,-3.37343 0.66419,0 1.6241,1.19393 1.6241,2.02005 0,1.29603 -1.69775,2.14872 -2.69467,1.35338 z m 11.16133,-0.19843 c -0.71375,-0.71376 -0.67623,-1.88627 0.0832,-2.59972 0.78067,-0.73339 1.60223,-0.73204 2.28775,0.004 1.07315,1.1519 0.32789,3.12511 -1.18032,3.12511 -0.3638,0 -0.89958,-0.23812 -1.19063,-0.52916 z m -45.652645,-3.8244 c -0.786609,-0.78661 -0.835364,-1.81047 -0.120266,-2.52557 0.715097,-0.7151 1.73896,-0.66634 2.525567,0.12027 0.834638,0.83463 0.821309,1.48778 -0.0481,2.35719 -0.869416,0.86942 -1.522561,0.88275 -2.357197,0.0481 z m 38.099995,0 c -0.78661,-0.78661 -0.83536,-1.81047 -0.12026,-2.52557 0.45861,-0.45861 0.88194,-0.52917 3.175,-0.52917 2.29305,0 2.71639,0.0706 3.175,0.52917 0.71509,0.7151 0.66634,1.73896 -0.12027,2.52557 -0.59427,0.59427 -0.85373,0.64943 -3.05473,0.64943 -2.201,0 -2.46047,-0.0552 -3.05474,-0.64943 z m 11.42775,6.1e-4 c -0.84268,-0.78098 -0.88425,-1.42696 -0.15173,-2.35821 0.52663,-0.66948 0.65255,-0.69713 3.175,-0.69713 2.27386,0 2.69771,0.0711 3.1558,0.52916 0.7151,0.7151 0.66634,1.73896 -0.12027,2.52557 -0.59221,0.59222 -0.85686,0.64943 -3.00407,0.64943 -2.13267,0 -2.42063,-0.0612 -3.05473,-0.64882 z"
       id="path308" /></g></svg>
