<?xml version="1.0" encoding="UTF-8" standalone="no"?>
<svg
   id="Layer_1"
   viewBox="0 0 242.89 278.14"
   version="1.1"
   sodipodi:docname="home-base.svg"
   inkscape:version="1.3.2 (091e20e, 2023-11-25, custom)"
   width="242.89"
   height="278.14001"
   inkscape:export-filename="transit-base.svg"
   inkscape:export-xdpi="96"
   inkscape:export-ydpi="96"
   xmlns:inkscape="http://www.inkscape.org/namespaces/inkscape"
   xmlns:sodipodi="http://sodipodi.sourceforge.net/DTD/sodipodi-0.dtd"
   xmlns="http://www.w3.org/2000/svg"
   xmlns:svg="http://www.w3.org/2000/svg">
  <sodipodi:namedview
     id="namedview15"
     pagecolor="#505050"
     bordercolor="#eeeeee"
     borderopacity="1"
     inkscape:showpageshadow="0"
     inkscape:pageopacity="0"
     inkscape:pagecheckerboard="0"
     inkscape:deskcolor="#d1d1d1"
     inkscape:zoom="2.1888937"
     inkscape:cx="136.37026"
     inkscape:cy="161.95396"
     inkscape:window-width="1858"
     inkscape:window-height="1057"
     inkscape:window-x="1072"
     inkscape:window-y="418"
     inkscape:window-maximized="1"
     inkscape:current-layer="Layer_1" />
  <defs
     id="defs1">
    <style
       id="style1">.cls-1{fill:#fff;stroke:#194b24;stroke-miterlimit:10;stroke-width:20px;}</style>
  </defs>
  <path
     id="path15-5"
     style="display:inline;fill:#dfebff;fill-opacity:1;stroke:#000000;stroke-width:26;stroke-miterlimit:10;stroke-dasharray:none;stroke-opacity:1"
     class="cls-1"
     d="m 94.449968,82.570443 c 0,21.599997 10.660002,40.689997 27.000002,52.349997 16.34,-11.66 27,-30.75 27,-52.349997 0,-21.600002 -10.66,-40.690005 -27,-52.350005 -16.34,11.66 -27.000002,30.750003 -27.000002,52.350005 z m -60.570001,-3.87 c -15.27,15.27 -21.24,36.309997 -17.93,56.109997 19.79,3.31 40.84,-2.66 56.11,-17.93 15.27,-15.27 21.240001,-36.309997 17.93,-56.109999 -19.79,-3.31 -40.84,2.66 -56.11,17.930002 z m 30.57,-56.230005 c -15.27,15.27 -21.24,36.310003 -17.93,56.110005 19.79,3.31 40.84,-2.66 56.110003,-17.930002 15.27,-15.270003 21.24,-36.310003 17.93,-56.1100027 -19.79,-3.3100001 -40.840003,2.66 -56.110003,17.9299997 z m -43.14,24.7 C 6.0399674,62.440441 0.07996743,83.480443 3.3899674,103.28044 c 19.7899996,3.31 40.8399996,-2.66 56.1099996,-17.929997 15.27,-15.27 21.24,-36.310005 17.93,-56.110005 -19.79,-3.31 -40.84,2.66 -56.11,17.93 z M 170.72997,116.88044 c 15.27,15.27 36.31,21.24 56.11,17.93 3.31,-19.79 -2.66,-40.839997 -17.93,-56.109997 -15.27,-15.270002 -36.31,-21.240002 -56.11,-17.930002 -3.31,19.790002 2.66,40.839999 17.93,56.109999 z m -30.53,-56.229999 c 15.27,15.270002 36.31,21.240002 56.11,17.930002 3.31,-19.790002 -2.66,-40.840005 -17.93,-56.110005 -15.27,-15.2699997 -36.31,-21.2299998 -56.1,-17.9199997 -3.31,19.7899997 2.66,40.8399997 17.93,56.1100027 z m 43.2,24.700002 c 15.27,15.269997 36.31,21.239997 56.11,17.929997 3.31,-19.789997 -2.66,-40.839999 -17.93,-56.110002 -15.27,-15.27 -36.31,-21.24 -56.11,-17.93 -3.31,19.79 2.66,40.840005 17.93,56.110005 z M 94.389968,157.57044 c 0,21.6 10.660002,40.69 27.000002,52.35 16.34,-11.66 27,-30.75 27,-52.35 0,-21.6 -10.66,-40.69 -27,-52.35 -16.34,11.66 -27.000002,30.75 -27.000002,52.35 z m -45.370001,-27.94 c -10.8,18.7 -11.11,40.57 -2.8,58.84 19.98,-1.93 38.76,-13.13 49.560001,-31.84 10.800002,-18.7 11.110002,-40.57 2.8,-58.839997 -19.980001,1.93 -38.760001,13.129997 -49.560001,31.839997 z m 19.35,45.99 c -5.59,20.86 -0.23,42.07 12.53,57.55 18.800001,-7.03 34.040003,-22.72 39.630003,-43.58 5.59,-20.86 0.23,-42.07 -12.53,-57.55 -18.800003,7.03 -34.040003,22.72 -39.630003,43.58 z m 84.010003,-18.99 c 10.8,18.7 29.58,29.91 49.56,31.84 8.32,-18.26 8,-40.13 -2.8,-58.84 -10.8,-18.7 -29.58,-29.909997 -49.56,-31.839997 -8.32,18.259997 -8,40.129997 2.8,58.839997 z m -26.54,32.97 c 5.59,20.86 20.83,36.55 39.63,43.58 12.76,-15.49 18.12,-36.69 12.53,-57.55 -5.59,-20.86 -20.83,-36.55 -39.63,-43.58 -12.76,15.49 -18.12,36.69 -12.53,57.55 z m -31.390002,32.89 c 0,21.6 10.660002,40.69 27.000002,52.35 16.34,-11.66 27,-30.75 27,-52.35 0,-21.6 -10.66,-40.69 -27,-52.35 -16.34,11.66 -27.000002,30.75 -27.000002,52.35 z M 49.569967,10.880438 c -18.7,10.8 -29.91,29.58 -31.84,49.560003 18.26,8.320002 40.13,8.000002 58.84,-2.8 C 95.269968,46.840438 106.47997,28.060438 108.40997,8.0804383 90.149968,-0.22956179 68.279967,0.09043821 49.569967,10.880438 Z M 166.31997,57.640441 c 18.7,10.800002 40.57,11.110002 58.84,2.8 -1.93,-19.980003 -13.13,-38.760003 -31.84,-49.560003 -18.71,-10.78999979 -40.57,-11.10999979 -58.84,-2.7899997 1.93,19.9799997 13.13,38.7599997 31.84,49.5600027 z" />
  <path
     class="cls-1"
     d="m 166.32,57.87 c 18.7,10.8 40.57,11.11 58.84,2.8 C 223.23,40.69 212.03,21.91 193.32,11.11 174.61,0.32 152.75,0 134.48,8.32 c 1.93,19.98 13.13,38.76 31.84,49.56 z"
     id="path1"
     style="display:inline;fill:#eceff4;fill-opacity:1;stroke:#a3be8c;stroke-opacity:1" />
  <path
     class="cls-1"
     d="m 49.57,11.11 c -18.7,10.8 -29.91,29.58 -31.84,49.56 18.26,8.32 40.13,8 58.84,-2.8 C 95.27,47.07 106.48,28.29 108.41,8.31 90.15,0 68.28,0.32 49.57,11.11 Z"
     id="path2"
     style="display:inline;fill:#eceff4;fill-opacity:1;stroke:#a3be8c;stroke-opacity:1" />
  <path
     class="cls-1"
     d="m 94.45,222.72 c 0,21.6 10.66,40.69 27,52.35 16.34,-11.66 27,-30.75 27,-52.35 0,-21.6 -10.66,-40.69 -27,-52.35 -16.34,11.66 -27,30.75 -27,52.35 z"
     id="path3"
     style="display:inline;fill:#eceff4;fill-opacity:1;stroke:#a3be8c;stroke-opacity:1" />
  <path
     class="cls-1"
     d="m 125.84,189.83 c 5.59,20.86 20.83,36.55 39.63,43.58 12.76,-15.49 18.12,-36.69 12.53,-57.55 -5.59,-20.86 -20.83,-36.55 -39.63,-43.58 -12.76,15.49 -18.12,36.69 -12.53,57.55 z"
     id="path4"
     style="display:inline;fill:#eceff4;fill-opacity:1;stroke:#a3be8c;stroke-opacity:1" />
  <path
     class="cls-1"
     d="m 152.38,156.86 c 10.8,18.7 29.58,29.91 49.56,31.84 8.32,-18.26 8,-40.13 -2.8,-58.84 -10.8,-18.7 -29.58,-29.91 -49.56,-31.84 -8.32,18.26 -8,40.13 2.8,58.84 z"
     id="path5"
     style="display:inline;fill:#eceff4;fill-opacity:1;stroke:#a3be8c;stroke-opacity:1" />
  <path
     class="cls-1"
     d="m 68.37,175.85 c -5.59,20.86 -0.23,42.07 12.53,57.55 18.8,-7.03 34.04,-22.72 39.63,-43.58 5.59,-20.86 0.23,-42.07 -12.53,-57.55 -18.8,7.03 -34.04,22.72 -39.63,43.58 z"
     id="path6"
     style="display:inline;fill:#eceff4;fill-opacity:1;stroke:#a3be8c;stroke-opacity:1" />
  <path
     class="cls-1"
     d="m 49.02,129.86 c -10.8,18.7 -11.11,40.57 -2.8,58.84 19.98,-1.93 38.76,-13.13 49.56,-31.84 10.8,-18.7 11.11,-40.57 2.8,-58.84 -19.98,1.93 -38.76,13.13 -49.56,31.84 z"
     id="path7"
     style="display:inline;fill:#eceff4;fill-opacity:1;stroke:#a3be8c;stroke-opacity:1" />
  <path
     class="cls-1"
     d="m 94.39,157.8 c 0,21.6 10.66,40.69 27,52.35 16.34,-11.66 27,-30.75 27,-52.35 0,-21.6 -10.66,-40.69 -27,-52.35 -16.34,11.66 -27,30.75 -27,52.35 z"
     id="path8"
     style="display:inline;fill:#eceff4;fill-opacity:1;stroke:#a3be8c;stroke-opacity:1" />
  <path
     class="cls-1"
     d="m 183.4,85.58 c 15.27,15.27 36.31,21.24 56.11,17.93 3.31,-19.79 -2.66,-40.84 -17.93,-56.11 -15.27,-15.27 -36.31,-21.24 -56.11,-17.93 -3.31,19.79 2.66,40.84 17.93,56.11 z"
     id="path9"
     style="display:inline;fill:#eceff4;fill-opacity:1;stroke:#a3be8c;stroke-opacity:1" />
  <path
     class="cls-1"
     d="m 140.2,60.88 c 15.27,15.27 36.31,21.24 56.11,17.93 C 199.62,59.02 193.65,37.97 178.38,22.7 163.11,7.43 142.07,1.47 122.28,4.78 c -3.31,19.79 2.66,40.84 17.93,56.11 z"
     id="path10"
     style="display:inline;fill:#eceff4;fill-opacity:1;stroke:#a3be8c;stroke-opacity:1" />
  <path
     class="cls-1"
     d="m 170.73,117.11 c 15.27,15.27 36.31,21.24 56.11,17.93 C 230.15,115.25 224.18,94.2 208.91,78.93 193.64,63.66 172.6,57.69 152.8,61 c -3.31,19.79 2.66,40.84 17.93,56.11 z"
     id="path11"
     style="display:inline;fill:#eceff4;fill-opacity:1;stroke:#a3be8c;stroke-opacity:1" />
  <path
     class="cls-1"
     d="M 21.31,47.4 C 6.04,62.67 0.08,83.71 3.39,103.51 23.18,106.82 44.23,100.85 59.5,85.58 74.77,70.31 80.74,49.27 77.43,29.47 57.64,26.16 36.59,32.13 21.32,47.4 Z"
     id="path12"
     style="display:inline;fill:#eceff4;fill-opacity:1;stroke:#a3be8c;stroke-opacity:1" />
  <path
     class="cls-1"
     d="M 64.45,22.7 C 49.18,37.97 43.21,59.01 46.52,78.81 66.31,82.12 87.36,76.15 102.63,60.88 117.9,45.61 123.87,24.57 120.56,4.77 100.77,1.46 79.72,7.43 64.45,22.7 Z"
     id="path13"
     style="display:inline;fill:#eceff4;fill-opacity:1;stroke:#a3be8c;stroke-opacity:1" />
  <path
     class="cls-1"
     d="M 33.88,78.93 C 18.61,94.2 12.64,115.24 15.95,135.04 35.74,138.35 56.79,132.38 72.06,117.11 87.33,101.84 93.3,80.8 89.99,61 70.2,57.69 49.15,63.66 33.88,78.93 Z"
     id="path14"
     style="display:inline;fill:#eceff4;fill-opacity:1;stroke:#a3be8c;stroke-opacity:1" />
  <path
     class="cls-1"
     d="m 94.45,82.8 c 0,21.6 10.66,40.69 27,52.35 16.34,-11.66 27,-30.75 27,-52.35 0,-21.6 -10.66,-40.69 -27,-52.35 -16.34,11.66 -27,30.75 -27,52.35 z"
     id="path15"
     style="display:inline;fill:#eceff4;fill-opacity:1;stroke:#a3be8c;stroke-opacity:1" />
</svg>
