<?xml version="1.0" encoding="UTF-8" standalone="no"?>
<svg
   id="Layer_1"
   viewBox="0 0 300 300"
   version="1.1"
   sodipodi:docname="home-base.svg"
   inkscape:version="1.2.2 (b0a8486541, 2022-12-01)"
   width="300"
   height="300"
   inkscape:export-filename="favicon.png"
   inkscape:export-xdpi="96"
   inkscape:export-ydpi="96"
   xmlns:inkscape="http://www.inkscape.org/namespaces/inkscape"
   xmlns:sodipodi="http://sodipodi.sourceforge.net/DTD/sodipodi-0.dtd"
   xmlns="http://www.w3.org/2000/svg"
   xmlns:svg="http://www.w3.org/2000/svg">
  <sodipodi:namedview
     id="namedview15"
     pagecolor="#505050"
     bordercolor="#eeeeee"
     borderopacity="1"
     inkscape:showpageshadow="0"
     inkscape:pageopacity="0"
     inkscape:pagecheckerboard="0"
     inkscape:deskcolor="#d1d1d1"
     inkscape:zoom="1.0944469"
     inkscape:cx="257.20755"
     inkscape:cy="233.90811"
     inkscape:window-width="1920"
     inkscape:window-height="1014"
     inkscape:window-x="0"
     inkscape:window-y="0"
     inkscape:window-maximized="1"
     inkscape:current-layer="Layer_1"
     showgrid="false" />
  <defs
     id="defs1">
    <style
       id="style1">.cls-1{fill:#fff;stroke:#194b24;stroke-miterlimit:10;stroke-width:20px;}</style>
  </defs>
  <g
     id="g1094"
     transform="matrix(0.98762331,0,0,0.98762331,18.704948,-5.5919496e-7)">
    <path
       style="color:#000000;fill:#eceff4;stroke:#2e3440;stroke-width:2;stroke-miterlimit:10;stroke-dasharray:none;stroke-opacity:1"
       d="m 177.81031,69.360236 c 18.7,10.8 40.57,11.11 58.84,2.8 -1.93,-19.98 -13.13,-38.76 -31.84,-49.56 -18.71,-10.79 -40.57,-11.11 -58.84,-2.79 1.93,19.98 13.13,38.76 31.84,49.56 z"
       id="path18" />
    <path
       style="color:#000000;fill:#a3be8c;fill-opacity:1;stroke:#2e3440;stroke-width:8;stroke-miterlimit:10;stroke-dasharray:none;stroke-opacity:1"
       d="m 175.64265,4.0585956 c -11.66353,-0.4539777 -23.26839,1.8469169 -33.8164,6.6503904 l -6.4961,2.958985 0.68555,7.103515 c 2.22833,23.06842 15.23439,44.814351 36.79492,57.259766 l 15,8.658203 V 84.51172 c 17.72082,5.539602 36.61943,4.193673 52.98047,-3.248047 l 6.5,-2.957031 -0.6875,-7.107422 C 244.37526,48.130801 231.3692,26.384869 209.80867,13.939455 l -0.002,-0.002 C 199.0287,7.7218866 187.30613,4.5125765 175.6426,4.0585988 Z m -0.83593,19.9609374 c 8.51145,0.323521 17.07579,2.66977 25.00781,7.24414 13.48878,7.787563 22.24466,20.408452 25.58008,34.396485 -13.78648,4.101058 -29.10336,2.826618 -42.58399,-4.958985 l -0.10742,-0.0625 c -13.42867,-7.792727 -22.1523,-20.378515 -25.47852,-34.330078 5.68227,-1.692535 11.61189,-2.515988 17.58204,-2.289062 z"
       id="path19" />
    <path
       style="color:#000000;fill:#eceff4;stroke:#2e3440;stroke-width:2;stroke-miterlimit:10;stroke-dasharray:none;stroke-opacity:1"
       d="m 61.060308,22.600236 c -18.7,10.8 -29.91,29.58 -31.84,49.56 18.26,8.32 40.13,8 58.84,-2.8 18.700002,-10.8 29.910002,-29.58 31.840002,-49.56 -18.26,-8.31 -40.130002,-7.99 -58.840002,2.8 z"
       id="path20" />
    <path
       style="color:#000000;fill:#a3be8c;fill-opacity:1;stroke:#2e3440;stroke-width:8;stroke-miterlimit:10;stroke-dasharray:none;stroke-opacity:1"
       d="M 90.228589,4.0566425 C 78.564783,4.5120359 66.843158,7.7214982 56.064527,13.937502 l -0.002,0.0019 -0.0039,0.002 C 34.509896,26.386688 21.494347,48.12751 19.265698,71.19922 l -0.685546,7.101563 6.49414,2.958984 c 21.089528,9.609249 46.426384,9.205669 67.984375,-3.238281 l 0.002,-0.002 C 114.60939,65.574253 127.62494,43.833431 129.85359,20.761721 l 0.6875,-7.105469 -6.49805,-2.957031 C 113.49905,5.9007224 101.89239,3.601249 90.228589,4.0566425 Z M 91.068433,24.01758 C 97.03791,23.789978 102.96592,24.612084 108.6446,26.300783 105.30688,40.2889 96.542469,52.913737 83.058667,60.701173 69.56611,68.488647 54.250373,69.767011 40.474683,65.664064 43.811333,51.67609 52.574387,39.052027 66.056714,31.263673 73.988065,26.689688 82.554759,24.342186 91.068433,24.01758 Z"
       id="path21" />
    <path
       style="color:#000000;fill:#eceff4;stroke:#2e3440;stroke-width:2;stroke-miterlimit:10;stroke-dasharray:none;stroke-opacity:1"
       d="m 105.94031,234.21024 c 0,21.6 10.66,40.69 27,52.35 16.34,-11.66 27,-30.75 27,-52.35 0,-21.6 -10.66,-40.69 -27,-52.35 -16.34,11.66 -27,30.75 -27,52.35 z"
       id="path22" />
    <path
       style="color:#000000;fill:#a3be8c;fill-opacity:1;stroke:#2e3440;stroke-width:8;stroke-miterlimit:10;stroke-dasharray:none;stroke-opacity:1"
       d="m 132.93953,169.57618 -5.80859,4.14453 c -18.86693,13.46318 -31.191413,35.60013 -31.191413,60.49023 0,24.8901 12.324483,47.02706 31.191413,60.49024 l 5.80859,4.14453 5.80859,-4.14453 c 18.86693,-13.46318 31.19141,-35.60014 31.19141,-60.49024 0,-24.8901 -12.32448,-47.02705 -31.19141,-60.49023 z m 0,25.27734 c 10.44938,9.88248 17,23.77987 17,39.35742 0,15.57745 -6.55073,29.473 -17,39.35547 -10.44869,-9.88241 -17,-23.77851 -17,-39.35547 0,-15.57705 6.5512,-29.47499 17,-39.35742 z"
       id="path23" />
    <path
       style="color:#000000;fill:#eceff4;stroke:#2e3440;stroke-width:2;stroke-miterlimit:10;stroke-dasharray:none;stroke-opacity:1"
       d="m 137.33031,201.32024 c 5.59,20.86 20.83,36.55 39.63,43.58 12.76,-15.49 18.12,-36.69 12.53,-57.55 -5.59,-20.86 -20.83,-36.55 -39.63,-43.58 -12.76,15.49 -18.12,36.69 -12.53,57.55 z"
       id="path24" />
    <path
       style="color:#000000;fill:#a3be8c;fill-opacity:1;stroke:#2e3440;stroke-width:8;stroke-miterlimit:10;stroke-dasharray:none;stroke-opacity:1"
       d="m 146.67976,131.9043 -4.53711,5.50782 c -14.73314,17.88529 -20.91286,42.4561 -14.4707,66.49609 6.44173,24.03836 24.07372,42.24068 45.78516,50.35937 l 6.68359,2.49805 4.53711,-5.50781 c 14.73314,-17.8853 20.91482,-42.4561 14.47266,-66.4961 -6.44173,-24.03836 -24.07568,-42.23873 -45.78711,-50.35742 z m 6.54492,24.41797 c 12.64804,6.84082 22.57453,18.57506 26.60547,33.61719 4.03054,15.0406 1.29804,30.16045 -6.23437,42.41015 -12.64812,-6.8408 -22.57451,-18.57499 -26.60547,-33.61718 -4.0305,-15.04049 -1.2979,-30.16051 6.23437,-42.41016 z"
       id="path25" />
    <path
       style="color:#000000;fill:#eceff4;stroke:#2e3440;stroke-width:2;stroke-miterlimit:10;stroke-dasharray:none;stroke-opacity:1"
       d="m 163.87031,168.35024 c 10.8,18.7 29.58,29.91 49.56,31.84 8.32,-18.26 8,-40.13 -2.8,-58.84 -10.8,-18.7 -29.58,-29.91 -49.56,-31.84 -8.32,18.26 -8,40.13 2.8,58.84 z"
       id="path26" />
    <path
       style="color:#000000;fill:#a3be8c;fill-opacity:1;stroke:#2e3440;stroke-width:8;stroke-miterlimit:10;stroke-dasharray:none;stroke-opacity:1"
       d="m 148.92976,98.871095 -2.95898,6.492185 c -9.60925,21.08953 -9.20567,46.42834 3.23828,67.98633 h 0.002 v 0.002 c 12.44528,21.54877 34.18611,34.56432 57.25782,36.79297 l 7.10351,0.68554 2.95703,-6.49414 c 9.60925,-21.08952 9.20567,-46.42638 -3.23828,-67.98437 v -0.002 h -0.002 c -12.44528,-21.54877 -34.1861,-34.56432 -57.25781,-36.792968 z m 12.63672,21.894535 c 13.98962,3.33704 26.61616,12.10093 34.4043,25.58594 7.78747,13.49256 9.06584,28.80829 4.96289,42.58398 -13.9888,-3.33684 -26.6141,-12.10031 -34.40234,-25.58398 -7.78865,-13.49312 -9.06803,-28.80947 -4.96485,-42.58594 z"
       id="path27" />
    <path
       style="color:#000000;fill:#eceff4;stroke:#2e3440;stroke-width:2;stroke-miterlimit:10;stroke-dasharray:none;stroke-opacity:1"
       d="m 79.860308,187.34024 c -5.59,20.86 -0.23,42.07 12.53,57.55 18.800002,-7.03 34.040002,-22.72 39.630002,-43.58 5.59,-20.86 0.23,-42.07 -12.53,-57.55 -18.8,7.03 -34.040002,22.72 -39.630002,43.58 z"
       id="path28" />
    <path
       style="color:#000000;fill:#a3be8c;fill-opacity:1;stroke:#2e3440;stroke-width:8;stroke-miterlimit:10;stroke-dasharray:none;stroke-opacity:1"
       d="m 122.67,131.89454 -6.68164,2.5 c -21.711438,8.11869 -39.345387,26.31906 -45.787115,50.35742 -6.442371,24.04076 -0.264672,48.61922 14.472657,66.49805 l 4.537109,5.50585 6.681641,-2.5 c 21.711438,-8.11868 39.345388,-26.31906 45.787108,-50.35742 6.44238,-24.04076 0.26468,-48.61921 -14.47265,-66.49804 z m -6.54297,24.41797 c 7.52937,12.24358 10.26452,27.37098 6.23437,42.41015 -4.03094,15.04213 -13.95938,26.77442 -26.60742,33.61524 -7.529447,-12.24362 -10.264544,-27.37093 -6.234375,-42.41016 4.030943,-15.04212 13.959385,-26.77441 26.607425,-33.61523 z"
       id="path29" />
    <path
       style="color:#000000;fill:#eceff4;stroke:#2e3440;stroke-width:2;stroke-miterlimit:10;stroke-dasharray:none;stroke-opacity:1"
       d="m 60.510308,141.35024 c -10.8,18.7 -11.11,40.57 -2.8,58.84 19.98,-1.93 38.76,-13.13 49.560002,-31.84 10.8,-18.7 11.11,-40.57 2.8,-58.84 -19.980002,1.93 -38.760002,13.13 -49.560002,31.84 z"
       id="path30" />
    <path
       style="color:#000000;fill:#a3be8c;fill-opacity:1;stroke:#2e3440;stroke-width:8;stroke-miterlimit:10;stroke-dasharray:none;stroke-opacity:1"
       d="m 116.21687,98.869142 -7.10742,0.6875 C 86.041029,101.78497 64.295097,114.79104 51.849683,136.35157 39.403694,157.90332 39.01382,183.23785 48.607495,204.33008 l 2.957032,6.5 7.107422,-0.68554 c 23.067572,-2.22825 44.812171,-15.23386 57.257811,-36.79297 l 0.002,-0.002 c 12.44599,-21.55175 12.83586,-46.88823 3.24218,-67.98047 z m -12.64648,21.896488 c 4.10102,13.78645 2.8266,29.10339 -4.958988,42.58398 h -0.002 v 0.002 c -7.787388,13.49093 -20.409088,22.24825 -34.398438,25.58398 -4.101714,-13.78694 -2.826959,-29.10276 4.958984,-42.58398 v -0.002 h 0.002 c 7.787661,-13.4914 20.408498,-22.24852 34.398442,-25.58398 z"
       id="path31" />
    <path
       style="color:#000000;fill:#eceff4;stroke:#2e3440;stroke-width:2;stroke-miterlimit:10;stroke-dasharray:none;stroke-opacity:1"
       d="m 105.88031,169.29024 c 0,21.6 10.66,40.69 27,52.35 16.34,-11.66 27,-30.75 27,-52.35 0,-21.6 -10.66,-40.69 -27,-52.35 -16.34,11.66 -27,30.75 -27,52.35 z"
       id="path32" />
    <path
       style="color:#000000;fill:#a3be8c;fill-opacity:1;stroke:#2e3440;stroke-width:8;stroke-miterlimit:10;stroke-dasharray:none;stroke-opacity:1"
       d="m 132.88094,104.6543 -5.8086,4.14648 c -18.86693,13.46319 -31.191407,35.60014 -31.191407,60.49024 0,24.8901 12.324477,47.0251 31.191407,60.48828 l 5.8086,4.14649 5.80859,-4.14649 c 18.86693,-13.46318 31.1914,-35.59818 31.1914,-60.48828 0,-24.8901 -12.32447,-47.02705 -31.1914,-60.49024 z m 0,25.2793 c 10.4488,9.88243 16.99999,23.78037 16.99999,39.35742 0,15.57696 -6.55131,29.47305 -16.99999,39.35547 -10.44927,-9.88247 -17.00001,-23.77802 -17,-39.35547 -10e-6,-15.57755 6.55061,-29.47494 17,-39.35742 z"
       id="path33" />
    <path
       style="color:#000000;fill:#eceff4;stroke:#2e3440;stroke-width:2;stroke-miterlimit:10;stroke-dasharray:none;stroke-opacity:1"
       d="m 194.89031,97.070236 c 15.27,15.270004 36.31,21.240004 56.11,17.930004 3.31,-19.790004 -2.66,-40.840004 -17.93,-56.110004 -15.27,-15.27 -36.31,-21.24 -56.11,-17.93 -3.31,19.79 2.66,40.84 17.93,56.11 z"
       id="path34" />
    <path
       style="color:#000000;fill:#a3be8c;fill-opacity:1;stroke:#2e3440;stroke-width:8;stroke-miterlimit:10;stroke-dasharray:none;stroke-opacity:1"
       d="m 183.93953,30.16797 c -2.88895,0.141454 -5.77079,0.451891 -8.62891,0.929688 l -7.03711,1.175781 -1.17578,7.037109 c -3.82306,22.857513 3.12303,47.232401 20.7207,64.830082 17.59614,17.59613 41.96511,24.54503 64.83008,20.72266 l 7.03711,-1.17578 1.17774,-7.03711 C 264.68642,93.79288 257.73838,69.416038 240.1407,51.818361 224.74408,36.421744 204.16218,29.177794 183.93953,30.16797 Z m 2.21094,19.982422 c 14.3758,-0.398441 28.83807,4.799008 39.84961,15.810547 11.00922,11.009229 16.20732,25.47997 15.81054,39.849611 -14.3758,0.39844 -28.83807,-4.79901 -39.84961,-15.810548 -11.00923,-11.009229 -16.20732,-25.47997 -15.81054,-39.84961 z"
       id="path35" />
    <path
       style="color:#000000;fill:#eceff4;stroke:#2e3440;stroke-width:2;stroke-miterlimit:10;stroke-dasharray:none;stroke-opacity:1"
       d="m 70.990518,97.071786 c -15.27,15.270004 -36.31,21.240004 -56.11,17.930004 -3.31,-19.790004 2.66,-40.840004 17.93,-56.110004 15.27,-15.27 36.31,-21.24 56.11,-17.93 3.31,19.79 -2.66,40.84 -17.93,56.11 z"
       id="path34-1" />
    <path
       style="color:#000000;fill:#a3be8c;fill-opacity:1;stroke:#2e3440;stroke-width:8;stroke-miterlimit:10;stroke-dasharray:none;stroke-opacity:1"
       d="m 81.941298,30.16952 c 2.88895,0.141454 5.77079,0.451891 8.62891,0.929688 l 7.03711,1.175781 1.17578,7.037109 c 3.823062,22.857513 -3.12303,47.232401 -20.7207,64.830082 -17.59614,17.59613 -41.96511,24.54503 -64.83008,20.72266 l -7.0371102,-1.17578 -1.17774,-7.03711 C 1.1944078,93.79443 8.1424478,69.417588 25.740128,51.819911 41.136748,36.423294 61.718648,29.179344 81.941298,30.16952 Z m -2.21094,19.982422 c -14.3758,-0.398441 -28.83807,4.799008 -39.84961,15.810547 -11.00922,11.009229 -16.20732,25.47997 -15.81054,39.849611 14.3758,0.39844 28.83807,-4.79901 39.84961,-15.810548 11.00923,-11.009229 16.20732,-25.47997 15.81054,-39.84961 z"
       id="path35-3" />
    <path
       style="color:#000000;fill:#eceff4;stroke:#2e3440;stroke-width:2;stroke-miterlimit:10;stroke-dasharray:none;stroke-opacity:1"
       d="m 151.69031,72.370236 c 15.27,15.27 36.31,21.24 56.11,17.93 3.31,-19.79 -2.66,-40.84 -17.93,-56.11 -15.27,-15.27 -36.31,-21.23 -56.1,-17.92 -3.31,19.79 2.66,40.84 17.93,56.11 z"
       id="path36" />
    <path
       style="color:#000000;fill:#eceff4;stroke:#2e3440;stroke-width:2;stroke-miterlimit:10;stroke-dasharray:none;stroke-opacity:1"
       d="m 75.940308,34.190236 c -15.27,15.27 -21.24,36.31 -17.93,56.11 19.79,3.31 40.84,-2.66 56.110002,-17.93 15.27,-15.27 21.24,-36.31 17.93,-56.11 -19.79,-3.31 -40.840002,2.66 -56.110002,17.93 z"
       id="path42" />
    <path
       id="path37"
       style="color:#000000;display:inline;fill:#a3be8c;fill-opacity:1;stroke:#2e3440;stroke-width:8;stroke-miterlimit:10;stroke-dasharray:none;stroke-opacity:1"
       d="M 121.27937,5.3789081 C 102.30121,5.4146645 83.304795,12.683562 68.869214,27.119142 51.273099,44.715259 44.324185,69.084268 48.146558,91.94922 l 1.177734,7.03711 7.03711,1.17773 c 22.857489,3.82306 47.232418,-3.124993 64.830078,-20.722652 4.66076,-4.660756 8.55233,-9.806385 11.7168,-15.263672 3.16296,5.457069 7.05188,10.602887 11.71094,15.263672 0.003,0.0033 0.006,0.0065 0.01,0.0098 17.59536,17.588841 41.95965,24.534552 64.82031,20.712892 l 7.03711,-1.177736 1.17774,-7.03711 C 221.48695,69.091696 214.53914,44.716803 196.94148,27.119142 181.54353,11.72119 160.96139,4.4861023 140.74617,5.4785174 c -2.60915,0.1280898 -5.20994,0.4120193 -7.79492,0.8144532 -2.6121,-0.4094015 -5.23977,-0.6949871 -7.87696,-0.8242188 -1.26368,-0.061925 -2.52971,-0.092227 -3.79492,-0.089844 z m -1.11328,20.0605469 c 0.89804,-0.01896 1.79718,-0.01506 2.69531,0.0098 0.39845,14.375791 -4.80097,28.838081 -15.8125,39.84961 -11.009618,11.009619 -25.479465,16.2097 -39.849608,15.8125 -0.398441,-14.375791 4.800972,-28.838081 15.8125,-39.84961 10.321519,-10.321552 23.683648,-15.537969 37.154298,-15.8223 z m 25.48828,0.0098 c 13.46911,0.281536 26.82302,5.490983 37.14453,15.8125 11.00962,11.00962 16.20971,25.479467 15.8125,39.84961 -14.37148,0.398321 -28.82954,-4.797948 -39.83984,-15.802735 -0.002,-0.0017 -0.002,-0.0042 -0.004,-0.0059 -0.002,-0.0017 -0.004,-0.0022 -0.006,-0.0039 -11.00263,-11.008359 -16.19981,-25.474005 -15.80273,-39.839844 0.89809,-0.02498 1.79737,-0.02853 2.69531,-0.0098 z" />
    <path
       style="color:#000000;fill:#eceff4;stroke:#2e3440;stroke-width:2;stroke-miterlimit:10;stroke-dasharray:none;stroke-opacity:1"
       d="m 182.22031,128.60024 c 15.27,15.27 36.31,21.24 56.11,17.93 3.31,-19.79 -2.66,-40.84 -17.93,-56.110004 -15.27,-15.27 -36.31,-21.24 -56.11,-17.93 -3.31,19.79 2.66,40.840004 17.93,56.110004 z"
       id="path38" />
    <path
       style="color:#000000;fill:#a3be8c;fill-opacity:1;stroke:#2e3440;stroke-width:8;stroke-miterlimit:10;stroke-dasharray:none;stroke-opacity:1"
       d="m 171.26961,61.69922 c -2.88895,0.141454 -5.77079,0.449938 -8.62891,0.927735 l -7.03711,1.175781 -1.17578,7.037109 c -3.82306,22.857513 3.12303,47.234355 20.7207,64.832035 17.59614,17.59613 41.96511,24.54308 64.83008,20.7207 l 7.03711,-1.17578 1.17773,-7.03711 C 252.0165,125.32218 245.06846,100.94729 227.47078,83.349611 212.07416,67.952994 191.49225,60.709044 171.26961,61.69922 Z m 2.21093,19.980469 c 14.37581,-0.398442 28.83807,4.80096 39.84961,15.8125 11.00963,11.009631 16.20775,25.479461 15.81055,39.849611 -14.3758,0.39844 -28.83807,-4.80096 -39.84961,-15.8125 -11.00963,-11.00963 -16.20775,-25.479454 -15.81055,-39.849611 z"
       id="path39" />
    <path
       style="color:#000000;fill:#eceff4;stroke:#2e3440;stroke-width:2;stroke-miterlimit:10;stroke-dasharray:none;stroke-opacity:1"
       d="m 45.370308,90.420236 c -15.27,15.270004 -21.24,36.310004 -17.93,56.110004 19.79,3.31 40.84,-2.66 56.11,-17.93 15.27,-15.27 21.240002,-36.310004 17.930002,-56.110004 -19.790002,-3.31 -40.840002,2.66 -56.110002,17.93 z"
       id="path44" />
    <path
       style="color:#000000;fill:#a3be8c;fill-opacity:1;stroke:#2e3440;stroke-width:8;stroke-miterlimit:10;stroke-dasharray:none;stroke-opacity:1"
       d="M 94.50398,61.697267 C 74.285024,60.706463 53.696869,67.951643 38.298902,83.349611 20.702768,100.94575 13.753868,125.31472 17.576245,148.17969 l 1.177735,7.03711 7.037109,1.17578 c 22.857513,3.82306 47.232401,-3.12302 64.830078,-20.7207 C 108.2173,118.07575 115.1662,93.706773 111.34382,70.841798 l -1.17773,-7.037109 -7.03711,-1.177734 c -2.85719,-0.477883 -5.736578,-0.788144 -8.625,-0.929688 z m -2.212891,19.982422 c 0.398442,14.375804 -4.80096,28.838071 -15.8125,39.849611 -11.00963,11.00963 -25.479453,16.2097 -39.849609,15.8125 -0.398973,-14.37645 4.800461,-28.83757 15.8125,-39.849611 11.00963,-11.00963 25.479453,-16.209702 39.849609,-15.8125 z"
       id="path45" />
    <path
       style="color:#000000;fill:#eceff4;stroke:#2e3440;stroke-width:2;stroke-miterlimit:10;stroke-dasharray:none;stroke-opacity:1"
       d="m 105.94031,94.290236 c 0,21.600004 10.66,40.690004 27,52.350004 16.34,-11.66 27,-30.75 27,-52.350004 0,-21.6 -10.66,-40.69 -27,-52.35 -16.34,11.66 -27,30.75 -27,52.35 z"
       id="path46" />
    <path
       style="color:#000000;fill:#a3be8c;fill-opacity:1;stroke:#2e3440;stroke-width:8;stroke-miterlimit:10;stroke-dasharray:none;stroke-opacity:1"
       d="m 132.93953,29.654298 -5.80859,4.146485 c -18.86693,13.46318 -31.191413,35.600136 -31.191413,60.490234 0,24.890103 12.324483,47.025103 31.191413,60.488283 l 5.80859,4.14649 5.80859,-4.14649 c 18.86693,-13.46318 31.19141,-35.59818 31.19141,-60.488283 0,-24.890098 -12.32448,-47.027054 -31.19141,-60.490234 z m 0,25.279297 c 10.44938,9.882483 17,23.779873 17,39.357422 0,15.577453 -6.55073,29.473003 -17,39.355473 -10.44869,-9.88242 -17,-23.77852 -17,-39.355473 0,-15.577054 6.5512,-29.474995 17,-39.357422 z"
       id="path47" />
  </g>
</svg>
