<?xml version="1.0" encoding="UTF-8" standalone="no"?>
<svg
   id="Layer_1"
   viewBox="0 0 242.89 278.14"
   version="1.1"
   sodipodi:docname="transit-base.svg"
   inkscape:version="1.3 (0e150ed6c4, 2023-07-21)"
   xmlns:inkscape="http://www.inkscape.org/namespaces/inkscape"
   xmlns:sodipodi="http://sodipodi.sourceforge.net/DTD/sodipodi-0.dtd"
   xmlns="http://www.w3.org/2000/svg"
   xmlns:svg="http://www.w3.org/2000/svg">
  <sodipodi:namedview
     id="namedview15"
     pagecolor="#505050"
     bordercolor="#eeeeee"
     borderopacity="1"
     inkscape:showpageshadow="0"
     inkscape:pageopacity="0"
     inkscape:pagecheckerboard="0"
     inkscape:deskcolor="#d1d1d1"
     inkscape:zoom="2.1888937"
     inkscape:cx="111.47184"
     inkscape:cy="146.87785"
     inkscape:window-width="1858"
     inkscape:window-height="1057"
     inkscape:window-x="-8"
     inkscape:window-y="-8"
     inkscape:window-maximized="1"
     inkscape:current-layer="Layer_1" />
  <defs
     id="defs1">
    <style
       id="style1">.cls-1{fill:#fff;stroke:#194b24;stroke-miterlimit:10;stroke-width:20px;}</style>
  </defs>
  <path
     class="cls-1"
     d="M166.32,57.87c18.7,10.8,40.57,11.11,58.84,2.8-1.93-19.98-13.13-38.76-31.84-49.56C174.61,.32,152.75,0,134.48,8.32c1.93,19.98,13.13,38.76,31.84,49.56Z"
     id="path1"
     style="fill:#f7f7f7;fill-opacity:1;stroke:#4a1486;stroke-opacity:1" />
  <path
     class="cls-1"
     d="M49.57,11.11c-18.7,10.8-29.91,29.58-31.84,49.56,18.26,8.32,40.13,8,58.84-2.8,18.7-10.8,29.91-29.58,31.84-49.56C90.15,0,68.28,.32,49.57,11.11Z"
     id="path2"
     style="fill:#f7f7f7;fill-opacity:1;stroke:#4a1486;stroke-opacity:1" />
  <path
     class="cls-1"
     d="M94.45,222.72c0,21.6,10.66,40.69,27,52.35,16.34-11.66,27-30.75,27-52.35,0-21.6-10.66-40.69-27-52.35-16.34,11.66-27,30.75-27,52.35Z"
     id="path3"
     style="fill:#f7f7f7;fill-opacity:1;stroke:#4a1486;stroke-opacity:1" />
  <path
     class="cls-1"
     d="M125.84,189.83c5.59,20.86,20.83,36.55,39.63,43.58,12.76-15.49,18.12-36.69,12.53-57.55-5.59-20.86-20.83-36.55-39.63-43.58-12.76,15.49-18.12,36.69-12.53,57.55Z"
     id="path4"
     style="fill:#f7f7f7;fill-opacity:1;stroke:#4a1486;stroke-opacity:1" />
  <path
     class="cls-1"
     d="M152.38,156.86c10.8,18.7,29.58,29.91,49.56,31.84,8.32-18.26,8-40.13-2.8-58.84-10.8-18.7-29.58-29.91-49.56-31.84-8.32,18.26-8,40.13,2.8,58.84Z"
     id="path5"
     style="fill:#f7f7f7;fill-opacity:1;stroke:#4a1486;stroke-opacity:1" />
  <path
     class="cls-1"
     d="M68.37,175.85c-5.59,20.86-.23,42.07,12.53,57.55,18.8-7.03,34.04-22.72,39.63-43.58,5.59-20.86,.23-42.07-12.53-57.55-18.8,7.03-34.04,22.72-39.63,43.58Z"
     id="path6"
     style="fill:#f7f7f7;fill-opacity:1;stroke:#4a1486;stroke-opacity:1" />
  <path
     class="cls-1"
     d="M49.02,129.86c-10.8,18.7-11.11,40.57-2.8,58.84,19.98-1.93,38.76-13.13,49.56-31.84,10.8-18.7,11.11-40.57,2.8-58.84-19.98,1.93-38.76,13.13-49.56,31.84Z"
     id="path7"
     style="fill:#f7f7f7;fill-opacity:1;stroke:#4a1486;stroke-opacity:1" />
  <path
     class="cls-1"
     d="M94.39,157.8c0,21.6,10.66,40.69,27,52.35,16.34-11.66,27-30.75,27-52.35,0-21.6-10.66-40.69-27-52.35-16.34,11.66-27,30.75-27,52.35Z"
     id="path8"
     style="fill:#f7f7f7;fill-opacity:1;stroke:#4a1486;stroke-opacity:1" />
  <path
     class="cls-1"
     d="M183.4,85.58c15.27,15.27,36.31,21.24,56.11,17.93,3.31-19.79-2.66-40.84-17.93-56.11-15.27-15.27-36.31-21.24-56.11-17.93-3.31,19.79,2.66,40.84,17.93,56.11Z"
     id="path9"
     style="fill:#f7f7f7;fill-opacity:1;stroke:#4a1486;stroke-opacity:1" />
  <path
     class="cls-1"
     d="M140.2,60.88c15.27,15.27,36.31,21.24,56.11,17.93,3.31-19.79-2.66-40.84-17.93-56.11C163.11,7.43,142.07,1.47,122.28,4.78c-3.31,19.79,2.66,40.84,17.93,56.11Z"
     id="path10"
     style="fill:#f7f7f7;fill-opacity:1;stroke:#4a1486;stroke-opacity:1" />
  <path
     class="cls-1"
     d="M170.73,117.11c15.27,15.27,36.31,21.24,56.11,17.93,3.31-19.79-2.66-40.84-17.93-56.11-15.27-15.27-36.31-21.24-56.11-17.93-3.31,19.79,2.66,40.84,17.93,56.11Z"
     id="path11"
     style="fill:#f7f7f7;fill-opacity:1;stroke:#4a1486;stroke-opacity:1" />
  <path
     class="cls-1"
     d="M21.31,47.4C6.04,62.67,.08,83.71,3.39,103.51c19.79,3.31,40.84-2.66,56.11-17.93,15.27-15.27,21.24-36.31,17.93-56.11-19.79-3.31-40.84,2.66-56.11,17.93Z"
     id="path12"
     style="fill:#f7f7f7;fill-opacity:1;stroke:#4a1486;stroke-opacity:1" />
  <path
     class="cls-1"
     d="M64.45,22.7c-15.27,15.27-21.24,36.31-17.93,56.11,19.79,3.31,40.84-2.66,56.11-17.93,15.27-15.27,21.24-36.31,17.93-56.11-19.79-3.31-40.84,2.66-56.11,17.93Z"
     id="path13"
     style="fill:#f7f7f7;fill-opacity:1;stroke:#4a1486;stroke-opacity:1" />
  <path
     class="cls-1"
     d="M33.88,78.93c-15.27,15.27-21.24,36.31-17.93,56.11,19.79,3.31,40.84-2.66,56.11-17.93,15.27-15.27,21.24-36.31,17.93-56.11-19.79-3.31-40.84,2.66-56.11,17.93Z"
     id="path14"
     style="fill:#f7f7f7;fill-opacity:1;stroke:#4a1486;stroke-opacity:1" />
  <path
     class="cls-1"
     d="M94.45,82.8c0,21.6,10.66,40.69,27,52.35,16.34-11.66,27-30.75,27-52.35,0-21.6-10.66-40.69-27-52.35-16.34,11.66-27,30.75-27,52.35Z"
     id="path15"
     style="fill:#f7f7f7;fill-opacity:1;stroke:#4a1486;stroke-opacity:1" />
</svg>
