<?xml version="1.0" encoding="UTF-8" standalone="no"?>
<svg
   id="Layer_1"
   viewBox="0 0 242.89 278.14"
   version="1.1"
   sodipodi:docname="home-base.svg"
   inkscape:version="1.3.2 (091e20e, 2023-11-25, custom)"
   width="242.89"
   height="278.14001"
   inkscape:export-filename="walk-base.svg"
   inkscape:export-xdpi="96"
   inkscape:export-ydpi="96"
   xmlns:inkscape="http://www.inkscape.org/namespaces/inkscape"
   xmlns:sodipodi="http://sodipodi.sourceforge.net/DTD/sodipodi-0.dtd"
   xmlns="http://www.w3.org/2000/svg"
   xmlns:svg="http://www.w3.org/2000/svg">
  <sodipodi:namedview
     id="namedview15"
     pagecolor="#505050"
     bordercolor="#eeeeee"
     borderopacity="1"
     inkscape:showpageshadow="0"
     inkscape:pageopacity="0"
     inkscape:pagecheckerboard="0"
     inkscape:deskcolor="#d1d1d1"
     inkscape:zoom="1.5477816"
     inkscape:cx="197.37927"
     inkscape:cy="117.26461"
     inkscape:window-width="1858"
     inkscape:window-height="1057"
     inkscape:window-x="1072"
     inkscape:window-y="418"
     inkscape:window-maximized="1"
     inkscape:current-layer="Layer_1" />
  <defs
     id="defs1">
    <style
       id="style1">.cls-1{fill:#fff;stroke:#194b24;stroke-miterlimit:10;stroke-width:20px;}</style>
  </defs>
  <path
     style="color:#000000;fill:#eceff4;stroke:#2e3440;stroke-width:2;stroke-miterlimit:10;stroke-dasharray:none;stroke-opacity:1"
     d="m 166.32,57.87 c 18.7,10.8 40.57,11.11 58.84,2.8 C 223.23,40.69 212.03,21.91 193.32,11.11 174.61,0.32 152.75,0 134.48,8.32 c 1.93,19.98 13.13,38.76 31.84,49.56 z"
     id="path18" />
  <path
     style="color:#000000;fill:#b48ead;fill-opacity:1;stroke:#2e3440;stroke-width:2;stroke-miterlimit:10;stroke-dasharray:none;stroke-opacity:1"
     d="m 164.15234,-7.4316406 c -11.66353,-0.4539777 -23.26839,1.8469169 -33.8164,6.6503906 l -6.4961,2.9589844 0.68555,7.1035156 c 2.22833,23.06842 15.23439,44.814351 36.79492,57.259766 l 15,8.658203 v -2.177735 c 17.72082,5.539602 36.61943,4.193673 52.98047,-3.248047 l 6.5,-2.957031 -0.6875,-7.107422 C 232.88495,36.640565 219.87889,14.894633 198.31836,2.4492188 l -0.002,-0.00195 c -10.77797,-6.2156184 -22.50054,-9.4249285 -34.16407,-9.8789062 z m -0.83593,19.9609376 c 8.51145,0.323521 17.07579,2.66977 25.00781,7.24414 13.48878,7.787563 22.24466,20.408452 25.58008,34.396485 -13.78648,4.101058 -29.10336,2.826618 -42.58399,-4.958985 l -0.10742,-0.0625 c -13.42867,-7.792727 -22.1523,-20.378515 -25.47852,-34.330078 5.68227,-1.692535 11.61189,-2.515988 17.58204,-2.289062 z"
     id="path19" />
  <path
     style="color:#000000;fill:#eceff4;stroke:#2e3440;stroke-width:2;stroke-miterlimit:10;stroke-dasharray:none;stroke-opacity:1"
     d="m 49.57,11.11 c -18.7,10.8 -29.91,29.58 -31.84,49.56 18.26,8.32 40.13,8 58.84,-2.8 C 95.27,47.07 106.48,28.29 108.41,8.31 90.15,0 68.28,0.32 49.57,11.11 Z"
     id="path20" />
  <path
     style="color:#000000;fill:#b48ead;fill-opacity:1;stroke:#2e3440;stroke-width:2;stroke-miterlimit:10;stroke-dasharray:none;stroke-opacity:1"
     d="M 78.738281,-7.4335937 C 67.074475,-6.9782003 55.35285,-3.768738 44.574219,2.4472656 l -0.002,0.00195 -0.0039,0.00195 C 23.019588,14.896452 10.004039,36.637274 7.7753906,59.708984 l -0.6855469,7.101563 6.4941403,2.958984 C 34.673512,79.37878 60.010368,78.9752 81.568359,66.53125 l 0.002,-0.002 C 103.11908,54.084017 116.13463,32.343195 118.36328,9.2714844 l 0.6875,-7.1054688 -6.49805,-2.95703122 C 102.00874,-5.5895138 90.402087,-7.8889872 78.738281,-7.4335937 Z m 0.839844,19.9609377 c 5.969477,-0.227602 11.897488,0.594504 17.576172,2.283203 C 93.81657,28.798664 85.052161,41.423501 71.568359,49.210937 58.075802,56.998411 42.760065,58.276775 28.984375,54.173828 32.321025,40.185854 41.084079,27.561791 54.566406,19.773437 62.497757,15.199452 71.064451,12.85195 79.578125,12.527344 Z"
     id="path21" />
  <path
     style="color:#000000;fill:#eceff4;stroke:#2e3440;stroke-width:2;stroke-miterlimit:10;stroke-dasharray:none;stroke-opacity:1"
     d="m 94.45,222.72 c 0,21.6 10.66,40.69 27,52.35 16.34,-11.66 27,-30.75 27,-52.35 0,-21.6 -10.66,-40.69 -27,-52.35 -16.34,11.66 -27,30.75 -27,52.35 z"
     id="path22" />
  <path
     style="color:#000000;fill:#b48ead;fill-opacity:1;stroke:#2e3440;stroke-width:2;stroke-miterlimit:10;stroke-dasharray:none;stroke-opacity:1"
     d="m 121.44922,158.08594 -5.80859,4.14453 c -18.866932,13.46318 -31.191411,35.60013 -31.191411,60.49023 0,24.8901 12.324479,47.02706 31.191411,60.49024 l 5.80859,4.14453 5.80859,-4.14453 c 18.86693,-13.46318 31.19141,-35.60014 31.19141,-60.49024 0,-24.8901 -12.32448,-47.02705 -31.19141,-60.49023 z m 0,25.27734 c 10.44938,9.88248 17,23.77987 17,39.35742 0,15.57745 -6.55073,29.473 -17,39.35547 -10.44869,-9.88241 -17,-23.77851 -17,-39.35547 0,-15.57705 6.5512,-29.47499 17,-39.35742 z"
     id="path23" />
  <path
     style="color:#000000;fill:#eceff4;stroke:#2e3440;stroke-width:2;stroke-miterlimit:10;stroke-dasharray:none;stroke-opacity:1"
     d="m 125.84,189.83 c 5.59,20.86 20.83,36.55 39.63,43.58 12.76,-15.49 18.12,-36.69 12.53,-57.55 -5.59,-20.86 -20.83,-36.55 -39.63,-43.58 -12.76,15.49 -18.12,36.69 -12.53,57.55 z"
     id="path24" />
  <path
     style="color:#000000;fill:#b48ead;fill-opacity:1;stroke:#2e3440;stroke-width:2;stroke-miterlimit:10;stroke-dasharray:none;stroke-opacity:1"
     d="m 135.18945,120.41406 -4.53711,5.50782 c -14.73314,17.88529 -20.91286,42.4561 -14.4707,66.49609 6.44173,24.03836 24.07372,42.24068 45.78516,50.35937 l 6.68359,2.49805 4.53711,-5.50781 c 14.73314,-17.8853 20.91482,-42.4561 14.47266,-66.4961 -6.44173,-24.03836 -24.07568,-42.23873 -45.78711,-50.35742 z m 6.54492,24.41797 c 12.64804,6.84082 22.57453,18.57506 26.60547,33.61719 4.03054,15.0406 1.29804,30.16045 -6.23437,42.41015 -12.64812,-6.8408 -22.57451,-18.57499 -26.60547,-33.61718 -4.0305,-15.04049 -1.2979,-30.16051 6.23437,-42.41016 z"
     id="path25" />
  <path
     style="color:#000000;fill:#eceff4;stroke:#2e3440;stroke-width:2;stroke-miterlimit:10;stroke-dasharray:none;stroke-opacity:1"
     d="m 152.38,156.86 c 10.8,18.7 29.58,29.91 49.56,31.84 8.32,-18.26 8,-40.13 -2.8,-58.84 -10.8,-18.7 -29.58,-29.91 -49.56,-31.84 -8.32,18.26 -8,40.13 2.8,58.84 z"
     id="path26" />
  <path
     style="color:#000000;fill:#b48ead;fill-opacity:1;stroke:#2e3440;stroke-width:2;stroke-miterlimit:10;stroke-dasharray:none;stroke-opacity:1"
     d="m 137.43945,87.380859 -2.95898,6.492188 c -9.60925,21.089523 -9.20567,46.428333 3.23828,67.986323 h 0.002 v 0.002 c 12.44528,21.54877 34.18611,34.56432 57.25782,36.79297 l 7.10351,0.68554 2.95703,-6.49414 c 9.60925,-21.08952 9.20567,-46.42638 -3.23828,-67.98437 v -0.002 h -0.002 C 189.35355,103.3106 167.61273,90.295055 144.54102,88.066406 Z m 12.63672,21.894531 c 13.98962,3.33704 26.61616,12.10093 34.4043,25.58594 7.78747,13.49256 9.06584,28.80829 4.96289,42.58398 -13.9888,-3.33684 -26.6141,-12.10031 -34.40234,-25.58398 -7.78865,-13.49312 -9.06803,-28.80947 -4.96485,-42.58594 z"
     id="path27" />
  <path
     style="color:#000000;fill:#eceff4;stroke:#2e3440;stroke-width:2;stroke-miterlimit:10;stroke-dasharray:none;stroke-opacity:1"
     d="m 68.37,175.85 c -5.59,20.86 -0.23,42.07 12.53,57.55 18.8,-7.03 34.04,-22.72 39.63,-43.58 5.59,-20.86 0.23,-42.07 -12.53,-57.55 -18.8,7.03 -34.04,22.72 -39.63,43.58 z"
     id="path28" />
  <path
     style="color:#000000;fill:#b48ead;fill-opacity:1;stroke:#2e3440;stroke-width:2;stroke-miterlimit:10;stroke-dasharray:none;stroke-opacity:1"
     d="m 111.17969,120.4043 -6.68164,2.5 c -21.711436,8.11869 -39.345385,26.31906 -45.787113,50.35742 -6.442371,24.04076 -0.264672,48.61922 14.472657,66.49805 l 4.537109,5.50585 6.681641,-2.5 c 21.711436,-8.11868 39.345386,-26.31906 45.787106,-50.35742 6.44238,-24.04076 0.26468,-48.61921 -14.47265,-66.49804 z m -6.54297,24.41797 c 7.52937,12.24358 10.26452,27.37098 6.23437,42.41015 -4.03094,15.04213 -13.959382,26.77442 -26.607418,33.61524 -7.529447,-12.24362 -10.264544,-27.37093 -6.234375,-42.41016 4.030943,-15.04212 13.959385,-26.77441 26.607423,-33.61523 z"
     id="path29" />
  <path
     style="color:#000000;fill:#eceff4;stroke:#2e3440;stroke-width:2;stroke-miterlimit:10;stroke-dasharray:none;stroke-opacity:1"
     d="m 49.02,129.86 c -10.8,18.7 -11.11,40.57 -2.8,58.84 19.98,-1.93 38.76,-13.13 49.56,-31.84 10.8,-18.7 11.11,-40.57 2.8,-58.84 -19.98,1.93 -38.76,13.13 -49.56,31.84 z"
     id="path30" />
  <path
     style="color:#000000;fill:#b48ead;fill-opacity:1;stroke:#2e3440;stroke-width:2;stroke-miterlimit:10;stroke-dasharray:none;stroke-opacity:1"
     d="m 104.72656,87.378906 -7.107419,0.6875 C 74.550721,90.294737 52.804789,103.3008 40.359375,124.86133 27.913386,146.41308 27.523512,171.74761 37.117187,192.83984 l 2.957032,6.5 7.107422,-0.68554 c 23.067572,-2.22825 44.812172,-15.23386 57.257809,-36.79297 l 0.002,-0.002 c 12.44599,-21.55175 12.83586,-46.88823 3.24218,-67.980464 z M 92.080078,109.27539 c 4.101025,13.78645 2.826601,29.10339 -4.958984,42.58398 h -0.002 v 0.002 c -7.787388,13.49093 -20.409088,22.24825 -34.398438,25.58398 -4.101714,-13.78694 -2.826959,-29.10276 4.958984,-42.58398 v -0.002 h 0.002 c 7.787661,-13.4914 20.408498,-22.24852 34.398438,-25.58398 z"
     id="path31" />
  <path
     style="color:#000000;fill:#eceff4;stroke:#2e3440;stroke-width:2;stroke-miterlimit:10;stroke-dasharray:none;stroke-opacity:1"
     d="m 94.39,157.8 c 0,21.6 10.66,40.69 27,52.35 16.34,-11.66 27,-30.75 27,-52.35 0,-21.6 -10.66,-40.69 -27,-52.35 -16.34,11.66 -27,30.75 -27,52.35 z"
     id="path32" />
  <path
     style="color:#000000;fill:#b48ead;fill-opacity:1;stroke:#2e3440;stroke-width:2;stroke-miterlimit:10;stroke-dasharray:none;stroke-opacity:1"
     d="m 121.39063,93.164062 -5.8086,4.146485 C 96.715104,110.77373 84.390625,132.91068 84.390625,157.80078 c 0,24.8901 12.324479,47.0251 31.191405,60.48828 l 5.8086,4.14649 5.80859,-4.14649 c 18.86693,-13.46318 31.1914,-35.59818 31.1914,-60.48828 0,-24.8901 -12.32447,-47.02705 -31.1914,-60.490233 z m 0,25.279298 c 10.4488,9.88243 16.99999,23.78037 16.99999,39.35742 0,15.57696 -6.55131,29.47305 -16.99999,39.35547 -10.44927,-9.88247 -17.00001,-23.77802 -17,-39.35547 -1e-5,-15.57755 6.55061,-29.47494 17,-39.35742 z"
     id="path33" />
  <path
     style="color:#000000;fill:#eceff4;stroke:#2e3440;stroke-width:2;stroke-miterlimit:10;stroke-dasharray:none;stroke-opacity:1"
     d="m 183.4,85.58 c 15.27,15.27 36.31,21.24 56.11,17.93 3.31,-19.79 -2.66,-40.84 -17.93,-56.11 -15.27,-15.27 -36.31,-21.24 -56.11,-17.93 -3.31,19.79 2.66,40.84 17.93,56.11 z"
     id="path34" />
  <path
     style="color:#000000;fill:#b48ead;fill-opacity:1;stroke:#2e3440;stroke-width:2;stroke-miterlimit:10;stroke-dasharray:none;stroke-opacity:1"
     d="m 172.44922,18.677734 c -2.88895,0.141454 -5.77079,0.451891 -8.62891,0.929688 l -7.03711,1.175781 -1.17578,7.037109 c -3.82306,22.857513 3.12303,47.232401 20.7207,64.830079 17.59614,17.596129 41.96511,24.545029 64.83008,20.722659 l 7.03711,-1.17578 1.17774,-7.03711 C 253.19611,82.302644 246.24807,57.925802 228.65039,40.328125 213.25377,24.931508 192.67187,17.687558 172.44922,18.677734 Z m 2.21094,19.982422 c 14.3758,-0.398441 28.83807,4.799008 39.84961,15.810547 11.00922,11.009229 16.20732,25.47997 15.81054,39.849609 -14.3758,0.398442 -28.83807,-4.799007 -39.84961,-15.810546 -11.00923,-11.009229 -16.20732,-25.47997 -15.81054,-39.84961 z"
     id="path35" />
  <path
     style="color:#000000;fill:#eceff4;stroke:#2e3440;stroke-width:2;stroke-miterlimit:10;stroke-dasharray:none;stroke-opacity:1"
     d="m 59.50021,85.58155 c -15.27,15.27 -36.31,21.24 -56.11,17.93 -3.31,-19.79 2.66,-40.84 17.93,-56.11 15.27,-15.27 36.31,-21.24 56.11,-17.93 3.31,19.79 -2.66,40.84 -17.93,56.11 z"
     id="path34-1" />
  <path
     style="color:#000000;fill:#b48ead;fill-opacity:1;stroke:#2e3440;stroke-width:2;stroke-miterlimit:10;stroke-dasharray:none;stroke-opacity:1"
     d="m 70.45099,18.679284 c 2.88895,0.141454 5.77079,0.451891 8.62891,0.929688 l 7.03711,1.175781 1.17578,7.037109 C 91.11585,50.679375 84.16976,75.054263 66.57209,92.651941 48.97595,110.24807 24.60698,117.19697 1.74201,113.3746 l -7.03711,-1.17578 -1.17774,-7.03711 C -10.2959,82.304194 -3.34786,57.927352 14.24982,40.329675 29.64644,24.933058 50.22834,17.689108 70.45099,18.679284 Z M 68.24005,38.661706 C 53.86425,38.263265 39.40198,43.460714 28.39044,54.472253 17.38122,65.481482 12.18312,79.952223 12.5799,94.321862 26.9557,94.720304 41.41797,89.522855 52.42951,78.511316 63.43874,67.502087 68.63683,53.031346 68.24005,38.661706 Z"
     id="path35-3" />
  <path
     style="color:#000000;fill:#eceff4;stroke:#2e3440;stroke-width:2;stroke-miterlimit:10;stroke-dasharray:none;stroke-opacity:1"
     d="m 140.2,60.88 c 15.27,15.27 36.31,21.24 56.11,17.93 C 199.62,59.02 193.65,37.97 178.38,22.7 163.11,7.43 142.07,1.47 122.28,4.78 c -3.31,19.79 2.66,40.84 17.93,56.11 z"
     id="path36" />
  <path
     style="color:#000000;fill:#eceff4;stroke:#2e3440;stroke-width:2;stroke-miterlimit:10;stroke-dasharray:none;stroke-opacity:1"
     d="M 64.45,22.7 C 49.18,37.97 43.21,59.01 46.52,78.81 66.31,82.12 87.36,76.15 102.63,60.88 117.9,45.61 123.87,24.57 120.56,4.77 100.77,1.46 79.72,7.43 64.45,22.7 Z"
     id="path42" />
  <path
     id="path37"
     style="color:#000000;display:inline;fill:#b48ead;fill-opacity:1;stroke:#2e3440;stroke-width:2;stroke-miterlimit:10;stroke-dasharray:none;stroke-opacity:1"
     d="M 109.78906,-6.1113281 C 90.810907,-6.0755717 71.814487,1.1933263 57.378906,15.628906 39.782791,33.225023 32.833877,57.594032 36.65625,80.458984 l 1.177734,7.03711 7.03711,1.177734 c 22.857489,3.823057 47.23242,-3.124997 64.830076,-20.722656 4.66076,-4.660756 8.55233,-9.806385 11.7168,-15.263672 3.16296,5.457069 7.05188,10.602887 11.71094,15.263672 0.003,0.0033 0.006,0.0065 0.01,0.0098 17.59536,17.588841 41.95965,24.534548 64.82031,20.71289 l 7.03711,-1.177734 1.17774,-7.03711 C 209.99664,57.60146 203.04883,33.226567 185.45117,15.628906 170.05322,0.23095428 149.47108,-7.0041339 129.25586,-6.0117188 c -2.60915,0.1280898 -5.20994,0.4120193 -7.79492,0.8144532 -2.6121,-0.4094015 -5.23977,-0.6949871 -7.87696,-0.8242188 -1.26368,-0.061925 -2.52971,-0.092227 -3.79492,-0.089844 z m -1.11328,20.0605471 c 0.89804,-0.01896 1.79718,-0.01506 2.69531,0.0098 0.39845,14.375791 -4.80097,28.838081 -15.812496,39.84961 -11.00962,11.009619 -25.479467,16.2097 -39.84961,15.8125 -0.398441,-14.375791 4.800972,-28.838081 15.8125,-39.84961 10.321519,-10.321552 23.683649,-15.537969 37.154296,-15.8223 z m 25.48828,0.0098 c 13.46911,0.281536 26.82302,5.490983 37.14453,15.8125 11.00962,11.00962 16.20971,25.479467 15.8125,39.84961 -14.37148,0.398321 -28.82954,-4.797948 -39.83984,-15.802735 -0.002,-0.0017 -0.002,-0.0042 -0.004,-0.0059 -0.002,-0.0017 -0.004,-0.0022 -0.006,-0.0039 -11.00263,-11.008359 -16.19981,-25.474005 -15.80273,-39.839844 0.89809,-0.02498 1.79737,-0.02853 2.69531,-0.0098 z" />
  <path
     style="color:#000000;fill:#eceff4;stroke:#2e3440;stroke-width:2;stroke-miterlimit:10;stroke-dasharray:none;stroke-opacity:1"
     d="m 170.73,117.11 c 15.27,15.27 36.31,21.24 56.11,17.93 C 230.15,115.25 224.18,94.2 208.91,78.93 193.64,63.66 172.6,57.69 152.8,61 c -3.31,19.79 2.66,40.84 17.93,56.11 z"
     id="path38" />
  <path
     style="color:#000000;fill:#b48ead;fill-opacity:1;stroke:#2e3440;stroke-width:2;stroke-miterlimit:10;stroke-dasharray:none;stroke-opacity:1"
     d="m 159.7793,50.208984 c -2.88895,0.141454 -5.77079,0.449938 -8.62891,0.927735 l -7.03711,1.175781 -1.17578,7.037109 c -3.82306,22.857513 3.12303,47.234351 20.7207,64.832031 17.59614,17.59613 41.96511,24.54308 64.83008,20.7207 l 7.03711,-1.17578 1.17773,-7.03711 C 240.52619,113.83194 233.57815,89.457052 215.98047,71.859375 200.58385,56.462758 180.00194,49.218808 159.7793,50.208984 Z m 2.21093,19.980469 c 14.37581,-0.398442 28.83807,4.80096 39.84961,15.8125 11.00963,11.009631 16.20775,25.479457 15.81055,39.849607 -14.3758,0.39844 -28.83807,-4.80096 -39.84961,-15.8125 C 166.79115,99.029432 161.59303,84.55961 161.99023,70.189453 Z"
     id="path39" />
  <path
     style="color:#000000;fill:#eceff4;stroke:#2e3440;stroke-width:2;stroke-miterlimit:10;stroke-dasharray:none;stroke-opacity:1"
     d="M 33.88,78.93 C 18.61,94.2 12.64,115.24 15.95,135.04 35.74,138.35 56.79,132.38 72.06,117.11 87.33,101.84 93.3,80.8 89.99,61 70.2,57.69 49.15,63.66 33.88,78.93 Z"
     id="path44" />
  <path
     style="color:#000000;fill:#b48ead;fill-opacity:1;stroke:#2e3440;stroke-width:2;stroke-miterlimit:10;stroke-dasharray:none;stroke-opacity:1"
     d="M 83.013672,50.207031 C 62.794716,49.216227 42.206561,56.461407 26.808594,71.859375 9.21246,89.455509 2.2635604,113.82448 6.0859375,136.68945 l 1.1777344,7.03711 7.0371091,1.17578 c 22.857513,3.82306 47.232401,-3.12302 64.830078,-20.7207 17.596134,-17.59613 24.545031,-41.965103 20.722657,-64.830078 l -1.177735,-7.037109 -7.037109,-1.177734 c -2.857189,-0.477883 -5.736578,-0.788144 -8.625,-0.929688 z m -2.212891,19.982422 c 0.398442,14.375804 -4.80096,28.83807 -15.8125,39.849607 -11.00963,11.00963 -25.479453,16.2097 -39.849609,15.8125 -0.398973,-14.37645 4.800461,-28.837568 15.8125,-39.849607 11.00963,-11.00963 25.479453,-16.209702 39.849609,-15.8125 z"
     id="path45" />
  <path
     style="color:#000000;fill:#eceff4;stroke:#2e3440;stroke-width:2;stroke-miterlimit:10;stroke-dasharray:none;stroke-opacity:1"
     d="m 94.45,82.8 c 0,21.6 10.66,40.69 27,52.35 16.34,-11.66 27,-30.75 27,-52.35 0,-21.6 -10.66,-40.69 -27,-52.35 -16.34,11.66 -27,30.75 -27,52.35 z"
     id="path46" />
  <path
     style="color:#000000;fill:#b48ead;fill-opacity:1;stroke:#2e3440;stroke-width:2;stroke-miterlimit:10;stroke-dasharray:none;stroke-opacity:1"
     d="m 121.44922,18.164062 -5.80859,4.146485 c -18.866932,13.46318 -31.191411,35.600136 -31.191411,60.490234 0,24.890099 12.324479,47.025099 31.191411,60.488279 l 5.80859,4.14649 5.80859,-4.14649 c 18.86693,-13.46318 31.19141,-35.59818 31.19141,-60.488279 0,-24.890098 -12.32448,-47.027054 -31.19141,-60.490234 z m 0,25.279297 c 10.44938,9.882483 17,23.779873 17,39.357422 0,15.577452 -6.55073,29.472999 -17,39.355469 -10.44869,-9.88242 -17,-23.778512 -17,-39.355469 0,-15.577054 6.5512,-29.474995 17,-39.357422 z"
     id="path47" />
</svg>
