<?xml version="1.0" encoding="UTF-8" standalone="no"?>
<svg
   id="Layer_1"
   viewBox="0 0 300 300"
   version="1.1"
   sodipodi:docname="home-base.svg"
   inkscape:version="1.2.2 (b0a8486541, 2022-12-01)"
   width="300"
   height="300"
   inkscape:export-filename="walk-base.svg"
   inkscape:export-xdpi="96"
   inkscape:export-ydpi="96"
   xmlns:inkscape="http://www.inkscape.org/namespaces/inkscape"
   xmlns:sodipodi="http://sodipodi.sourceforge.net/DTD/sodipodi-0.dtd"
   xmlns="http://www.w3.org/2000/svg"
   xmlns:svg="http://www.w3.org/2000/svg">
  <sodipodi:namedview
     id="namedview15"
     pagecolor="#505050"
     bordercolor="#eeeeee"
     borderopacity="1"
     inkscape:showpageshadow="0"
     inkscape:pageopacity="0"
     inkscape:pagecheckerboard="0"
     inkscape:deskcolor="#d1d1d1"
     inkscape:zoom="1.0944469"
     inkscape:cx="257.20755"
     inkscape:cy="233.90811"
     inkscape:window-width="1920"
     inkscape:window-height="1014"
     inkscape:window-x="0"
     inkscape:window-y="0"
     inkscape:window-maximized="1"
     inkscape:current-layer="Layer_1"
     showgrid="false" />
  <defs
     id="defs1">
    <style
       id="style1">.cls-1{fill:#fff;stroke:#194b24;stroke-miterlimit:10;stroke-width:20px;}</style>
  </defs>
  <path
     style="color:#000000;fill:#eceff4;stroke:#2e3440;stroke-width:1.97525;stroke-miterlimit:10;stroke-dasharray:none;stroke-opacity:1"
     d="m 194.31455,68.501785 c 18.46856,10.666332 40.06788,10.972495 58.11176,2.765346 C 250.5202,51.534417 239.45882,32.986851 220.98038,22.320519 202.50195,11.664064 180.91251,11.348024 162.86863,19.56505 c 1.90611,19.732714 12.96749,38.28028 31.44592,48.946612 z"
     id="path18" />
  <path
     style="color:#000000;fill:#b48ead;fill-opacity:1;stroke:#2e3440;stroke-width:7.90099;stroke-miterlimit:10;stroke-dasharray:none;stroke-opacity:1"
     d="m 192.17372,4.0083631 c -11.51917,-0.448359 -22.9804,1.8240581 -33.39786,6.5680809 l -6.4157,2.922362 0.67706,7.015597 c 2.20075,22.78291 15.04584,44.259698 36.33952,56.55108 l 14.81435,8.551043 v -2.150782 c 17.5015,5.47104 36.16621,4.141769 52.32475,-3.207847 l 6.41955,-2.920433 -0.67899,-7.019455 C 260.05565,47.5351 247.21056,26.058311 225.91688,13.76693 l -0.002,-0.002 C 215.27033,7.6263146 203.69285,4.4567252 192.17367,4.0083662 Z M 191.34814,23.72225 c 8.40611,0.319517 16.86445,2.636727 24.6983,7.154482 13.32183,7.691178 21.96934,20.155863 25.26348,33.97077 -13.61585,4.0503 -28.74316,2.791634 -42.05694,-4.897609 l -0.10609,-0.06173 C 185.88442,52.191888 177.26876,39.76187 173.98371,25.982981 c 5.61194,-1.671587 11.46817,-2.484848 17.36443,-2.260731 z"
     id="path19" />
  <path
     style="color:#000000;fill:#eceff4;stroke:#2e3440;stroke-width:1.97525;stroke-miterlimit:10;stroke-dasharray:none;stroke-opacity:1"
     d="M 79.009531,22.320519 C 60.540976,32.986851 49.469718,51.534417 47.563605,71.267131 c 18.034002,8.217026 39.633324,7.900986 58.111755,-2.765346 18.46856,-10.666331 29.53982,-29.213897 31.44593,-48.946611 -18.034,-8.20715 -39.633326,-7.89111 -58.111759,2.765345 z"
     id="path20" />
  <path
     style="color:#000000;fill:#b48ead;fill-opacity:1;stroke:#2e3440;stroke-width:7.90099;stroke-miterlimit:10;stroke-dasharray:none;stroke-opacity:1"
     d="M 107.81681,4.0064341 C 96.297359,4.4561913 84.720809,7.6259311 74.075582,13.765001 l -0.002,0.0019 -0.0039,0.002 C 52.787726,26.060108 39.933266,47.53185 37.7322,70.318009 l -0.677061,7.013669 6.413764,2.922361 c 20.82851,9.490319 45.851779,9.091734 67.142957,-3.198201 l 0.002,-0.002 c 21.28199,-12.291178 34.13645,-33.76292 36.33752,-56.549079 l 0.67899,-7.017527 -6.41762,-2.920433 C 130.79926,5.8276904 119.33625,3.5566769 107.81681,4.0064341 Z m 0.82945,19.7138869 c 5.89559,-0.224785 11.75023,0.587146 17.35863,2.254945 -3.29641,13.81499 -11.95235,26.283574 -25.26927,33.974627 -13.32556,7.691091 -28.451739,8.953633 -42.056932,4.901467 3.295354,-13.81485 11.94995,-26.282668 25.265411,-33.974628 7.833187,-4.517375 16.293851,-6.835822 24.702161,-7.156411 z"
     id="path21" />
  <path
     style="color:#000000;fill:#eceff4;stroke:#2e3440;stroke-width:1.97525;stroke-miterlimit:10;stroke-dasharray:none;stroke-opacity:1"
     d="m 123.33407,231.31149 c 0,21.33267 10.52806,40.18639 26.66583,51.70208 16.13776,-11.51569 26.66583,-30.36941 26.66583,-51.70208 0,-21.33266 -10.52807,-40.18639 -26.66583,-51.70208 -16.13777,11.51569 -26.66583,30.36942 -26.66583,51.70208 z"
     id="path22" />
  <path
     style="color:#000000;fill:#b48ead;fill-opacity:1;stroke:#2e3440;stroke-width:7.90099;stroke-miterlimit:10;stroke-dasharray:none;stroke-opacity:1"
     d="m 149.99913,167.47739 -5.7367,4.09323 c -18.63342,13.29655 -30.80537,35.15952 -30.80537,59.74156 0,24.58205 12.17195,46.44502 30.80537,59.74157 l 5.7367,4.09324 5.7367,-4.09324 c 18.63342,-13.29655 30.80536,-35.15952 30.80536,-59.74157 0,-24.58204 -12.17194,-46.44501 -30.80536,-59.74156 z m 0,24.96449 c 10.32005,9.76017 16.78959,23.48555 16.78959,38.8703 0,15.38466 -6.46965,29.10823 -16.78959,38.86838 -10.31937,-9.7601 -16.7896,-23.48421 -16.7896,-38.86838 0,-15.38425 6.47012,-29.11018 16.7896,-38.8703 z"
     id="path23" />
  <path
     style="color:#000000;fill:#eceff4;stroke:#2e3440;stroke-width:1.97525;stroke-miterlimit:10;stroke-dasharray:none;stroke-opacity:1"
     d="m 154.33556,198.82856 c 5.52082,20.60182 20.5722,36.09763 39.13952,43.04063 12.60207,-15.29829 17.89573,-36.2359 12.37492,-56.83773 -5.52082,-20.60182 -20.5722,-36.09763 -39.13952,-43.04062 -12.60207,15.29828 -17.89573,36.2359 -12.37492,56.83772 z"
     id="path24" />
  <path
     style="color:#000000;fill:#b48ead;fill-opacity:1;stroke:#2e3440;stroke-width:7.90099;stroke-miterlimit:10;stroke-dasharray:none;stroke-opacity:1"
     d="m 163.5693,130.27176 -4.48096,5.43965 c -14.55079,17.66393 -20.65403,41.93064 -14.2916,65.67309 6.362,23.74085 23.77577,41.71788 45.21849,49.73609 l 6.60087,2.46713 4.48096,-5.43964 c 14.55079,-17.66394 20.65596,-41.93063 14.29353,-65.6731 -6.362,-23.74084 -23.7777,-41.71595 -45.22041,-49.73416 z m 6.46391,24.11576 c 12.4915,6.75615 22.29514,18.34516 26.27619,33.20112 3.98065,14.85444 1.28197,29.78716 -6.15721,41.88525 -12.49158,-6.75613 -22.29512,-18.34509 -26.27619,-33.20111 -3.98061,-14.85434 -1.28183,-29.78722 6.15721,-41.88526 z"
     id="path25" />
  <path
     style="color:#000000;fill:#eceff4;stroke:#2e3440;stroke-width:1.97525;stroke-miterlimit:10;stroke-dasharray:none;stroke-opacity:1"
     d="m 180.54709,166.26662 c 10.66633,18.46856 29.21389,29.53981 48.94661,31.44593 8.21702,-18.034 7.90098,-39.63333 -2.76535,-58.11176 -10.66633,-18.46855 -29.2139,-29.53981 -48.94661,-31.44592 -8.21703,18.034 -7.90099,39.63332 2.76535,58.11175 z"
     id="path26" />
  <path
     style="color:#000000;fill:#b48ead;fill-opacity:1;stroke:#2e3440;stroke-width:7.90099;stroke-miterlimit:10;stroke-dasharray:none;stroke-opacity:1"
     d="m 165.79145,97.647398 -2.92236,6.411832 c -9.49032,20.82851 -9.09173,45.85371 3.1982,67.14489 h 0.002 v 0.002 c 12.29125,21.28207 33.763,34.13653 56.54916,36.3376 l 7.01559,0.67705 2.92043,-6.41376 c 9.49032,-20.82851 9.09173,-45.85178 -3.1982,-67.14295 v -0.002 h -0.002 c -12.29124,-21.28207 -33.76298,-34.13654 -56.54914,-36.3376 z m 12.48032,21.623552 c 13.81647,3.29574 26.28674,11.95116 33.97849,25.26927 7.69109,13.32557 8.95363,28.45174 4.90146,42.05693 -13.81566,-3.29554 -26.2847,-11.95055 -33.97655,-25.26733 -7.69225,-13.32612 -8.9558,-28.45291 -4.9034,-42.05887 z"
     id="path27" />
  <path
     style="color:#000000;fill:#eceff4;stroke:#2e3440;stroke-width:1.97525;stroke-miterlimit:10;stroke-dasharray:none;stroke-opacity:1"
     d="m 97.57685,185.02159 c -5.520815,20.60182 -0.227154,41.54931 12.37492,56.83772 18.56732,-6.94299 33.6187,-22.4388 39.13951,-43.04062 5.52082,-20.60183 0.22716,-41.54932 -12.37492,-56.83773 -18.56731,6.943 -33.6187,22.43881 -39.13951,43.04063 z"
     id="path28" />
  <path
     style="color:#000000;fill:#b48ead;fill-opacity:1;stroke:#2e3440;stroke-width:7.90099;stroke-miterlimit:10;stroke-dasharray:none;stroke-opacity:1"
     d="m 139.8567,130.26212 -6.59894,2.46906 c -21.44273,8.01821 -38.858425,25.99332 -45.220426,49.73416 -6.362636,23.74322 -0.261396,48.01748 14.293536,65.67503 l 4.48095,5.4377 6.59895,-2.46906 c 21.44272,-8.01819 38.85842,-25.99331 45.22041,-49.73416 6.36265,-23.74321 0.26141,-48.01746 -14.29352,-65.67501 z m -6.46199,24.11576 c 7.43618,12.09204 10.13748,27.03222 6.15721,41.88525 -3.98105,14.85596 -13.78661,26.44304 -26.27811,33.1992 -7.43626,-12.09209 -10.1375,-27.03217 -6.15721,-41.88527 3.98105,-14.85595 13.78661,-26.44303 26.27811,-33.19918 z"
     id="path29" />
  <path
     style="color:#000000;fill:#eceff4;stroke:#2e3440;stroke-width:1.97525;stroke-miterlimit:10;stroke-dasharray:none;stroke-opacity:1"
     d="m 78.466339,139.60079 c -10.666332,18.46856 -10.972495,40.06788 -2.765346,58.11176 19.732714,-1.90612 38.280277,-12.9675 48.946617,-31.44593 10.66633,-18.46856 10.97249,-40.06788 2.76534,-58.11175 -19.73271,1.90611 -38.28028,12.96749 -48.946611,31.44592 z"
     id="path30" />
  <path
     style="color:#000000;fill:#b48ead;fill-opacity:1;stroke:#2e3440;stroke-width:7.90099;stroke-miterlimit:10;stroke-dasharray:none;stroke-opacity:1"
     d="m 133.48344,97.645469 -7.01946,0.678991 c -22.78291,2.20075 -44.259695,15.04585 -56.551076,36.33953 -12.291949,21.28501 -12.676998,46.30598 -3.202061,67.13716 l 2.920434,6.41955 7.019455,-0.67705 c 22.782072,-2.20068 44.257548,-15.04532 56.549148,-36.3376 l 0.002,-0.002 c 12.29195,-21.28502 12.67699,-46.30791 3.20205,-67.1391 z m -12.48996,21.625481 c 4.05026,13.61582 2.79162,28.74319 -4.89761,42.05693 h -0.002 v 0.002 c -7.691,13.32395 -20.156489,21.97289 -33.972697,25.26733 -4.050949,-13.6163 -2.791971,-28.74256 4.897608,-42.05693 v -0.002 h 0.002 c 7.691276,-13.32443 20.155909,-21.97316 33.972709,-25.26734 z"
     id="path31" />
  <path
     style="color:#000000;fill:#eceff4;stroke:#2e3440;stroke-width:1.97525;stroke-miterlimit:10;stroke-dasharray:none;stroke-opacity:1"
     d="m 123.27481,167.19499 c 0,21.33266 10.52806,40.18639 26.66583,51.70208 16.13776,-11.51569 26.66583,-30.36942 26.66583,-51.70208 0,-21.33267 -10.52807,-40.1864 -26.66583,-51.70208 -16.13777,11.51568 -26.66583,30.36941 -26.66583,51.70208 z"
     id="path32" />
  <path
     style="color:#000000;fill:#b48ead;fill-opacity:1;stroke:#2e3440;stroke-width:7.90099;stroke-miterlimit:10;stroke-dasharray:none;stroke-opacity:1"
     d="m 149.94126,103.35903 -5.73671,4.09516 c -18.63342,13.29656 -30.80536,35.15952 -30.80536,59.74157 0,24.58204 12.17194,46.44308 30.80536,59.73963 l 5.73671,4.09517 5.7367,-4.09517 c 18.63342,-13.29655 30.80535,-35.15759 30.80535,-59.73963 0,-24.58205 -12.17193,-46.44501 -30.80535,-59.74157 z m 0,24.96642 c 10.31948,9.76012 16.78959,23.48605 16.78959,38.87031 0,15.38417 -6.47023,29.10827 -16.78959,38.86838 -10.31994,-9.76016 -16.7896,-23.48373 -16.78959,-38.86838 -1e-5,-15.38475 6.46953,-29.11014 16.78959,-38.87031 z"
     id="path33" />
  <path
     style="color:#000000;fill:#eceff4;stroke:#2e3440;stroke-width:1.97525;stroke-miterlimit:10;stroke-dasharray:none;stroke-opacity:1"
     d="m 211.18316,95.868827 c 15.08101,15.081013 35.8606,20.977123 55.41554,17.708093 3.26904,-19.545072 -2.62707,-40.334543 -17.70808,-55.415551 -15.08101,-15.081008 -35.8606,-20.977119 -55.41554,-17.708086 -3.26904,19.545066 2.62707,40.334536 17.70808,55.415544 z"
     id="path34" />
  <path
     style="color:#000000;fill:#b48ead;fill-opacity:1;stroke:#2e3440;stroke-width:7.90099;stroke-miterlimit:10;stroke-dasharray:none;stroke-opacity:1"
     d="m 200.36792,29.79459 c -2.8532,0.139703 -5.69937,0.446298 -8.52212,0.918181 l -6.95001,1.161229 -1.16123,6.950013 c -3.77574,22.574613 3.08438,46.64782 20.46425,64.027697 17.37836,17.37835 41.44572,24.24125 64.0277,20.46619 l 6.95001,-1.16123 1.16316,-6.95002 C 280.11543,92.632034 273.25338,68.556897 255.8735,51.177021 240.66744,35.970963 220.34028,28.816669 200.36792,29.79459 Z m 2.18357,19.735106 c 14.19788,-0.39351 28.48115,4.739612 39.35641,15.614864 10.87296,10.872972 16.00672,25.164613 15.61485,39.35641 -14.19787,0.3935 -28.48115,-4.739619 -39.3564,-15.614871 C 207.29338,78.013128 202.15962,63.721487 202.55149,49.529696 Z"
     id="path35" />
  <path
     style="color:#000000;fill:#eceff4;stroke:#2e3440;stroke-width:1.97525;stroke-miterlimit:10;stroke-dasharray:none;stroke-opacity:1"
     d="M 88.816838,95.870358 C 73.73583,110.95137 52.956236,116.84748 33.401294,113.57845 30.132261,94.033379 36.028372,73.243908 51.10938,58.1629 66.190388,43.081892 86.969983,37.185781 106.52492,40.454814 109.79396,59.999879 103.89785,80.78935 88.816838,95.870358 Z"
     id="path34-1" />
  <path
     style="color:#000000;fill:#b48ead;fill-opacity:1;stroke:#2e3440;stroke-width:7.90099;stroke-miterlimit:10;stroke-dasharray:none;stroke-opacity:1"
     d="m 99.632084,29.796121 c 2.853196,0.139703 5.699366,0.446298 8.522116,0.918181 l 6.95001,1.161229 1.16123,6.950013 c 3.77574,22.574612 -3.08438,46.64782 -20.464248,64.027696 -17.378358,17.37835 -41.445721,24.24125 -64.027698,20.46619 L 24.82348,122.1582 23.660316,115.20818 C 19.884573,92.633565 26.746619,68.558427 44.126498,51.178551 59.332559,35.972494 79.659723,28.8182 99.632084,29.796121 Z M 97.448508,49.531226 C 83.250633,49.137717 68.967358,54.270839 58.092104,65.146091 47.219142,76.019062 42.085377,90.310703 42.477246,104.5025 56.675122,104.896 70.958397,99.762882 81.83365,88.88763 92.706622,78.014659 97.840377,63.723018 97.448508,49.531226 Z"
     id="path35-3" />
  <path
     style="color:#000000;fill:#eceff4;stroke:#2e3440;stroke-width:1.97525;stroke-miterlimit:10;stroke-dasharray:none;stroke-opacity:1"
     d="m 168.51783,71.474531 c 15.08101,15.081008 35.86061,20.97712 55.41555,17.708086 3.26903,-19.545065 -2.62708,-40.334536 -17.70809,-55.415544 -15.08101,-15.081007 -35.8606,-20.967242 -55.40567,-17.698209 -3.26903,19.545065 2.62708,40.334536 17.70809,55.415544 z"
     id="path36" />
  <path
     style="color:#000000;fill:#eceff4;stroke:#2e3440;stroke-width:1.97525;stroke-miterlimit:10;stroke-dasharray:none;stroke-opacity:1"
     d="M 93.705366,33.767073 C 78.624358,48.848081 72.728247,69.627676 75.99728,89.182617 c 19.545066,3.269034 40.33454,-2.627078 55.41555,-17.708086 15.081,-15.081007 20.97712,-35.860602 17.70808,-55.415543 -19.54506,-3.269034 -40.33454,2.627078 -55.415544,17.708085 z"
     id="path42" />
  <path
     id="path37"
     style="color:#000000;display:inline;fill:#b48ead;fill-opacity:1;stroke:#2e3440;stroke-width:7.90099;stroke-miterlimit:10;stroke-dasharray:none;stroke-opacity:1"
     d="M 138.48328,5.3123345 C 119.74001,5.3476483 100.97871,12.526581 86.721789,26.783496 69.343456,44.161832 62.480546,68.229233 66.255611,90.811192 l 1.163158,6.950014 6.950013,1.163154 c 22.574589,3.77574 46.647838,-3.086316 64.027698,-20.466174 4.60307,-4.603072 8.44648,-9.685015 11.57178,-15.074759 3.12382,5.389529 6.9646,10.471659 11.566,15.074759 0.003,0.0033 0.006,0.0064 0.01,0.0097 17.37758,17.37115 41.44033,24.230894 64.01805,20.456535 l 6.95001,-1.163159 1.16316,-6.950014 C 237.45062,68.236569 230.5888,44.163356 213.20894,26.783496 198.00157,11.57612 177.67417,4.4305786 157.70915,5.4107109 c -2.57686,0.1265045 -5.14546,0.4069199 -7.69845,0.804373 -2.57977,-0.4043345 -5.17492,-0.6863855 -7.77947,-0.8140177 -1.24804,-0.061159 -2.4984,-0.091086 -3.74795,-0.088732 z m -1.0995,19.8122635 c 0.88692,-0.01872 1.77494,-0.01487 2.66195,0.0097 0.39352,14.197866 -4.74155,28.481161 -15.61679,39.356404 C 113.55558,75.364037 99.264823,80.499758 85.072535,80.107474 84.679026,65.909608 89.814087,51.626313 100.68933,40.75107 110.8831,30.557265 124.07985,25.40541 137.38378,25.124598 Z m 25.17282,0.0097 c 13.30241,0.278051 26.49104,5.423023 36.6848,15.616793 10.87336,10.873358 16.00909,25.164116 15.6168,39.356404 -14.19361,0.393391 -28.47273,-4.738565 -39.34676,-15.607149 -0.002,-0.0017 -0.002,-0.0041 -0.004,-0.0058 -0.002,-0.0017 -0.004,-0.0022 -0.006,-0.0039 -10.86646,-10.872112 -15.99931,-25.158721 -15.60715,-39.346759 0.88698,-0.02467 1.77513,-0.02818 2.66195,-0.0097 z" />
  <path
     style="color:#000000;fill:#eceff4;stroke:#2e3440;stroke-width:1.97525;stroke-miterlimit:10;stroke-dasharray:none;stroke-opacity:1"
     d="m 198.66997,127.00859 c 15.08101,15.08101 35.86061,20.97712 55.41555,17.70809 3.26903,-19.54507 -2.62708,-40.33454 -17.70809,-55.415548 -15.08101,-15.081008 -35.8606,-20.977119 -55.41554,-17.708086 -3.26904,19.545066 2.62708,40.334544 17.70808,55.415544 z"
     id="path38" />
  <path
     style="color:#000000;fill:#b48ead;fill-opacity:1;stroke:#2e3440;stroke-width:7.90099;stroke-miterlimit:10;stroke-dasharray:none;stroke-opacity:1"
     d="m 187.85481,60.935587 c -2.8532,0.139704 -5.69937,0.44437 -8.52212,0.916253 l -6.95001,1.161229 -1.16123,6.950013 c -3.77574,22.574612 3.08438,46.649748 20.46425,64.029628 17.37836,17.37835 41.44572,24.23932 64.0277,20.46425 l 6.95001,-1.16123 1.16315,-6.95001 C 267.60232,123.77111 260.74027,99.697896 243.36039,82.318018 228.15433,67.11196 207.82716,59.957666 187.85481,60.935587 Z m 2.18356,19.733177 c 14.19789,-0.39351 28.48115,4.74154 39.35641,15.616794 10.87336,10.873372 16.00715,25.164112 15.61486,39.356402 -14.19787,0.39351 -28.48115,-4.74154 -39.3564,-15.61679 C 194.77987,109.1518 189.64609,94.861066 190.03837,80.668764 Z"
     id="path39" />
  <path
     style="color:#000000;fill:#eceff4;stroke:#2e3440;stroke-width:1.97525;stroke-miterlimit:10;stroke-dasharray:none;stroke-opacity:1"
     d="M 63.513722,89.301132 C 48.432714,104.38214 42.536603,125.16174 45.805636,144.71668 65.350701,147.98571 86.140172,142.0896 101.22118,127.00859 116.30219,111.92759 122.1983,91.147988 118.92927,71.593046 99.3842,68.324013 78.59473,74.220124 63.513722,89.301132 Z"
     id="path44" />
  <path
     style="color:#000000;fill:#b48ead;fill-opacity:1;stroke:#2e3440;stroke-width:7.90099;stroke-miterlimit:10;stroke-dasharray:none;stroke-opacity:1"
     d="M 112.03928,60.933658 C 92.070569,59.955117 71.737227,67.110626 56.529836,82.318018 39.151484,99.696375 32.288589,123.76374 36.063657,146.34572 l 1.163159,6.95001 6.950013,1.16123 c 22.574612,3.77574 46.64782,-3.08437 64.027691,-20.46425 17.37836,-17.37835 24.24125,-41.445717 20.46618,-64.0277 l -1.16315,-6.950012 -6.95002,-1.163158 c -2.82182,-0.471968 -5.66558,-0.778389 -8.51825,-0.918182 z m -2.1855,19.735106 C 110.24729,94.866643 105.11224,109.14992 94.236985,120.02517 83.363618,130.89854 69.072884,136.03425 54.880582,135.64196 54.486547,121.44345 59.62163,107.16131 70.497376,96.285558 81.370743,85.412191 95.661478,80.276478 109.85378,80.668764 Z"
     id="path45" />
  <path
     style="color:#000000;fill:#eceff4;stroke:#2e3440;stroke-width:1.97525;stroke-miterlimit:10;stroke-dasharray:none;stroke-opacity:1"
     d="m 123.33407,93.123234 c 0,21.332666 10.52806,40.186396 26.66583,51.702086 16.13776,-11.51569 26.66583,-30.36942 26.66583,-51.702086 0,-21.332663 -10.52807,-40.186392 -26.66583,-51.70208 -16.13777,11.515688 -26.66583,30.369417 -26.66583,51.70208 z"
     id="path46" />
  <path
     style="color:#000000;fill:#b48ead;fill-opacity:1;stroke:#2e3440;stroke-width:7.90099;stroke-miterlimit:10;stroke-dasharray:none;stroke-opacity:1"
     d="m 149.99913,29.287275 -5.7367,4.095166 c -18.63342,13.29655 -30.80537,35.159524 -30.80537,59.741565 0,24.582044 12.17195,46.443084 30.80537,59.739634 l 5.7367,4.09517 5.7367,-4.09517 c 18.63342,-13.29655 30.80536,-35.15759 30.80536,-59.739634 0,-24.582041 -12.17194,-46.445015 -30.80536,-59.741565 z m 0,24.966423 c 10.32005,9.760171 16.78959,23.485557 16.78959,38.870308 0,15.384654 -6.46965,29.108224 -16.78959,38.868384 -10.31937,-9.76011 -16.7896,-23.48422 -16.7896,-38.868384 0,-15.384262 6.47012,-29.110192 16.7896,-38.870308 z"
     id="path47" />
</svg>
